<svg xmlns="http://www.w3.org/2000/svg" width="1325.337" height="832.948" viewBox="0 0 1325.337 832.948">
  <g id="Grupo_989858" data-name="Grupo 989858" transform="translate(-139 -635.354)">
    <g id="Grupo_167875" data-name="Grupo 167875" transform="translate(837.27 -44.991)">
      <path id="Trazado_100553" data-name="Trazado 100553" d="M597.618,812.684,560.9,775.965,524.18,812.684l-29.45-29.449,36.719-36.719L494.73,709.8l29.45-29.452,36.719,36.72,36.719-36.72L627.067,709.8l-36.719,36.719,36.719,36.719ZM560.9,767.725l36.719,36.719,21.209-21.209-36.719-36.719L618.827,709.8l-21.209-21.209L560.9,725.308l-36.719-36.72L502.971,709.8l36.719,36.719-36.719,36.719,21.209,21.209Z" fill="#05dbf3"/>
    </g>
    <g id="Grupo_167876" data-name="Grupo 167876" transform="translate(-355.73 655.617)">
      <path id="Trazado_100553-2" data-name="Trazado 100553" d="M597.618,812.684,560.9,775.965,524.18,812.684l-29.45-29.449,36.719-36.719L494.73,709.8l29.45-29.452,36.719,36.72,36.719-36.72L627.067,709.8l-36.719,36.719,36.719,36.719ZM560.9,767.725l36.719,36.719,21.209-21.209-36.719-36.719L618.827,709.8l-21.209-21.209L560.9,725.308l-36.719-36.72L502.971,709.8l36.719,36.719-36.719,36.719,21.209,21.209Z" fill="#05dbf3"/>
    </g>
  </g>
</svg>
