<svg xmlns="http://www.w3.org/2000/svg" xmlns:xlink="http://www.w3.org/1999/xlink" width="1207.818" height="456" viewBox="0 0 1207.818 456">
  <defs>
    <filter id="Rectángulo_349165" x="994.818" y="277" width="213" height="102" filterUnits="userSpaceOnUse">
      <feOffset dy="3" input="SourceAlpha"/>
      <feGaussianBlur stdDeviation="3" result="blur"/>
      <feFlood flood-opacity="0.161"/>
      <feComposite operator="in" in2="blur"/>
      <feComposite in="SourceGraphic"/>
    </filter>
  </defs>
  <g id="Grupo_989689" data-name="Grupo 989689" transform="translate(-206.182 -3591)">
    <g id="Elipse_4830" data-name="Elipse 4830" transform="translate(858 3784)" fill="none" stroke="#3b34ef" stroke-width="65">
      <ellipse cx="130" cy="131.5" rx="130" ry="131.5" stroke="none"/>
      <ellipse cx="130" cy="131.5" rx="97.5" ry="99" fill="none"/>
    </g>
    <rect id="Rectángulo_349104" data-name="Rectángulo 349104" width="21" height="21" transform="translate(429 3769)" fill="#3b34ef"/>
    <rect id="Rectángulo_349105" data-name="Rectángulo 349105" width="21" height="21" transform="translate(454 3769)" fill="#3b34ef"/>
    <rect id="Rectángulo_349106" data-name="Rectángulo 349106" width="21" height="21" transform="translate(479 3769)" fill="#3b34ef"/>
    <rect id="Rectángulo_349107" data-name="Rectángulo 349107" width="21" height="21" transform="translate(504 3769)" fill="#3b34ef"/>
    <rect id="Rectángulo_349108" data-name="Rectángulo 349108" width="21" height="21" transform="translate(529 3769)" fill="#3b34ef"/>
    <rect id="Rectángulo_349109" data-name="Rectángulo 349109" width="21" height="21" transform="translate(554 3769)" fill="#3b34ef"/>
    <rect id="Rectángulo_349110" data-name="Rectángulo 349110" width="21" height="21" transform="translate(579 3769)" fill="#3b34ef"/>
    <rect id="Rectángulo_349111" data-name="Rectángulo 349111" width="21" height="21" transform="translate(429 3797)" fill="#3b34ef"/>
    <rect id="Rectángulo_349112" data-name="Rectángulo 349112" width="21" height="21" transform="translate(454 3797)" fill="#3b34ef"/>
    <rect id="Rectángulo_349113" data-name="Rectángulo 349113" width="21" height="21" transform="translate(479 3797)" fill="#3b34ef"/>
    <rect id="Rectángulo_349114" data-name="Rectángulo 349114" width="21" height="21" transform="translate(504 3797)" fill="#3b34ef"/>
    <rect id="Rectángulo_349115" data-name="Rectángulo 349115" width="21" height="21" transform="translate(529 3797)" fill="#3b34ef"/>
    <rect id="Rectángulo_349116" data-name="Rectángulo 349116" width="21" height="21" transform="translate(554 3797)" fill="#3b34ef"/>
    <rect id="Rectángulo_349117" data-name="Rectángulo 349117" width="21" height="21" transform="translate(579 3797)" fill="#3b34ef"/>
    <rect id="Rectángulo_349118" data-name="Rectángulo 349118" width="21" height="21" transform="translate(429 3825)" fill="#3b34ef"/>
    <rect id="Rectángulo_349119" data-name="Rectángulo 349119" width="21" height="21" transform="translate(454 3825)" fill="#3b34ef"/>
    <rect id="Rectángulo_349120" data-name="Rectángulo 349120" width="21" height="21" transform="translate(479 3825)" fill="#3b34ef"/>
    <rect id="Rectángulo_349121" data-name="Rectángulo 349121" width="21" height="21" transform="translate(504 3825)" fill="#3b34ef"/>
    <rect id="Rectángulo_349122" data-name="Rectángulo 349122" width="21" height="21" transform="translate(529 3825)" fill="#3b34ef"/>
    <rect id="Rectángulo_349123" data-name="Rectángulo 349123" width="21" height="21" transform="translate(554 3825)" fill="#3b34ef"/>
    <rect id="Rectángulo_349124" data-name="Rectángulo 349124" width="21" height="21" transform="translate(579 3825)" fill="#3b34ef"/>
    <rect id="Rectángulo_349125" data-name="Rectángulo 349125" width="21" height="21" transform="translate(429 3853)" fill="#3b34ef"/>
    <rect id="Rectángulo_349126" data-name="Rectángulo 349126" width="21" height="21" transform="translate(454 3853)" fill="#3b34ef"/>
    <rect id="Rectángulo_349127" data-name="Rectángulo 349127" width="21" height="21" transform="translate(479 3853)" fill="#3b34ef"/>
    <rect id="Rectángulo_349128" data-name="Rectángulo 349128" width="21" height="21" transform="translate(504 3853)" fill="#3b34ef"/>
    <rect id="Rectángulo_349129" data-name="Rectángulo 349129" width="21" height="21" transform="translate(529 3853)" fill="#3b34ef"/>
    <rect id="Rectángulo_349130" data-name="Rectángulo 349130" width="21" height="21" transform="translate(554 3853)" fill="#3b34ef"/>
    <rect id="Rectángulo_349131" data-name="Rectángulo 349131" width="21" height="21" transform="translate(579 3853)" fill="#3b34ef"/>
    <rect id="Rectángulo_349132" data-name="Rectángulo 349132" width="21" height="21" transform="translate(429 3881)" fill="#3b34ef"/>
    <rect id="Rectángulo_349133" data-name="Rectángulo 349133" width="21" height="21" transform="translate(454 3881)" fill="#3b34ef"/>
    <rect id="Rectángulo_349134" data-name="Rectángulo 349134" width="21" height="21" transform="translate(479 3881)" fill="#3b34ef"/>
    <rect id="Rectángulo_349135" data-name="Rectángulo 349135" width="21" height="21" transform="translate(504 3881)" fill="#dd4f52"/>
    <rect id="Rectángulo_349136" data-name="Rectángulo 349136" width="21" height="21" transform="translate(529 3881)" fill="#dd4f52"/>
    <rect id="Rectángulo_349137" data-name="Rectángulo 349137" width="21" height="21" transform="translate(554 3881)" fill="#dd4f52"/>
    <rect id="Rectángulo_349138" data-name="Rectángulo 349138" width="21" height="21" transform="translate(579 3881)" fill="#dd4f52"/>
    <rect id="Rectángulo_349139" data-name="Rectángulo 349139" width="21" height="21" transform="translate(429 3909)" fill="#3b34ef"/>
    <rect id="Rectángulo_349140" data-name="Rectángulo 349140" width="21" height="21" transform="translate(454 3909)" fill="#3b34ef"/>
    <rect id="Rectángulo_349141" data-name="Rectángulo 349141" width="21" height="21" transform="translate(479 3909)" fill="#3b34ef"/>
    <rect id="Rectángulo_349142" data-name="Rectángulo 349142" width="21" height="21" transform="translate(504 3909)" fill="#dd4f52"/>
    <rect id="Rectángulo_349143" data-name="Rectángulo 349143" width="21" height="21" transform="translate(529 3909)" fill="#dd4f52"/>
    <rect id="Rectángulo_349144" data-name="Rectángulo 349144" width="21" height="21" transform="translate(554 3909)" fill="#dd4f52"/>
    <rect id="Rectángulo_349145" data-name="Rectángulo 349145" width="21" height="21" transform="translate(579 3909)" fill="#dd4f52"/>
    <rect id="Rectángulo_349146" data-name="Rectángulo 349146" width="21" height="21" transform="translate(429 3937)" fill="#3b34ef"/>
    <rect id="Rectángulo_349147" data-name="Rectángulo 349147" width="21" height="21" transform="translate(454 3937)" fill="#3b34ef"/>
    <rect id="Rectángulo_349148" data-name="Rectángulo 349148" width="21" height="21" transform="translate(479 3937)" fill="#3b34ef"/>
    <rect id="Rectángulo_349149" data-name="Rectángulo 349149" width="21" height="21" transform="translate(504 3937)" fill="#dd4f52"/>
    <rect id="Rectángulo_349150" data-name="Rectángulo 349150" width="21" height="21" transform="translate(529 3937)" fill="#dd4f52"/>
    <rect id="Rectángulo_349151" data-name="Rectángulo 349151" width="21" height="21" transform="translate(554 3937)" fill="#dd4f52"/>
    <rect id="Rectángulo_349152" data-name="Rectángulo 349152" width="21" height="21" transform="translate(579 3937)" fill="#dd4f52"/>
    <rect id="Rectángulo_349153" data-name="Rectángulo 349153" width="21" height="21" transform="translate(680 3881)" fill="#dd4f52"/>
    <rect id="Rectángulo_349154" data-name="Rectángulo 349154" width="21" height="21" transform="translate(705 3881)" fill="#dd4f52"/>
    <rect id="Rectángulo_349155" data-name="Rectángulo 349155" width="21" height="21" transform="translate(730 3881)" fill="#dd4f52"/>
    <rect id="Rectángulo_349156" data-name="Rectángulo 349156" width="21" height="21" transform="translate(755 3881)" fill="#dd4f52"/>
    <rect id="Rectángulo_349157" data-name="Rectángulo 349157" width="21" height="21" transform="translate(680 3909)" fill="#dd4f52"/>
    <rect id="Rectángulo_349158" data-name="Rectángulo 349158" width="21" height="21" transform="translate(705 3909)" fill="#dd4f52"/>
    <rect id="Rectángulo_349159" data-name="Rectángulo 349159" width="21" height="21" transform="translate(730 3909)" fill="#dd4f52"/>
    <rect id="Rectángulo_349160" data-name="Rectángulo 349160" width="21" height="21" transform="translate(755 3909)" fill="#dd4f52"/>
    <rect id="Rectángulo_349161" data-name="Rectángulo 349161" width="21" height="21" transform="translate(680 3937)" fill="#dd4f52"/>
    <rect id="Rectángulo_349162" data-name="Rectángulo 349162" width="21" height="21" transform="translate(705 3937)" fill="#dd4f52"/>
    <rect id="Rectángulo_349163" data-name="Rectángulo 349163" width="21" height="21" transform="translate(730 3937)" fill="#dd4f52"/>
    <rect id="Rectángulo_349164" data-name="Rectángulo 349164" width="21" height="21" transform="translate(755 3937)" fill="#dd4f52"/>
    <g id="Grupo_989682" data-name="Grupo 989682" transform="translate(-1.529)">
      <g id="Elipse_4831" data-name="Elipse 4831" transform="translate(260 3633)" fill="none" stroke="#322aee" stroke-width="6">
        <circle cx="13" cy="13" r="13" stroke="none"/>
        <circle cx="13" cy="13" r="10" fill="none"/>
      </g>
      <path id="Trazado_688445" data-name="Trazado 688445" d="M-11222.471-8016.447s2.6-18.836,16.922-18.977,17.807,18.977,17.807,18.977" transform="translate(11478 11700)" fill="none" stroke="#322aee" stroke-linecap="round" stroke-width="5"/>
    </g>
    <g id="Grupo_989683" data-name="Grupo 989683" transform="translate(0.471)">
      <g id="Elipse_4832" data-name="Elipse 4832" transform="translate(260 3770)" fill="none" stroke="#322aee" stroke-width="6">
        <circle cx="13" cy="13" r="13" stroke="none"/>
        <circle cx="13" cy="13" r="10" fill="none"/>
      </g>
      <path id="Trazado_688446" data-name="Trazado 688446" d="M-11222.471-8016.447s2.6-18.836,16.922-18.977,17.807,18.977,17.807,18.977" transform="translate(11478 11837)" fill="none" stroke="#322aee" stroke-linecap="round" stroke-width="5"/>
      <g id="Elipse_4833" data-name="Elipse 4833" transform="translate(213 3770)" fill="none" stroke="#322aee" stroke-width="6">
        <circle cx="13" cy="13" r="13" stroke="none"/>
        <circle cx="13" cy="13" r="10" fill="none"/>
      </g>
      <path id="Trazado_688447" data-name="Trazado 688447" d="M-11222.471-8016.447s2.6-18.836,16.922-18.977,17.807,18.977,17.807,18.977" transform="translate(11431 11837)" fill="none" stroke="#322aee" stroke-linecap="round" stroke-width="5"/>
      <g id="Elipse_4834" data-name="Elipse 4834" transform="translate(303 3770)" fill="none" stroke="#322aee" stroke-width="6">
        <circle cx="13" cy="13" r="13" stroke="none"/>
        <circle cx="13" cy="13" r="10" fill="none"/>
      </g>
      <path id="Trazado_688448" data-name="Trazado 688448" d="M-11222.471-8016.447s2.6-18.836,16.922-18.977,17.807,18.977,17.807,18.977" transform="translate(11521 11837)" fill="none" stroke="#322aee" stroke-linecap="round" stroke-width="5"/>
    </g>
    <g id="Grupo_989684" data-name="Grupo 989684" transform="translate(-1.529)">
      <g id="Elipse_4835" data-name="Elipse 4835" transform="translate(260 3903)" fill="none" stroke="#322aee" stroke-width="6">
        <circle cx="13" cy="13" r="13" stroke="none"/>
        <circle cx="13" cy="13" r="10" fill="none"/>
      </g>
      <path id="Trazado_688449" data-name="Trazado 688449" d="M-11222.471-8016.447s2.6-18.836,16.922-18.977,17.807,18.977,17.807,18.977" transform="translate(11478 11970)" fill="none" stroke="#322aee" stroke-linecap="round" stroke-width="5"/>
    </g>
    <g id="Grupo_989685" data-name="Grupo 989685" transform="translate(0.471)">
      <g id="Elipse_4836" data-name="Elipse 4836" transform="translate(643 3720)" fill="none" stroke="#322aee" stroke-width="6">
        <circle cx="13" cy="13" r="13" stroke="none"/>
        <circle cx="13" cy="13" r="10" fill="none"/>
      </g>
      <path id="Trazado_688450" data-name="Trazado 688450" d="M-11222.471-8016.447s2.6-18.836,16.922-18.977,17.807,18.977,17.807,18.977" transform="translate(11861 11787)" fill="none" stroke="#322aee" stroke-linecap="round" stroke-width="5"/>
      <g id="Elipse_4837" data-name="Elipse 4837" transform="translate(770 3720)" fill="none" stroke="#e9d441" stroke-width="6">
        <circle cx="13" cy="13" r="13" stroke="none"/>
        <circle cx="13" cy="13" r="10" fill="none"/>
      </g>
      <path id="Trazado_688451" data-name="Trazado 688451" d="M-11222.471-8016.447s2.6-18.836,16.922-18.977,17.807,18.977,17.807,18.977" transform="translate(11988 11787)" fill="none" stroke="#e9d441" stroke-linecap="round" stroke-width="5"/>
      <g id="Elipse_4838" data-name="Elipse 4838" transform="translate(727 3720)" fill="none" stroke="#dd4f52" stroke-width="6">
        <circle cx="13" cy="13" r="13" stroke="none"/>
        <circle cx="13" cy="13" r="10" fill="none"/>
      </g>
      <g id="Elipse_4839" data-name="Elipse 4839" transform="translate(707 3720)" fill="none" stroke="#dd4f52" stroke-width="6">
        <circle cx="13" cy="13" r="13" stroke="none"/>
        <circle cx="13" cy="13" r="10" fill="none"/>
      </g>
      <g id="Elipse_4840" data-name="Elipse 4840" transform="translate(687 3720)" fill="none" stroke="#dd4f52" stroke-width="6">
        <circle cx="13" cy="13" r="13" stroke="none"/>
        <circle cx="13" cy="13" r="10" fill="none"/>
      </g>
      <path id="Trazado_688452" data-name="Trazado 688452" d="M-10795.1-7927.36s8.462-19.342,16.368-19.121,8.5,5.919,11.018,5.779,3.216-5.881,9.783-5.779,7.151,5.724,9.752,5.779,3.249-6.062,11.054-5.779,15.6,19.121,15.6,19.121" transform="translate(11478 11700)" fill="none" stroke="#dd4f52" stroke-linecap="round" stroke-width="5"/>
    </g>
    <g id="Grupo_989686" data-name="Grupo 989686" transform="translate(1)">
      <g id="Grupo_989676" data-name="Grupo 989676">
        <g id="Elipse_4841" data-name="Elipse 4841" transform="translate(853.104 3591)" fill="none" stroke="#dd4f52" stroke-width="6">
          <circle cx="13" cy="13" r="13" stroke="none"/>
          <circle cx="13" cy="13" r="10" fill="none"/>
        </g>
        <g id="Elipse_4842" data-name="Elipse 4842" transform="translate(833.104 3591)" fill="none" stroke="#dd4f52" stroke-width="6">
          <circle cx="13" cy="13" r="13" stroke="none"/>
          <circle cx="13" cy="13" r="10" fill="none"/>
        </g>
        <g id="Elipse_4843" data-name="Elipse 4843" transform="translate(813.104 3591)" fill="none" stroke="#dd4f52" stroke-width="6">
          <circle cx="13" cy="13" r="13" stroke="none"/>
          <circle cx="13" cy="13" r="10" fill="none"/>
        </g>
        <path id="Trazado_688453" data-name="Trazado 688453" d="M-10795.1-7927.36s8.462-19.342,16.368-19.121,8.5,5.919,11.018,5.779,3.216-5.881,9.783-5.779,7.151,5.724,9.752,5.779,3.249-6.062,11.054-5.779,15.6,19.121,15.6,19.121" transform="translate(11604.104 11571)" fill="none" stroke="#dd4f52" stroke-linecap="round" stroke-width="5"/>
      </g>
      <g id="Elipse_4844" data-name="Elipse 4844" transform="translate(899.471 3591)" fill="none" stroke="#322aee" stroke-width="6">
        <circle cx="13" cy="13" r="13" stroke="none"/>
        <circle cx="13" cy="13" r="10" fill="none"/>
      </g>
      <path id="Trazado_688454" data-name="Trazado 688454" d="M-11222.471-8016.447s2.6-18.836,16.922-18.977,17.807,18.977,17.807,18.977" transform="translate(12117.471 11658)" fill="none" stroke="#322aee" stroke-linecap="round" stroke-width="5"/>
    </g>
    <g id="Grupo_989688" data-name="Grupo 989688" transform="translate(0.364)">
      <g id="Elipse_4847" data-name="Elipse 4847" transform="translate(1133.106 3727.19)" fill="none" stroke="#322aee" stroke-width="6">
        <circle cx="13" cy="13" r="13" stroke="none"/>
        <circle cx="13" cy="13" r="10" fill="none"/>
      </g>
      <path id="Trazado_688457" data-name="Trazado 688457" d="M-11222.471-8016.447s2.6-18.836,16.922-18.977,17.807,18.977,17.807,18.977" transform="translate(12351.106 11794.189)" fill="none" stroke="#322aee" stroke-linecap="round" stroke-width="5"/>
      <g id="Grupo_989678" data-name="Grupo 989678" transform="translate(364.636 136.189)">
        <g id="Elipse_4841-2" data-name="Elipse 4841" transform="translate(853.104 3591)" fill="none" stroke="#dd4f52" stroke-width="6">
          <circle cx="13" cy="13" r="13" stroke="none"/>
          <circle cx="13" cy="13" r="10" fill="none"/>
        </g>
        <g id="Elipse_4842-2" data-name="Elipse 4842" transform="translate(833.104 3591)" fill="none" stroke="#dd4f52" stroke-width="6">
          <circle cx="13" cy="13" r="13" stroke="none"/>
          <circle cx="13" cy="13" r="10" fill="none"/>
        </g>
        <g id="Elipse_4843-2" data-name="Elipse 4843" transform="translate(813.104 3591)" fill="none" stroke="#dd4f52" stroke-width="6">
          <circle cx="13" cy="13" r="13" stroke="none"/>
          <circle cx="13" cy="13" r="10" fill="none"/>
        </g>
        <path id="Trazado_688453-2" data-name="Trazado 688453" d="M-10795.1-7927.36s8.462-19.342,16.368-19.121,8.5,5.919,11.018,5.779,3.216-5.881,9.783-5.779,7.151,5.724,9.752,5.779,3.249-6.062,11.054-5.779,15.6,19.121,15.6,19.121" transform="translate(11604.104 11571)" fill="none" stroke="#dd4f52" stroke-linecap="round" stroke-width="5"/>
      </g>
      <g id="Elipse_4848" data-name="Elipse 4848" transform="translate(1261.106 3727.19)" fill="none" stroke="#e9d441" stroke-width="6">
        <circle cx="13" cy="13" r="13" stroke="none"/>
        <circle cx="13" cy="13" r="10" fill="none"/>
      </g>
      <path id="Trazado_688458" data-name="Trazado 688458" d="M-11222.471-8016.447s2.6-18.836,16.922-18.977,17.807,18.977,17.807,18.977" transform="translate(12479.106 11794.189)" fill="none" stroke="#e9d441" stroke-linecap="round" stroke-width="5"/>
    </g>
    <g id="Grupo_989687" data-name="Grupo 989687">
      <g id="Elipse_4845" data-name="Elipse 4845" transform="translate(1023.471 3591)" fill="none" stroke="#322aee" stroke-width="6">
        <circle cx="13" cy="13" r="13" stroke="none"/>
        <circle cx="13" cy="13" r="10" fill="none"/>
      </g>
      <path id="Trazado_688455" data-name="Trazado 688455" d="M-11222.471-8016.447s2.6-18.836,16.922-18.977,17.807,18.977,17.807,18.977" transform="translate(12241.471 11658)" fill="none" stroke="#322aee" stroke-linecap="round" stroke-width="5"/>
      <g id="Grupo_989677" data-name="Grupo 989677" transform="translate(255)">
        <g id="Elipse_4841-3" data-name="Elipse 4841" transform="translate(853.104 3591)" fill="none" stroke="#dd4f52" stroke-width="6">
          <circle cx="13" cy="13" r="13" stroke="none"/>
          <circle cx="13" cy="13" r="10" fill="none"/>
        </g>
        <g id="Elipse_4842-3" data-name="Elipse 4842" transform="translate(833.104 3591)" fill="none" stroke="#dd4f52" stroke-width="6">
          <circle cx="13" cy="13" r="13" stroke="none"/>
          <circle cx="13" cy="13" r="10" fill="none"/>
        </g>
        <g id="Elipse_4843-3" data-name="Elipse 4843" transform="translate(813.104 3591)" fill="none" stroke="#dd4f52" stroke-width="6">
          <circle cx="13" cy="13" r="13" stroke="none"/>
          <circle cx="13" cy="13" r="10" fill="none"/>
        </g>
        <path id="Trazado_688453-3" data-name="Trazado 688453" d="M-10795.1-7927.36s8.462-19.342,16.368-19.121,8.5,5.919,11.018,5.779,3.216-5.881,9.783-5.779,7.151,5.724,9.752,5.779,3.249-6.062,11.054-5.779,15.6,19.121,15.6,19.121" transform="translate(11604.104 11571)" fill="none" stroke="#dd4f52" stroke-linecap="round" stroke-width="5"/>
      </g>
      <g id="Elipse_4846" data-name="Elipse 4846" transform="translate(1151.471 3591)" fill="none" stroke="#e9d441" stroke-width="6">
        <circle cx="13" cy="13" r="13" stroke="none"/>
        <circle cx="13" cy="13" r="10" fill="none"/>
      </g>
      <path id="Trazado_688456" data-name="Trazado 688456" d="M-11222.471-8016.447s2.6-18.836,16.922-18.977,17.807,18.977,17.807,18.977" transform="translate(12369.471 11658)" fill="none" stroke="#e9d441" stroke-linecap="round" stroke-width="5"/>
      <g id="Elipse_4849" data-name="Elipse 4849" transform="translate(1197.471 3591)" fill="none" stroke="#adacb2" stroke-width="6">
        <circle cx="13" cy="13" r="13" stroke="none"/>
        <circle cx="13" cy="13" r="10" fill="none"/>
      </g>
      <g id="Elipse_4850" data-name="Elipse 4850" transform="translate(1217.471 3591)" fill="none" stroke="#adacb2" stroke-width="6">
        <circle cx="13" cy="13" r="13" stroke="none"/>
        <circle cx="13" cy="13" r="10" fill="none"/>
      </g>
      <path id="Trazado_688459" data-name="Trazado 688459" d="M-10283.188-8058.447s4.988-21.447,15.188-21.538,7.088,6.693,10.93,6.627,1.37-6.6,10.3-6.627,15.484,21.538,15.484,21.538" transform="translate(11478 11700)" fill="none" stroke="#adacb2" stroke-linecap="round" stroke-width="5"/>
    </g>
    <path id="Trazado_688460" data-name="Trazado 688460" d="M0,0H269l31.918,22.762L269,48H0Z" transform="translate(844 3986)" fill="#dd4f52"/>
    <g transform="matrix(1, 0, 0, 1, 206.18, 3591)" filter="url(#Rectángulo_349165)">
      <rect id="Rectángulo_349165-2" data-name="Rectángulo 349165" width="195" height="84" transform="translate(1003.82 283)" fill="#e9d43e"/>
    </g>
    <g id="Grupo_989679" data-name="Grupo 989679">
      <path id="Polígono_9" data-name="Polígono 9" d="M12,0,24,37H0Z" transform="translate(668.5 3904.5) rotate(90)" fill="#141414"/>
      <path id="Trazado_688461" data-name="Trazado 688461" d="M-10846.5-7783.5h-18.567" transform="translate(11478 11700)" fill="none" stroke="#141414" stroke-width="3"/>
    </g>
    <g id="Grupo_989680" data-name="Grupo 989680" transform="translate(174)">
      <path id="Polígono_9-2" data-name="Polígono 9" d="M12,0,24,37H0Z" transform="translate(668.5 3904.5) rotate(90)" fill="#141414"/>
      <path id="Trazado_688461-2" data-name="Trazado 688461" d="M-10846.5-7783.5h-18.567" transform="translate(11478 11700)" fill="none" stroke="#141414" stroke-width="3"/>
    </g>
    <g id="Grupo_989681" data-name="Grupo 989681" transform="translate(513)">
      <path id="Polígono_9-3" data-name="Polígono 9" d="M12,0,24,37H0Z" transform="translate(668.5 3904.5) rotate(90)" fill="#141414"/>
      <path id="Trazado_688461-3" data-name="Trazado 688461" d="M-10846.5-7783.5h-18.567" transform="translate(11478 11700)" fill="none" stroke="#141414" stroke-width="3"/>
    </g>
    <path id="Trazado_688653" data-name="Trazado 688653" d="M12.919,12.491V17H10.282V4.2h4.992a5.776,5.776,0,0,1,2.536.527,3.886,3.886,0,0,1,1.683,1.5,4.178,4.178,0,0,1,.589,2.21,3.674,3.674,0,0,1-1.288,2.966,5.363,5.363,0,0,1-3.564,1.085Zm0-2.136h2.355a2.316,2.316,0,0,0,1.6-.492,1.79,1.79,0,0,0,.549-1.406,2.111,2.111,0,0,0-.554-1.521,2.068,2.068,0,0,0-1.529-.6H12.919Zm14.15-.483a6.9,6.9,0,0,0-.914-.07,1.86,1.86,0,0,0-1.89.976V17h-2.54V7.49h2.4l.07,1.134a2.354,2.354,0,0,1,2.118-1.31,2.662,2.662,0,0,1,.791.114Zm.51,2.285a5.64,5.64,0,0,1,.545-2.522,3.989,3.989,0,0,1,1.569-1.714,4.577,4.577,0,0,1,2.377-.606,4.33,4.33,0,0,1,3.142,1.178,4.727,4.727,0,0,1,1.358,3.2l.018.65a4.97,4.97,0,0,1-1.222,3.511,4.247,4.247,0,0,1-3.278,1.323,4.268,4.268,0,0,1-3.283-1.318,5.058,5.058,0,0,1-1.226-3.586Zm2.54.18a3.555,3.555,0,0,0,.51,2.073,1.831,1.831,0,0,0,2.9.009,3.89,3.89,0,0,0,.519-2.267,3.519,3.519,0,0,0-.519-2.06,1.686,1.686,0,0,0-1.459-.731,1.658,1.658,0,0,0-1.441.726A3.955,3.955,0,0,0,30.119,12.338Zm7.638-.163a5.731,5.731,0,0,1,1-3.542,3.237,3.237,0,0,1,2.729-1.318,2.913,2.913,0,0,1,2.294,1.037V3.5h2.549V17H44.032l-.123-1.011a2.989,2.989,0,0,1-2.443,1.187,3.228,3.228,0,0,1-2.694-1.323A5.916,5.916,0,0,1,37.757,12.175Zm2.54.181a3.775,3.775,0,0,0,.466,2.057,1.516,1.516,0,0,0,1.354.715,1.7,1.7,0,0,0,1.661-1V10.36a1.675,1.675,0,0,0-1.644-1Q40.3,9.362,40.3,12.356ZM53.99,16.033a3.185,3.185,0,0,1-2.6,1.143,3,3,0,0,1-2.333-.879,3.752,3.752,0,0,1-.822-2.575V7.49h2.54v6.151q0,1.487,1.354,1.487a1.834,1.834,0,0,0,1.775-.9V7.49h2.549V17H54.061Zm8.332-.905a1.666,1.666,0,0,0,1.143-.387,1.355,1.355,0,0,0,.457-1.028H66.3a3.258,3.258,0,0,1-.527,1.771,3.48,3.48,0,0,1-1.419,1.248,4.442,4.442,0,0,1-1.991.444,4.129,4.129,0,0,1-3.217-1.3A5.13,5.13,0,0,1,57.972,12.3v-.167a5.071,5.071,0,0,1,1.169-3.507,4.08,4.08,0,0,1,3.208-1.31A4,4,0,0,1,65.209,8.33a3.594,3.594,0,0,1,1.094,2.7H63.922a1.745,1.745,0,0,0-.457-1.206,1.7,1.7,0,0,0-2.5.183,3.749,3.749,0,0,0-.453,2.1v.264a3.8,3.8,0,0,0,.448,2.113A1.549,1.549,0,0,0,62.322,15.128Zm8.473-9.976V7.49h1.626V9.354H70.795V14.1a1.133,1.133,0,0,0,.2.756,1.015,1.015,0,0,0,.773.229,4.051,4.051,0,0,0,.747-.062v1.925a5.229,5.229,0,0,1-1.538.229,2.425,2.425,0,0,1-2.725-2.7V9.354H66.866V7.49h1.389V5.152ZM26.639,34.892a7.725,7.725,0,0,1-.668,3.313,5.03,5.03,0,0,1-1.912,2.2,5.649,5.649,0,0,1-5.691.009,5.08,5.08,0,0,1-1.934-2.184,7.5,7.5,0,0,1-.694-3.265v-.633A7.685,7.685,0,0,1,16.421,31,5.072,5.072,0,0,1,18.346,28.8a5.64,5.64,0,0,1,5.687,0A5.072,5.072,0,0,1,25.958,31a7.663,7.663,0,0,1,.681,3.318Zm-2.672-.58a5.385,5.385,0,0,0-.721-3.059,2.546,2.546,0,0,0-4.1-.013,5.324,5.324,0,0,0-.729,3.028v.624a5.453,5.453,0,0,0,.721,3.041,2.524,2.524,0,0,0,4.113.04,5.421,5.421,0,0,0,.721-3.037Zm12.691,3.234,1.248-6.056h2.452L37.933,41H35.806L34,35.015,32.2,41H30.084l-2.426-9.51H30.11l1.239,6.047,1.74-6.047h1.837Zm7.295-6.056.079,1.1a3.32,3.32,0,0,1,2.733-1.274,2.759,2.759,0,0,1,2.25.888,4.142,4.142,0,0,1,.756,2.654V41h-2.54V34.9a1.654,1.654,0,0,0-.352-1.176,1.572,1.572,0,0,0-1.169-.366,1.747,1.747,0,0,0-1.608.916V41h-2.54V31.49Zm12.12,9.686a4.668,4.668,0,0,1-3.406-1.283,4.561,4.561,0,0,1-1.314-3.419v-.246a5.745,5.745,0,0,1,.554-2.562,4.064,4.064,0,0,1,1.569-1.74,4.4,4.4,0,0,1,2.316-.611,3.947,3.947,0,0,1,3.072,1.23,5,5,0,0,1,1.121,3.489v1.037H53.929a2.36,2.36,0,0,0,.743,1.494,2.245,2.245,0,0,0,1.569.563,2.742,2.742,0,0,0,2.294-1.063l1.248,1.4a3.813,3.813,0,0,1-1.547,1.261A5.075,5.075,0,0,1,56.073,41.176Zm-.29-7.813a1.587,1.587,0,0,0-1.226.512,2.651,2.651,0,0,0-.6,1.466h3.533v-.2a1.891,1.891,0,0,0-.457-1.311A1.638,1.638,0,0,0,55.783,33.362Zm10.986.51a6.9,6.9,0,0,0-.914-.07,1.86,1.86,0,0,0-1.89.976V41h-2.54V31.49h2.4l.07,1.134a2.354,2.354,0,0,1,2.118-1.31,2.662,2.662,0,0,1,.791.114Z" transform="translate(230 3698.999)" fill="#12263f"/>
    <path id="Trazado_688654" data-name="Trazado 688654" d="M7.35,17V4.2h3.938a5.98,5.98,0,0,1,3.019.76,5.3,5.3,0,0,1,2.079,2.162,6.669,6.669,0,0,1,.747,3.186V10.9a6.688,6.688,0,0,1-.734,3.173,5.256,5.256,0,0,1-2.07,2.153A6.025,6.025,0,0,1,11.314,17ZM9.987,6.339v8.543h1.274a2.863,2.863,0,0,0,2.364-1.011,4.567,4.567,0,0,0,.835-2.892V10.3a4.64,4.64,0,0,0-.809-2.958,2.854,2.854,0,0,0-2.364-1.006ZM23.258,17.176a4.668,4.668,0,0,1-3.406-1.283,4.561,4.561,0,0,1-1.314-3.419v-.246a5.745,5.745,0,0,1,.554-2.562,4.064,4.064,0,0,1,1.569-1.74,4.4,4.4,0,0,1,2.316-.611,3.947,3.947,0,0,1,3.072,1.23,5,5,0,0,1,1.121,3.489v1.037H21.114a2.36,2.36,0,0,0,.743,1.494,2.245,2.245,0,0,0,1.569.563,2.742,2.742,0,0,0,2.294-1.063l1.248,1.4a3.813,3.813,0,0,1-1.547,1.261A5.075,5.075,0,0,1,23.258,17.176Zm-.29-7.813a1.587,1.587,0,0,0-1.226.512,2.651,2.651,0,0,0-.6,1.466h3.533v-.2a1.891,1.891,0,0,0-.457-1.311A1.638,1.638,0,0,0,22.968,9.362ZM32.056,13.9,33.823,7.49h2.654L33.269,17H30.843L27.635,7.49H30.29Zm9.8,3.278a4.668,4.668,0,0,1-3.406-1.283,4.561,4.561,0,0,1-1.314-3.419v-.246a5.745,5.745,0,0,1,.554-2.562,4.064,4.064,0,0,1,1.569-1.74,4.4,4.4,0,0,1,2.316-.611,3.947,3.947,0,0,1,3.072,1.23,5,5,0,0,1,1.121,3.489v1.037H39.711a2.36,2.36,0,0,0,.743,1.494,2.245,2.245,0,0,0,1.569.563,2.742,2.742,0,0,0,2.294-1.063l1.248,1.4a3.813,3.813,0,0,1-1.547,1.261A5.075,5.075,0,0,1,41.856,17.176Zm-.29-7.813a1.587,1.587,0,0,0-1.226.512,2.651,2.651,0,0,0-.6,1.466h3.533v-.2a1.891,1.891,0,0,0-.457-1.311A1.638,1.638,0,0,0,41.566,9.362ZM49.889,17H47.34V3.5h2.549Zm1.7-4.843a5.64,5.64,0,0,1,.545-2.522A3.989,3.989,0,0,1,53.7,7.921a4.577,4.577,0,0,1,2.377-.606,4.33,4.33,0,0,1,3.142,1.178,4.727,4.727,0,0,1,1.358,3.2l.018.65a4.97,4.97,0,0,1-1.222,3.511,4.735,4.735,0,0,1-6.561,0,5.058,5.058,0,0,1-1.226-3.586Zm2.54.18a3.555,3.555,0,0,0,.51,2.073,1.831,1.831,0,0,0,2.9.009,3.89,3.89,0,0,0,.519-2.267,3.519,3.519,0,0,0-.519-2.06,1.686,1.686,0,0,0-1.459-.731,1.658,1.658,0,0,0-1.441.726A3.955,3.955,0,0,0,54.125,12.338Zm16.594,0a5.7,5.7,0,0,1-1,3.52,3.2,3.2,0,0,1-2.694,1.323,2.963,2.963,0,0,1-2.329-1v4.482h-2.54V7.49h2.355l.088.932A2.985,2.985,0,0,1,67.01,7.314a3.22,3.22,0,0,1,2.733,1.3,5.858,5.858,0,0,1,.976,3.586Zm-2.54-.194a3.763,3.763,0,0,0-.47-2.054,1.53,1.53,0,0,0-1.367-.723,1.662,1.662,0,0,0-1.644.917v3.906a1.691,1.691,0,0,0,1.661.943Q68.179,15.128,68.179,12.139Zm6.5-4.649.079,1.063a3.342,3.342,0,0,1,2.733-1.239,2.536,2.536,0,0,1,2.522,1.45,3.265,3.265,0,0,1,2.856-1.45,2.836,2.836,0,0,1,2.3.9,4.141,4.141,0,0,1,.756,2.711V17H83.375V10.922a1.818,1.818,0,0,0-.316-1.185,1.4,1.4,0,0,0-1.116-.374,1.585,1.585,0,0,0-1.582,1.092L80.37,17H77.83V10.93a1.8,1.8,0,0,0-.325-1.2,1.414,1.414,0,0,0-1.107-.37,1.645,1.645,0,0,0-1.564.9V17h-2.54V7.49Zm17.578,9.686a4.668,4.668,0,0,1-3.406-1.283,4.561,4.561,0,0,1-1.314-3.419v-.246a5.745,5.745,0,0,1,.554-2.562,4.064,4.064,0,0,1,1.569-1.74,4.4,4.4,0,0,1,2.316-.611,3.947,3.947,0,0,1,3.072,1.23,5,5,0,0,1,1.121,3.489v1.037H90.108a2.36,2.36,0,0,0,.743,1.494,2.245,2.245,0,0,0,1.569.563,2.742,2.742,0,0,0,2.294-1.063l1.248,1.4a3.813,3.813,0,0,1-1.547,1.261A5.075,5.075,0,0,1,92.252,17.176Zm-.29-7.813a1.587,1.587,0,0,0-1.226.512,2.651,2.651,0,0,0-.6,1.466h3.533v-.2a1.891,1.891,0,0,0-.457-1.311A1.638,1.638,0,0,0,91.962,9.362Zm7.98-1.872.079,1.1a3.32,3.32,0,0,1,2.733-1.274,2.759,2.759,0,0,1,2.25.888,4.142,4.142,0,0,1,.756,2.654V17h-2.54V10.9a1.654,1.654,0,0,0-.352-1.176,1.572,1.572,0,0,0-1.169-.366,1.747,1.747,0,0,0-1.608.916V17h-2.54V7.49Zm10.784-2.338V7.49h1.626V9.354h-1.626V14.1a1.133,1.133,0,0,0,.2.756,1.015,1.015,0,0,0,.773.229,4.051,4.051,0,0,0,.747-.062v1.925a5.229,5.229,0,0,1-1.538.229,2.425,2.425,0,0,1-2.725-2.7V9.354H106.8V7.49h1.389V5.152ZM47.617,30.339H43.7V41H41.061V30.339H37.193V28.2H47.617Zm4.931,10.837a4.668,4.668,0,0,1-3.406-1.283,4.561,4.561,0,0,1-1.314-3.419v-.246a5.745,5.745,0,0,1,.554-2.562,4.064,4.064,0,0,1,1.569-1.74,4.4,4.4,0,0,1,2.316-.611,3.947,3.947,0,0,1,3.072,1.23,5,5,0,0,1,1.121,3.489v1.037H50.4a2.36,2.36,0,0,0,.743,1.494,2.245,2.245,0,0,0,1.569.563,2.742,2.742,0,0,0,2.294-1.063l1.248,1.4a3.813,3.813,0,0,1-1.547,1.261A5.075,5.075,0,0,1,52.548,41.176Zm-.29-7.813a1.587,1.587,0,0,0-1.226.512,2.651,2.651,0,0,0-.6,1.466h3.533v-.2a1.891,1.891,0,0,0-.457-1.311A1.638,1.638,0,0,0,52.258,33.362ZM63.411,41a2.821,2.821,0,0,1-.255-.853,3.073,3.073,0,0,1-2.4,1.028,3.376,3.376,0,0,1-2.316-.809,2.6,2.6,0,0,1-.918-2.039,2.687,2.687,0,0,1,1.121-2.32,5.529,5.529,0,0,1,3.239-.817h1.169v-.545a1.567,1.567,0,0,0-.338-1.055,1.331,1.331,0,0,0-1.068-.4,1.513,1.513,0,0,0-1.006.308,1.045,1.045,0,0,0-.365.844h-2.54a2.551,2.551,0,0,1,.51-1.529,3.37,3.37,0,0,1,1.441-1.1,5.253,5.253,0,0,1,2.092-.4,4.15,4.15,0,0,1,2.791.883A3.09,3.09,0,0,1,65.6,34.681V38.8a4.546,4.546,0,0,0,.378,2.048V41Zm-2.1-1.767a2.188,2.188,0,0,0,1.037-.25,1.645,1.645,0,0,0,.7-.672V36.676H62.1q-1.907,0-2.03,1.318l-.009.149a1.017,1.017,0,0,0,.334.782A1.3,1.3,0,0,0,61.311,39.233Zm8.622-7.743.079,1.063a3.342,3.342,0,0,1,2.733-1.239,2.536,2.536,0,0,1,2.522,1.45,3.265,3.265,0,0,1,2.856-1.45,2.836,2.836,0,0,1,2.3.9,4.141,4.141,0,0,1,.756,2.711V41H78.634V34.922a1.818,1.818,0,0,0-.316-1.185,1.4,1.4,0,0,0-1.116-.374,1.585,1.585,0,0,0-1.582,1.092L75.628,41h-2.54V34.93a1.8,1.8,0,0,0-.325-1.2,1.414,1.414,0,0,0-1.107-.37,1.645,1.645,0,0,0-1.564.9V41h-2.54V31.49Z" transform="translate(212 3832.999)" fill="#12263f"/>
    <path id="Trazado_688655" data-name="Trazado 688655" d="M15.942,13.643a1.353,1.353,0,0,0-.527-1.147,6.917,6.917,0,0,0-1.9-.844,13.458,13.458,0,0,1-2.171-.875A3.547,3.547,0,0,1,9.166,7.6a3.09,3.09,0,0,1,.584-1.85,3.812,3.812,0,0,1,1.679-1.27,6.318,6.318,0,0,1,2.457-.457,5.751,5.751,0,0,1,2.443.5,3.891,3.891,0,0,1,1.666,1.4,3.668,3.668,0,0,1,.593,2.057H15.951A1.726,1.726,0,0,0,15.4,6.616a2.276,2.276,0,0,0-1.556-.488,2.432,2.432,0,0,0-1.5.409A1.289,1.289,0,0,0,11.8,7.613a1.235,1.235,0,0,0,.628,1.046,7.1,7.1,0,0,0,1.85.791,7.994,7.994,0,0,1,3.278,1.679,3.343,3.343,0,0,1,1.028,2.5,3.08,3.08,0,0,1-1.257,2.606,5.5,5.5,0,0,1-3.384.945,6.534,6.534,0,0,1-2.689-.541,4.256,4.256,0,0,1-1.85-1.481,3.793,3.793,0,0,1-.637-2.18h2.646q0,2.118,2.531,2.118a2.462,2.462,0,0,0,1.468-.382A1.244,1.244,0,0,0,15.942,13.643Zm8.218,1.485a1.666,1.666,0,0,0,1.143-.387,1.355,1.355,0,0,0,.457-1.028h2.382a3.258,3.258,0,0,1-.527,1.771,3.48,3.48,0,0,1-1.419,1.248,4.442,4.442,0,0,1-1.991.444,4.129,4.129,0,0,1-3.217-1.3A5.13,5.13,0,0,1,19.809,12.3v-.167a5.071,5.071,0,0,1,1.169-3.507,4.08,4.08,0,0,1,3.208-1.31A4,4,0,0,1,27.047,8.33a3.594,3.594,0,0,1,1.094,2.7H25.759A1.745,1.745,0,0,0,25.3,9.826a1.7,1.7,0,0,0-2.5.183,3.749,3.749,0,0,0-.453,2.1v.264a3.8,3.8,0,0,0,.448,2.113A1.549,1.549,0,0,0,24.16,15.128ZM34.935,9.872a6.9,6.9,0,0,0-.914-.07,1.86,1.86,0,0,0-1.89.976V17h-2.54V7.49h2.4l.07,1.134a2.354,2.354,0,0,1,2.118-1.31,2.662,2.662,0,0,1,.791.114Zm6.917,6.161a3.185,3.185,0,0,1-2.6,1.143,3,3,0,0,1-2.333-.879,3.752,3.752,0,0,1-.822-2.575V7.49h2.54v6.151q0,1.487,1.354,1.487a1.834,1.834,0,0,0,1.775-.9V7.49h2.549V17H41.922ZM48.611,7.49l.079,1.063a3.342,3.342,0,0,1,2.733-1.239,2.536,2.536,0,0,1,2.522,1.45A3.265,3.265,0,0,1,56.8,7.314a2.836,2.836,0,0,1,2.3.9,4.141,4.141,0,0,1,.756,2.711V17H57.312V10.922A1.818,1.818,0,0,0,57,9.737a1.4,1.4,0,0,0-1.116-.374A1.585,1.585,0,0,0,54.3,10.455L54.306,17h-2.54V10.93a1.8,1.8,0,0,0-.325-1.2,1.414,1.414,0,0,0-1.107-.37,1.645,1.645,0,0,0-1.564.9V17h-2.54V7.49ZM10.563,28.2l3.287,9.281L17.12,28.2h3.463V41H17.937V37.5l.264-6.038L14.747,41H12.936L9.491,31.473,9.754,37.5V41H7.118V28.2ZM28.229,41a2.821,2.821,0,0,1-.255-.853,3.073,3.073,0,0,1-2.4,1.028,3.376,3.376,0,0,1-2.316-.809,2.6,2.6,0,0,1-.918-2.039,2.687,2.687,0,0,1,1.121-2.32A5.529,5.529,0,0,1,26.7,35.19h1.169v-.545a1.567,1.567,0,0,0-.338-1.055,1.331,1.331,0,0,0-1.068-.4,1.513,1.513,0,0,0-1.006.308,1.045,1.045,0,0,0-.365.844h-2.54a2.551,2.551,0,0,1,.51-1.529,3.37,3.37,0,0,1,1.441-1.1,5.253,5.253,0,0,1,2.092-.4,4.15,4.15,0,0,1,2.791.883,3.09,3.09,0,0,1,1.033,2.483V38.8a4.546,4.546,0,0,0,.378,2.048V41Zm-2.1-1.767a2.188,2.188,0,0,0,1.037-.25,1.645,1.645,0,0,0,.7-.672V36.676h-.949q-1.907,0-2.03,1.318l-.009.149a1.017,1.017,0,0,0,.334.782A1.3,1.3,0,0,0,26.128,39.233Zm11.391-.861a.818.818,0,0,0-.461-.734,5.241,5.241,0,0,0-1.481-.479q-3.393-.712-3.393-2.883a2.613,2.613,0,0,1,1.05-2.114,4.237,4.237,0,0,1,2.747-.848,4.56,4.56,0,0,1,2.9.853,2.687,2.687,0,0,1,1.085,2.215h-2.54a1.229,1.229,0,0,0-.352-.9,1.488,1.488,0,0,0-1.1-.356,1.52,1.52,0,0,0-.993.29.916.916,0,0,0-.352.738.783.783,0,0,0,.4.681,4.114,4.114,0,0,0,1.349.448,11.019,11.019,0,0,1,1.6.426,2.628,2.628,0,0,1,2.013,2.558,2.481,2.481,0,0,1-1.116,2.1,4.815,4.815,0,0,1-2.883.8,5.029,5.029,0,0,1-2.123-.426,3.561,3.561,0,0,1-1.455-1.169,2.716,2.716,0,0,1-.527-1.6h2.408a1.326,1.326,0,0,0,.5,1.037,1.987,1.987,0,0,0,1.248.36,1.839,1.839,0,0,0,1.1-.277A.861.861,0,0,0,37.519,38.372Zm7.146-9.22V31.49h1.626v1.863H44.665V38.1a1.133,1.133,0,0,0,.2.756,1.015,1.015,0,0,0,.773.229,4.051,4.051,0,0,0,.747-.062v1.925a5.229,5.229,0,0,1-1.538.229,2.425,2.425,0,0,1-2.725-2.7V33.354H40.736V31.49h1.389V29.152Zm7.418,12.023a4.668,4.668,0,0,1-3.406-1.283,4.561,4.561,0,0,1-1.314-3.419v-.246a5.745,5.745,0,0,1,.554-2.562,4.064,4.064,0,0,1,1.569-1.74,4.4,4.4,0,0,1,2.316-.611,3.947,3.947,0,0,1,3.072,1.23,5,5,0,0,1,1.121,3.489v1.037H49.938a2.36,2.36,0,0,0,.743,1.494,2.245,2.245,0,0,0,1.569.563,2.742,2.742,0,0,0,2.294-1.063l1.248,1.4a3.813,3.813,0,0,1-1.547,1.261A5.075,5.075,0,0,1,52.083,41.176Zm-.29-7.813a1.587,1.587,0,0,0-1.226.512,2.651,2.651,0,0,0-.6,1.466H53.5v-.2a1.891,1.891,0,0,0-.457-1.311A1.638,1.638,0,0,0,51.792,33.362Zm10.986.51a6.9,6.9,0,0,0-.914-.07,1.86,1.86,0,0,0-1.89.976V41h-2.54V31.49h2.4l.07,1.134a2.354,2.354,0,0,1,2.118-1.31,2.662,2.662,0,0,1,.791.114Z" transform="translate(237 3965.999)" fill="#12263f"/>
    <path id="Trazado_688652" data-name="Trazado 688652" d="M3.779,12.491V17H1.143V4.2H6.135A5.776,5.776,0,0,1,8.67,4.73a3.886,3.886,0,0,1,1.683,1.5,4.178,4.178,0,0,1,.589,2.21,3.674,3.674,0,0,1-1.288,2.966,5.363,5.363,0,0,1-3.564,1.085Zm0-2.136H6.135a2.316,2.316,0,0,0,1.6-.492,1.79,1.79,0,0,0,.549-1.406,2.111,2.111,0,0,0-.554-1.521,2.068,2.068,0,0,0-1.529-.6H3.779Zm14.15-.483a6.9,6.9,0,0,0-.914-.07,1.86,1.86,0,0,0-1.89.976V17h-2.54V7.49h2.4l.07,1.134a2.354,2.354,0,0,1,2.118-1.31,2.662,2.662,0,0,1,.791.114Zm.51,2.285a5.64,5.64,0,0,1,.545-2.522,3.989,3.989,0,0,1,1.569-1.714,4.577,4.577,0,0,1,2.377-.606,4.33,4.33,0,0,1,3.142,1.178,4.727,4.727,0,0,1,1.358,3.2l.018.65a4.97,4.97,0,0,1-1.222,3.511,4.247,4.247,0,0,1-3.278,1.323,4.268,4.268,0,0,1-3.283-1.318,5.058,5.058,0,0,1-1.226-3.586Zm2.54.18a3.555,3.555,0,0,0,.51,2.073,1.831,1.831,0,0,0,2.9.009,3.89,3.89,0,0,0,.519-2.267,3.519,3.519,0,0,0-.519-2.06,1.686,1.686,0,0,0-1.459-.731,1.658,1.658,0,0,0-1.441.726A3.955,3.955,0,0,0,20.979,12.338Zm7.638-.163a5.731,5.731,0,0,1,1-3.542,3.237,3.237,0,0,1,2.729-1.318,2.913,2.913,0,0,1,2.294,1.037V3.5h2.549V17H34.893l-.123-1.011a2.989,2.989,0,0,1-2.443,1.187,3.228,3.228,0,0,1-2.694-1.323A5.916,5.916,0,0,1,28.617,12.175Zm2.54.181a3.775,3.775,0,0,0,.466,2.057,1.516,1.516,0,0,0,1.354.715,1.7,1.7,0,0,0,1.661-1V10.36a1.675,1.675,0,0,0-1.644-1Q31.157,9.362,31.157,12.356Zm13.693,3.678a3.185,3.185,0,0,1-2.6,1.143,3,3,0,0,1-2.333-.879,3.752,3.752,0,0,1-.822-2.575V7.49h2.54v6.151q0,1.487,1.354,1.487a1.834,1.834,0,0,0,1.775-.9V7.49h2.549V17H44.921Zm8.332-.905a1.666,1.666,0,0,0,1.143-.387,1.355,1.355,0,0,0,.457-1.028h2.382a3.258,3.258,0,0,1-.527,1.771,3.48,3.48,0,0,1-1.419,1.248,4.442,4.442,0,0,1-1.991.444,4.129,4.129,0,0,1-3.217-1.3A5.13,5.13,0,0,1,48.832,12.3v-.167A5.071,5.071,0,0,1,50,8.624a4.08,4.08,0,0,1,3.208-1.31A4,4,0,0,1,56.07,8.33a3.594,3.594,0,0,1,1.094,2.7H54.782a1.745,1.745,0,0,0-.457-1.206,1.7,1.7,0,0,0-2.5.183,3.749,3.749,0,0,0-.453,2.1v.264a3.8,3.8,0,0,0,.448,2.113A1.549,1.549,0,0,0,53.183,15.128Zm8.473-9.976V7.49h1.626V9.354H61.655V14.1a1.133,1.133,0,0,0,.2.756,1.015,1.015,0,0,0,.773.229,4.051,4.051,0,0,0,.747-.062v1.925a5.229,5.229,0,0,1-1.538.229,2.425,2.425,0,0,1-2.725-2.7V9.354H57.727V7.49h1.389V5.152ZM1.143,41V28.2H5.625a5.886,5.886,0,0,1,3.533.892,3.05,3.05,0,0,1,1.2,2.615,2.891,2.891,0,0,1-.483,1.657,2.792,2.792,0,0,1-1.345,1.05,2.7,2.7,0,0,1,1.551.993,2.936,2.936,0,0,1,.567,1.828,3.377,3.377,0,0,1-1.178,2.795A5.3,5.3,0,0,1,6.117,41Zm2.637-5.572v3.454H6.038a2.18,2.18,0,0,0,1.455-.444,1.522,1.522,0,0,0,.523-1.226A1.607,1.607,0,0,0,6.2,35.428Zm0-1.863H5.73q2-.035,2-1.591a1.47,1.47,0,0,0-.505-1.252,2.658,2.658,0,0,0-1.6-.382H3.779ZM17.974,41a2.821,2.821,0,0,1-.255-.853,3.073,3.073,0,0,1-2.4,1.028A3.376,3.376,0,0,1,13,40.367a2.6,2.6,0,0,1-.918-2.039,2.687,2.687,0,0,1,1.121-2.32,5.529,5.529,0,0,1,3.239-.817h1.169v-.545a1.567,1.567,0,0,0-.338-1.055,1.331,1.331,0,0,0-1.068-.4A1.513,1.513,0,0,0,15.2,33.5a1.045,1.045,0,0,0-.365.844H12.3a2.551,2.551,0,0,1,.51-1.529,3.37,3.37,0,0,1,1.441-1.1,5.253,5.253,0,0,1,2.092-.4,4.15,4.15,0,0,1,2.791.883,3.09,3.09,0,0,1,1.033,2.483V38.8a4.546,4.546,0,0,0,.378,2.048V41Zm-2.1-1.767a2.188,2.188,0,0,0,1.037-.25,1.645,1.645,0,0,0,.7-.672V36.676h-.949q-1.907,0-2.03,1.318l-.009.149a1.017,1.017,0,0,0,.334.782A1.3,1.3,0,0,0,15.873,39.233Zm10.2-.105a1.666,1.666,0,0,0,1.143-.387,1.355,1.355,0,0,0,.457-1.028H30.05a3.258,3.258,0,0,1-.527,1.771A3.48,3.48,0,0,1,28.1,40.732a4.442,4.442,0,0,1-1.991.444,4.129,4.129,0,0,1-3.217-1.3A5.13,5.13,0,0,1,21.718,36.3v-.167a5.071,5.071,0,0,1,1.169-3.507,4.08,4.08,0,0,1,3.208-1.31,4,4,0,0,1,2.861,1.015,3.594,3.594,0,0,1,1.094,2.7H27.668a1.745,1.745,0,0,0-.457-1.206,1.7,1.7,0,0,0-2.5.183,3.749,3.749,0,0,0-.453,2.1v.264a3.8,3.8,0,0,0,.448,2.113A1.549,1.549,0,0,0,26.068,39.128Zm8.886-1.942-.914.914V41H31.5V27.5h2.54v7.479l.492-.633,2.435-2.856h3.05L36.58,35.454,40.315,41H37.4ZM43.8,41H41.247V27.5H43.8Zm1.7-4.843a5.64,5.64,0,0,1,.545-2.522,3.989,3.989,0,0,1,1.569-1.714,4.577,4.577,0,0,1,2.377-.606,4.33,4.33,0,0,1,3.142,1.178,4.727,4.727,0,0,1,1.358,3.2l.018.65a4.97,4.97,0,0,1-1.222,3.511,4.735,4.735,0,0,1-6.561,0,5.058,5.058,0,0,1-1.226-3.586Zm2.54.18a3.555,3.555,0,0,0,.51,2.073,1.831,1.831,0,0,0,2.9.009,3.89,3.89,0,0,0,.519-2.267,3.519,3.519,0,0,0-.519-2.06,1.686,1.686,0,0,0-1.459-.731,1.658,1.658,0,0,0-1.441.726A3.955,3.955,0,0,0,48.032,36.338Zm7.664-.163a5.573,5.573,0,0,1,1.042-3.524,3.375,3.375,0,0,1,2.808-1.336,2.96,2.96,0,0,1,2.435,1.072l.105-.9h2.3v9.193a4.064,4.064,0,0,1-.567,2.171,3.641,3.641,0,0,1-1.6,1.406,5.608,5.608,0,0,1-2.408.483,5.215,5.215,0,0,1-2.039-.417,3.619,3.619,0,0,1-1.5-1.077L57.4,41.7a2.975,2.975,0,0,0,2.3,1.063,2.178,2.178,0,0,0,1.573-.541,2.027,2.027,0,0,0,.563-1.534v-.51a2.938,2.938,0,0,1-2.312.993,3.366,3.366,0,0,1-2.773-1.34A5.572,5.572,0,0,1,55.7,36.28Zm2.54.181a3.489,3.489,0,0,0,.519,2.035,1.648,1.648,0,0,0,1.424.737,1.762,1.762,0,0,0,1.661-.874V34.236a1.758,1.758,0,0,0-1.644-.874,1.659,1.659,0,0,0-1.437.751A3.933,3.933,0,0,0,58.236,36.356Z" transform="translate(431 3703.999)" fill="#12263f"/>
    <path id="Trazado_688656" data-name="Trazado 688656" d="M20.525,13.643A1.353,1.353,0,0,0,20,12.5a6.917,6.917,0,0,0-1.9-.844,13.458,13.458,0,0,1-2.171-.875A3.547,3.547,0,0,1,13.749,7.6a3.09,3.09,0,0,1,.584-1.85,3.812,3.812,0,0,1,1.679-1.27,6.318,6.318,0,0,1,2.457-.457,5.751,5.751,0,0,1,2.443.5,3.891,3.891,0,0,1,1.666,1.4,3.668,3.668,0,0,1,.593,2.057H20.534a1.726,1.726,0,0,0-.554-1.367,2.276,2.276,0,0,0-1.556-.488,2.432,2.432,0,0,0-1.5.409,1.289,1.289,0,0,0-.536,1.077,1.235,1.235,0,0,0,.628,1.046,7.1,7.1,0,0,0,1.85.791,7.994,7.994,0,0,1,3.278,1.679,3.343,3.343,0,0,1,1.028,2.5,3.08,3.08,0,0,1-1.257,2.606,5.5,5.5,0,0,1-3.384.945,6.534,6.534,0,0,1-2.689-.541,4.256,4.256,0,0,1-1.85-1.481,3.793,3.793,0,0,1-.637-2.18H16q0,2.118,2.531,2.118A2.462,2.462,0,0,0,20,14.71,1.244,1.244,0,0,0,20.525,13.643Zm12.823-1.31a5.7,5.7,0,0,1-1,3.52,3.2,3.2,0,0,1-2.694,1.323,2.963,2.963,0,0,1-2.329-1v4.482h-2.54V7.49h2.355l.088.932A2.985,2.985,0,0,1,29.64,7.314a3.22,3.22,0,0,1,2.733,1.3,5.858,5.858,0,0,1,.976,3.586Zm-2.54-.194a3.763,3.763,0,0,0-.47-2.054,1.53,1.53,0,0,0-1.367-.723,1.662,1.662,0,0,0-1.644.917v3.906a1.691,1.691,0,0,0,1.661.943Q30.809,15.128,30.809,12.139Zm9.457-2.267a6.9,6.9,0,0,0-.914-.07,1.86,1.86,0,0,0-1.89.976V17h-2.54V7.49h2.4l.07,1.134a2.354,2.354,0,0,1,2.118-1.31,2.662,2.662,0,0,1,.791.114ZM44.168,17H41.619V7.49h2.549ZM41.47,5.029a1.251,1.251,0,0,1,.382-.94,1.648,1.648,0,0,1,2.079,0,1.244,1.244,0,0,1,.387.94,1.247,1.247,0,0,1-.391.949,1.629,1.629,0,0,1-2.065,0A1.247,1.247,0,0,1,41.47,5.029ZM48.6,7.49l.079,1.1A3.32,3.32,0,0,1,51.41,7.314a2.759,2.759,0,0,1,2.25.888,4.142,4.142,0,0,1,.756,2.654V17h-2.54V10.9a1.654,1.654,0,0,0-.352-1.176,1.572,1.572,0,0,0-1.169-.366,1.747,1.747,0,0,0-1.608.916V17h-2.54V7.49ZM59.382,5.152V7.49h1.626V9.354H59.382V14.1a1.133,1.133,0,0,0,.2.756,1.015,1.015,0,0,0,.773.229,4.051,4.051,0,0,0,.747-.062v1.925a5.229,5.229,0,0,1-1.538.229,2.425,2.425,0,0,1-2.725-2.7V9.354H55.453V7.49h1.389V5.152Zm10.327,7.339V17H67.072V4.2h4.992A5.776,5.776,0,0,1,74.6,4.73a3.886,3.886,0,0,1,1.683,1.5,4.178,4.178,0,0,1,.589,2.21,3.674,3.674,0,0,1-1.288,2.966,5.363,5.363,0,0,1-3.564,1.085Zm0-2.136h2.355a2.316,2.316,0,0,0,1.6-.492,1.79,1.79,0,0,0,.549-1.406,2.111,2.111,0,0,0-.554-1.521,2.068,2.068,0,0,0-1.529-.6H69.709ZM81.2,17H78.647V3.5H81.2Zm7.6,0a2.821,2.821,0,0,1-.255-.853,3.073,3.073,0,0,1-2.4,1.028,3.376,3.376,0,0,1-2.316-.809,2.6,2.6,0,0,1-.918-2.039,2.687,2.687,0,0,1,1.121-2.32,5.529,5.529,0,0,1,3.239-.817h1.169v-.545A1.567,1.567,0,0,0,88.1,9.591a1.331,1.331,0,0,0-1.068-.4,1.513,1.513,0,0,0-1.006.308,1.045,1.045,0,0,0-.365.844h-2.54a2.551,2.551,0,0,1,.51-1.529,3.37,3.37,0,0,1,1.441-1.1,5.253,5.253,0,0,1,2.092-.4,4.15,4.15,0,0,1,2.791.883,3.09,3.09,0,0,1,1.033,2.483V14.8a4.546,4.546,0,0,0,.378,2.048V17Zm-2.1-1.767a2.188,2.188,0,0,0,1.037-.25,1.645,1.645,0,0,0,.7-.672V12.676h-.949q-1.907,0-2.03,1.318l-.009.149a1.017,1.017,0,0,0,.334.782A1.3,1.3,0,0,0,86.7,15.233ZM95.276,7.49l.079,1.1a3.32,3.32,0,0,1,2.733-1.274,2.759,2.759,0,0,1,2.25.888,4.142,4.142,0,0,1,.756,2.654V17h-2.54V10.9A1.654,1.654,0,0,0,98.2,9.728a1.572,1.572,0,0,0-1.169-.366,1.747,1.747,0,0,0-1.608.916V17h-2.54V7.49Zm10.081,0,.079,1.1a3.32,3.32,0,0,1,2.733-1.274,2.759,2.759,0,0,1,2.25.888,4.142,4.142,0,0,1,.756,2.654V17h-2.54V10.9a1.654,1.654,0,0,0-.352-1.176,1.572,1.572,0,0,0-1.169-.366,1.747,1.747,0,0,0-1.608.916V17h-2.54V7.49ZM115.781,17h-2.549V7.49h2.549Zm-2.7-11.971a1.251,1.251,0,0,1,.382-.94,1.648,1.648,0,0,1,2.079,0,1.244,1.244,0,0,1,.387.94,1.247,1.247,0,0,1-.391.949,1.629,1.629,0,0,1-2.065,0A1.247,1.247,0,0,1,113.083,5.029Zm7.128,2.461.079,1.1a3.32,3.32,0,0,1,2.733-1.274,2.759,2.759,0,0,1,2.25.888,4.142,4.142,0,0,1,.756,2.654V17h-2.54V10.9a1.654,1.654,0,0,0-.352-1.176,1.572,1.572,0,0,0-1.169-.366,1.747,1.747,0,0,0-1.608.916V17h-2.54V7.49Zm7.374,4.685a5.573,5.573,0,0,1,1.042-3.524,3.375,3.375,0,0,1,2.808-1.336,2.96,2.96,0,0,1,2.435,1.072l.105-.9h2.3v9.193a4.064,4.064,0,0,1-.567,2.171,3.641,3.641,0,0,1-1.6,1.406,5.608,5.608,0,0,1-2.408.483,5.215,5.215,0,0,1-2.039-.417,3.619,3.619,0,0,1-1.5-1.077L129.29,17.7a2.975,2.975,0,0,0,2.3,1.063,2.178,2.178,0,0,0,1.573-.541,2.027,2.027,0,0,0,.563-1.534v-.51a2.938,2.938,0,0,1-2.312.993,3.366,3.366,0,0,1-2.773-1.34,5.572,5.572,0,0,1-1.059-3.555Zm2.54.181a3.489,3.489,0,0,0,.519,2.035,1.648,1.648,0,0,0,1.424.737,1.762,1.762,0,0,0,1.661-.874V10.236a1.758,1.758,0,0,0-1.644-.874,1.659,1.659,0,0,0-1.437.751A3.933,3.933,0,0,0,130.125,12.356ZM46.37,28.2l3.287,9.281,3.27-9.281h3.463V41H53.744V37.5l.264-6.038L50.553,41H48.743L45.3,31.473l.264,6.029V41H42.924V28.2ZM62.9,41.176A4.668,4.668,0,0,1,59.5,39.893a4.561,4.561,0,0,1-1.314-3.419v-.246a5.745,5.745,0,0,1,.554-2.562,4.064,4.064,0,0,1,1.569-1.74,4.4,4.4,0,0,1,2.316-.611,3.947,3.947,0,0,1,3.072,1.23,5,5,0,0,1,1.121,3.489v1.037H60.757a2.36,2.36,0,0,0,.743,1.494,2.245,2.245,0,0,0,1.569.563,2.742,2.742,0,0,0,2.294-1.063l1.248,1.4a3.813,3.813,0,0,1-1.547,1.261A5.075,5.075,0,0,1,62.9,41.176Zm-.29-7.813a1.587,1.587,0,0,0-1.226.512,2.651,2.651,0,0,0-.6,1.466h3.533v-.2a1.891,1.891,0,0,0-.457-1.311A1.638,1.638,0,0,0,62.612,33.362Zm10.02,7.813a4.668,4.668,0,0,1-3.406-1.283,4.561,4.561,0,0,1-1.314-3.419v-.246a5.745,5.745,0,0,1,.554-2.562,4.064,4.064,0,0,1,1.569-1.74,4.4,4.4,0,0,1,2.316-.611,3.947,3.947,0,0,1,3.072,1.23,5,5,0,0,1,1.121,3.489v1.037H70.487a2.36,2.36,0,0,0,.743,1.494,2.245,2.245,0,0,0,1.569.563,2.742,2.742,0,0,0,2.294-1.063l1.248,1.4a3.813,3.813,0,0,1-1.547,1.261A5.075,5.075,0,0,1,72.631,41.176Zm-.29-7.813a1.587,1.587,0,0,0-1.226.512,2.651,2.651,0,0,0-.6,1.466h3.533v-.2a1.891,1.891,0,0,0-.457-1.311A1.638,1.638,0,0,0,72.341,33.362Zm8.684-4.21V31.49h1.626v1.863H81.025V38.1a1.133,1.133,0,0,0,.2.756,1.015,1.015,0,0,0,.773.229,4.051,4.051,0,0,0,.747-.062v1.925a5.229,5.229,0,0,1-1.538.229,2.425,2.425,0,0,1-2.725-2.7V33.354H77.1V31.49h1.389V29.152ZM86.747,41H84.2V31.49h2.549Zm-2.7-11.971a1.251,1.251,0,0,1,.382-.94,1.648,1.648,0,0,1,2.079,0,1.342,1.342,0,0,1,0,1.89,1.629,1.629,0,0,1-2.065,0A1.247,1.247,0,0,1,84.048,29.029Zm7.128,2.461.079,1.1a3.32,3.32,0,0,1,2.733-1.274,2.759,2.759,0,0,1,2.25.888,4.142,4.142,0,0,1,.756,2.654V41h-2.54V34.9a1.654,1.654,0,0,0-.352-1.176,1.572,1.572,0,0,0-1.169-.366,1.747,1.747,0,0,0-1.608.916V41h-2.54V31.49Zm7.374,4.685a5.573,5.573,0,0,1,1.042-3.524,3.375,3.375,0,0,1,2.808-1.336,2.96,2.96,0,0,1,2.435,1.072l.105-.9h2.3v9.193a4.064,4.064,0,0,1-.567,2.171,3.641,3.641,0,0,1-1.6,1.406,5.608,5.608,0,0,1-2.408.483,5.215,5.215,0,0,1-2.039-.417,3.619,3.619,0,0,1-1.5-1.077l1.125-1.547a2.975,2.975,0,0,0,2.3,1.063,2.178,2.178,0,0,0,1.573-.541,2.027,2.027,0,0,0,.563-1.534v-.51a2.938,2.938,0,0,1-2.312.993,3.366,3.366,0,0,1-2.773-1.34A5.572,5.572,0,0,1,98.55,36.28Zm2.54.181a3.489,3.489,0,0,0,.519,2.035,1.648,1.648,0,0,0,1.424.737,1.762,1.762,0,0,0,1.661-.874V34.236a1.758,1.758,0,0,0-1.644-.874,1.659,1.659,0,0,0-1.437.751A3.933,3.933,0,0,0,101.09,36.356Z" transform="translate(644 3787.999)" fill="#12263f"/>
    <path id="Trazado_688657" data-name="Trazado 688657" d="M1.143,17V4.2H5.08a5.98,5.98,0,0,1,3.019.76,5.3,5.3,0,0,1,2.079,2.162,6.669,6.669,0,0,1,.747,3.186V10.9a6.688,6.688,0,0,1-.734,3.173,5.256,5.256,0,0,1-2.07,2.153A6.025,6.025,0,0,1,5.106,17ZM3.779,6.339v8.543H5.054a2.863,2.863,0,0,0,2.364-1.011,4.567,4.567,0,0,0,.835-2.892V10.3a4.64,4.64,0,0,0-.809-2.958A2.854,2.854,0,0,0,5.08,6.339ZM18.185,17a2.821,2.821,0,0,1-.255-.853,3.073,3.073,0,0,1-2.4,1.028,3.376,3.376,0,0,1-2.316-.809,2.6,2.6,0,0,1-.918-2.039,2.687,2.687,0,0,1,1.121-2.32,5.529,5.529,0,0,1,3.239-.817h1.169v-.545a1.567,1.567,0,0,0-.338-1.055,1.331,1.331,0,0,0-1.068-.4,1.513,1.513,0,0,0-1.006.308,1.045,1.045,0,0,0-.365.844h-2.54a2.551,2.551,0,0,1,.51-1.529,3.37,3.37,0,0,1,1.441-1.1,5.253,5.253,0,0,1,2.092-.4A4.15,4.15,0,0,1,19.34,8.2a3.09,3.09,0,0,1,1.033,2.483V14.8a4.546,4.546,0,0,0,.378,2.048V17Zm-2.1-1.767a2.188,2.188,0,0,0,1.037-.25,1.645,1.645,0,0,0,.7-.672V12.676h-.949q-1.907,0-2.03,1.318l-.009.149a1.017,1.017,0,0,0,.334.782A1.3,1.3,0,0,0,16.084,15.233ZM25,17H22.456V7.49H25Zm-2.7-11.971a1.251,1.251,0,0,1,.382-.94,1.648,1.648,0,0,1,2.079,0,1.244,1.244,0,0,1,.387.94,1.247,1.247,0,0,1-.391.949,1.629,1.629,0,0,1-2.065,0A1.247,1.247,0,0,1,22.307,5.029ZM29.777,17H27.229V3.5h2.549Zm5.643-3.595L37.178,7.49H39.9L36.079,18.477l-.211.5a2.9,2.9,0,0,1-2.812,1.863,4,4,0,0,1-1.125-.167V18.749l.387.009a2.09,2.09,0,0,0,1.077-.22,1.443,1.443,0,0,0,.558-.729l.3-.782L30.92,7.49h2.733Zm16.77.237a1.353,1.353,0,0,0-.527-1.147,6.917,6.917,0,0,0-1.9-.844,13.458,13.458,0,0,1-2.171-.875A3.547,3.547,0,0,1,45.413,7.6,3.09,3.09,0,0,1,46,5.754a3.812,3.812,0,0,1,1.679-1.27,6.318,6.318,0,0,1,2.457-.457,5.751,5.751,0,0,1,2.443.5,3.891,3.891,0,0,1,1.666,1.4,3.668,3.668,0,0,1,.593,2.057H52.2a1.726,1.726,0,0,0-.554-1.367,2.276,2.276,0,0,0-1.556-.488,2.432,2.432,0,0,0-1.5.409,1.289,1.289,0,0,0-.536,1.077,1.235,1.235,0,0,0,.628,1.046,7.1,7.1,0,0,0,1.85.791,7.994,7.994,0,0,1,3.278,1.679,3.343,3.343,0,0,1,1.028,2.5,3.08,3.08,0,0,1-1.257,2.606,5.5,5.5,0,0,1-3.384.945,6.534,6.534,0,0,1-2.689-.541,4.256,4.256,0,0,1-1.85-1.481,3.793,3.793,0,0,1-.637-2.18h2.646q0,2.118,2.531,2.118a2.462,2.462,0,0,0,1.468-.382A1.244,1.244,0,0,0,52.189,13.643Zm8.218,1.485a1.666,1.666,0,0,0,1.143-.387,1.355,1.355,0,0,0,.457-1.028h2.382a3.258,3.258,0,0,1-.527,1.771,3.48,3.48,0,0,1-1.419,1.248,4.442,4.442,0,0,1-1.991.444,4.129,4.129,0,0,1-3.217-1.3A5.13,5.13,0,0,1,56.057,12.3v-.167a5.071,5.071,0,0,1,1.169-3.507,4.08,4.08,0,0,1,3.208-1.31A4,4,0,0,1,63.294,8.33a3.594,3.594,0,0,1,1.094,2.7H62.007a1.745,1.745,0,0,0-.457-1.206,1.7,1.7,0,0,0-2.5.183,3.749,3.749,0,0,0-.453,2.1v.264a3.8,3.8,0,0,0,.448,2.113A1.549,1.549,0,0,0,60.407,15.128ZM71.183,9.872a6.9,6.9,0,0,0-.914-.07,1.86,1.86,0,0,0-1.89.976V17h-2.54V7.49h2.4l.07,1.134a2.354,2.354,0,0,1,2.118-1.31,2.662,2.662,0,0,1,.791.114ZM78.1,16.033a3.185,3.185,0,0,1-2.6,1.143,3,3,0,0,1-2.333-.879,3.752,3.752,0,0,1-.822-2.575V7.49h2.54v6.151q0,1.487,1.354,1.487a1.834,1.834,0,0,0,1.775-.9V7.49h2.549V17H78.17ZM84.858,7.49l.079,1.063a3.342,3.342,0,0,1,2.733-1.239,2.536,2.536,0,0,1,2.522,1.45,3.265,3.265,0,0,1,2.856-1.45,2.836,2.836,0,0,1,2.3.9,4.141,4.141,0,0,1,.756,2.711V17H93.56V10.922a1.818,1.818,0,0,0-.316-1.185,1.4,1.4,0,0,0-1.116-.374,1.585,1.585,0,0,0-1.582,1.092L90.554,17h-2.54V10.93a1.8,1.8,0,0,0-.325-1.2,1.414,1.414,0,0,0-1.107-.37,1.645,1.645,0,0,0-1.564.9V17h-2.54V7.49Z" transform="translate(817 3654.999)" fill="#12263f"/>
    <path id="Trazado_688658" data-name="Trazado 688658" d="M9.267,13.643A1.353,1.353,0,0,0,8.74,12.5a6.917,6.917,0,0,0-1.9-.844,13.458,13.458,0,0,1-2.171-.875A3.547,3.547,0,0,1,2.491,7.6a3.09,3.09,0,0,1,.584-1.85,3.812,3.812,0,0,1,1.679-1.27A6.318,6.318,0,0,1,7.21,4.027a5.751,5.751,0,0,1,2.443.5,3.891,3.891,0,0,1,1.666,1.4,3.668,3.668,0,0,1,.593,2.057H9.276a1.726,1.726,0,0,0-.554-1.367,2.276,2.276,0,0,0-1.556-.488,2.432,2.432,0,0,0-1.5.409,1.289,1.289,0,0,0-.536,1.077,1.235,1.235,0,0,0,.628,1.046,7.1,7.1,0,0,0,1.85.791,7.994,7.994,0,0,1,3.278,1.679,3.343,3.343,0,0,1,1.028,2.5,3.08,3.08,0,0,1-1.257,2.606,5.5,5.5,0,0,1-3.384.945,6.534,6.534,0,0,1-2.689-.541,4.256,4.256,0,0,1-1.85-1.481,3.793,3.793,0,0,1-.637-2.18H4.741q0,2.118,2.531,2.118A2.462,2.462,0,0,0,8.74,14.71,1.244,1.244,0,0,0,9.267,13.643Zm12.823-1.31a5.7,5.7,0,0,1-1,3.52A3.2,3.2,0,0,1,18.4,17.176a2.963,2.963,0,0,1-2.329-1v4.482H13.53V7.49h2.355l.088.932a2.985,2.985,0,0,1,2.408-1.107,3.22,3.22,0,0,1,2.733,1.3A5.858,5.858,0,0,1,22.09,12.2Zm-2.54-.194a3.763,3.763,0,0,0-.47-2.054,1.53,1.53,0,0,0-1.367-.723,1.662,1.662,0,0,0-1.644.917v3.906a1.691,1.691,0,0,0,1.661.943Q19.55,15.128,19.55,12.139Zm9.457-2.267a6.9,6.9,0,0,0-.914-.07,1.86,1.86,0,0,0-1.89.976V17h-2.54V7.49h2.4l.07,1.134a2.354,2.354,0,0,1,2.118-1.31,2.662,2.662,0,0,1,.791.114ZM32.91,17H30.361V7.49H32.91Zm-2.7-11.971a1.251,1.251,0,0,1,.382-.94,1.648,1.648,0,0,1,2.079,0,1.244,1.244,0,0,1,.387.94,1.247,1.247,0,0,1-.391.949,1.629,1.629,0,0,1-2.065,0A1.247,1.247,0,0,1,30.211,5.029ZM37.339,7.49l.079,1.1a3.32,3.32,0,0,1,2.733-1.274A2.759,2.759,0,0,1,42.4,8.2a4.142,4.142,0,0,1,.756,2.654V17h-2.54V10.9a1.654,1.654,0,0,0-.352-1.176A1.572,1.572,0,0,0,39.1,9.362a1.747,1.747,0,0,0-1.608.916V17h-2.54V7.49ZM48.124,5.152V7.49H49.75V9.354H48.124V14.1a1.133,1.133,0,0,0,.2.756,1.015,1.015,0,0,0,.773.229,4.051,4.051,0,0,0,.747-.062v1.925a5.229,5.229,0,0,1-1.538.229,2.425,2.425,0,0,1-2.725-2.7V9.354H44.195V7.49h1.389V5.152Zm12.867,4.72a6.9,6.9,0,0,0-.914-.07,1.86,1.86,0,0,0-1.89.976V17h-2.54V7.49h2.4l.07,1.134a2.354,2.354,0,0,1,2.118-1.31,2.662,2.662,0,0,1,.791.114Zm5.432,7.3a4.668,4.668,0,0,1-3.406-1.283A4.561,4.561,0,0,1,61.7,12.474v-.246a5.745,5.745,0,0,1,.554-2.562,4.064,4.064,0,0,1,1.569-1.74,4.4,4.4,0,0,1,2.316-.611,3.947,3.947,0,0,1,3.072,1.23,5,5,0,0,1,1.121,3.489v1.037H64.278a2.36,2.36,0,0,0,.743,1.494,2.245,2.245,0,0,0,1.569.563,2.742,2.742,0,0,0,2.294-1.063l1.248,1.4a3.813,3.813,0,0,1-1.547,1.261A5.075,5.075,0,0,1,66.422,17.176Zm-.29-7.813a1.587,1.587,0,0,0-1.226.512,2.651,2.651,0,0,0-.6,1.466h3.533v-.2a1.891,1.891,0,0,0-.457-1.311A1.638,1.638,0,0,0,66.132,9.362ZM75.22,13.9,76.987,7.49h2.654L76.433,17H74.007L70.8,7.49h2.654ZM83.438,17H80.889V7.49h2.549ZM80.74,5.029a1.251,1.251,0,0,1,.382-.94,1.648,1.648,0,0,1,2.079,0,1.244,1.244,0,0,1,.387.94,1.247,1.247,0,0,1-.391.949,1.629,1.629,0,0,1-2.065,0A1.247,1.247,0,0,1,80.74,5.029Zm9.167,12.146A4.668,4.668,0,0,1,86.5,15.893a4.561,4.561,0,0,1-1.314-3.419v-.246a5.745,5.745,0,0,1,.554-2.562,4.064,4.064,0,0,1,1.569-1.74,4.4,4.4,0,0,1,2.316-.611A3.947,3.947,0,0,1,92.7,8.545a5,5,0,0,1,1.121,3.489v1.037H87.762a2.36,2.36,0,0,0,.743,1.494,2.245,2.245,0,0,0,1.569.563,2.742,2.742,0,0,0,2.294-1.063l1.248,1.4a3.813,3.813,0,0,1-1.547,1.261A5.075,5.075,0,0,1,89.907,17.176Zm-.29-7.813a1.587,1.587,0,0,0-1.226.512,2.651,2.651,0,0,0-.6,1.466h3.533v-.2a1.891,1.891,0,0,0-.457-1.311A1.638,1.638,0,0,0,89.617,9.362Zm13.913,4.184,1.248-6.056h2.452L104.8,17h-2.127l-1.8-5.985L99.074,17H96.956L94.53,7.49h2.452l1.239,6.047,1.74-6.047H101.8ZM24.731,31.49l.079,1.063a3.342,3.342,0,0,1,2.733-1.239,2.536,2.536,0,0,1,2.522,1.45,3.265,3.265,0,0,1,2.856-1.45,2.836,2.836,0,0,1,2.3.9,4.141,4.141,0,0,1,.756,2.711V41H33.433V34.922a1.818,1.818,0,0,0-.316-1.185A1.4,1.4,0,0,0,32,33.362a1.585,1.585,0,0,0-1.582,1.092L30.427,41h-2.54V34.93a1.8,1.8,0,0,0-.325-1.2,1.414,1.414,0,0,0-1.107-.37,1.645,1.645,0,0,0-1.564.9V41H22.35V31.49ZM42.31,41.176A4.668,4.668,0,0,1,38.9,39.893a4.561,4.561,0,0,1-1.314-3.419v-.246a5.745,5.745,0,0,1,.554-2.562,4.064,4.064,0,0,1,1.569-1.74,4.4,4.4,0,0,1,2.316-.611,3.947,3.947,0,0,1,3.072,1.23,5,5,0,0,1,1.121,3.489v1.037H40.165a2.36,2.36,0,0,0,.743,1.494,2.245,2.245,0,0,0,1.569.563,2.742,2.742,0,0,0,2.294-1.063l1.248,1.4a3.813,3.813,0,0,1-1.547,1.261A5.075,5.075,0,0,1,42.31,41.176Zm-.29-7.813a1.587,1.587,0,0,0-1.226.512,2.651,2.651,0,0,0-.6,1.466h3.533v-.2a1.891,1.891,0,0,0-.457-1.311A1.638,1.638,0,0,0,42.02,33.362Zm10.02,7.813a4.668,4.668,0,0,1-3.406-1.283,4.561,4.561,0,0,1-1.314-3.419v-.246a5.745,5.745,0,0,1,.554-2.562,4.064,4.064,0,0,1,1.569-1.74,4.4,4.4,0,0,1,2.316-.611,3.947,3.947,0,0,1,3.072,1.23,5,5,0,0,1,1.121,3.489v1.037H49.895a2.36,2.36,0,0,0,.743,1.494,2.245,2.245,0,0,0,1.569.563A2.742,2.742,0,0,0,54.5,38.064l1.248,1.4A3.813,3.813,0,0,1,54.2,40.723,5.075,5.075,0,0,1,52.039,41.176Zm-.29-7.813a1.587,1.587,0,0,0-1.226.512,2.651,2.651,0,0,0-.6,1.466h3.533v-.2A1.891,1.891,0,0,0,53,33.826,1.638,1.638,0,0,0,51.749,33.362Zm8.684-4.21V31.49h1.626v1.863H60.433V38.1a1.133,1.133,0,0,0,.2.756,1.015,1.015,0,0,0,.773.229,4.051,4.051,0,0,0,.747-.062v1.925a5.229,5.229,0,0,1-1.538.229,2.425,2.425,0,0,1-2.725-2.7V33.354H56.5V31.49h1.389V29.152ZM66.154,41H63.605V31.49h2.549Zm-2.7-11.971a1.251,1.251,0,0,1,.382-.94,1.648,1.648,0,0,1,2.079,0,1.342,1.342,0,0,1,0,1.89,1.629,1.629,0,0,1-2.065,0A1.247,1.247,0,0,1,63.456,29.029Zm7.128,2.461.079,1.1A3.32,3.32,0,0,1,73.4,31.314a2.759,2.759,0,0,1,2.25.888,4.142,4.142,0,0,1,.756,2.654V41h-2.54V34.9a1.654,1.654,0,0,0-.352-1.176,1.572,1.572,0,0,0-1.169-.366,1.747,1.747,0,0,0-1.608.916V41h-2.54V31.49Zm7.374,4.685A5.573,5.573,0,0,1,79,32.65a3.375,3.375,0,0,1,2.808-1.336,2.96,2.96,0,0,1,2.435,1.072l.105-.9h2.3v9.193a4.064,4.064,0,0,1-.567,2.171,3.641,3.641,0,0,1-1.6,1.406,5.608,5.608,0,0,1-2.408.483,5.215,5.215,0,0,1-2.039-.417,3.619,3.619,0,0,1-1.5-1.077L79.663,41.7a2.975,2.975,0,0,0,2.3,1.063,2.178,2.178,0,0,0,1.573-.541,2.027,2.027,0,0,0,.563-1.534v-.51a2.938,2.938,0,0,1-2.312.993,3.366,3.366,0,0,1-2.773-1.34,5.572,5.572,0,0,1-1.059-3.555Zm2.54.181a3.489,3.489,0,0,0,.519,2.035,1.648,1.648,0,0,0,1.424.737,1.762,1.762,0,0,0,1.661-.874V34.236a1.758,1.758,0,0,0-1.644-.874,1.659,1.659,0,0,0-1.437.751A3.933,3.933,0,0,0,80.5,36.356Z" transform="translate(1078 3654.999)" fill="#12263f"/>
    <path id="Trazado_688659" data-name="Trazado 688659" d="M41.428,13.643A1.353,1.353,0,0,0,40.9,12.5a6.917,6.917,0,0,0-1.9-.844,13.458,13.458,0,0,1-2.171-.875A3.547,3.547,0,0,1,34.652,7.6a3.09,3.09,0,0,1,.584-1.85,3.812,3.812,0,0,1,1.679-1.27,6.318,6.318,0,0,1,2.457-.457,5.751,5.751,0,0,1,2.443.5,3.891,3.891,0,0,1,1.666,1.4,3.668,3.668,0,0,1,.593,2.057H41.437a1.726,1.726,0,0,0-.554-1.367,2.276,2.276,0,0,0-1.556-.488,2.432,2.432,0,0,0-1.5.409,1.289,1.289,0,0,0-.536,1.077,1.235,1.235,0,0,0,.628,1.046,7.1,7.1,0,0,0,1.85.791,7.994,7.994,0,0,1,3.278,1.679,3.343,3.343,0,0,1,1.028,2.5,3.08,3.08,0,0,1-1.257,2.606,5.5,5.5,0,0,1-3.384.945,6.534,6.534,0,0,1-2.689-.541,4.256,4.256,0,0,1-1.85-1.481,3.793,3.793,0,0,1-.637-2.18H36.9q0,2.118,2.531,2.118A2.462,2.462,0,0,0,40.9,14.71,1.244,1.244,0,0,0,41.428,13.643Zm12.823-1.31a5.7,5.7,0,0,1-1,3.52,3.2,3.2,0,0,1-2.694,1.323,2.963,2.963,0,0,1-2.329-1v4.482h-2.54V7.49h2.355l.088.932a2.985,2.985,0,0,1,2.408-1.107,3.22,3.22,0,0,1,2.733,1.3,5.858,5.858,0,0,1,.976,3.586Zm-2.54-.194a3.763,3.763,0,0,0-.47-2.054,1.53,1.53,0,0,0-1.367-.723,1.662,1.662,0,0,0-1.644.917v3.906a1.691,1.691,0,0,0,1.661.943Q51.711,15.128,51.711,12.139Zm9.457-2.267a6.9,6.9,0,0,0-.914-.07,1.86,1.86,0,0,0-1.89.976V17h-2.54V7.49h2.4l.07,1.134a2.354,2.354,0,0,1,2.118-1.31,2.662,2.662,0,0,1,.791.114ZM65.071,17H62.522V7.49h2.549Zm-2.7-11.971a1.251,1.251,0,0,1,.382-.94,1.648,1.648,0,0,1,2.079,0,1.244,1.244,0,0,1,.387.94,1.247,1.247,0,0,1-.391.949,1.629,1.629,0,0,1-2.065,0A1.247,1.247,0,0,1,62.373,5.029ZM69.5,7.49l.079,1.1a3.32,3.32,0,0,1,2.733-1.274,2.759,2.759,0,0,1,2.25.888,4.142,4.142,0,0,1,.756,2.654V17h-2.54V10.9a1.654,1.654,0,0,0-.352-1.176,1.572,1.572,0,0,0-1.169-.366,1.747,1.747,0,0,0-1.608.916V17H67.11V7.49ZM80.285,5.152V7.49h1.626V9.354H80.285V14.1a1.133,1.133,0,0,0,.2.756,1.015,1.015,0,0,0,.773.229,4.051,4.051,0,0,0,.747-.062v1.925a5.229,5.229,0,0,1-1.538.229,2.425,2.425,0,0,1-2.725-2.7V9.354H76.356V7.49h1.389V5.152ZM7.981,36.315h-2.1V41H3.244V28.2H8a5.375,5.375,0,0,1,3.5,1.011,3.488,3.488,0,0,1,1.23,2.856,3.937,3.937,0,0,1-.567,2.184,3.866,3.866,0,0,1-1.718,1.393l2.769,5.229V41h-2.83Zm-2.1-2.136H8.008a2.178,2.178,0,0,0,1.538-.505,1.806,1.806,0,0,0,.545-1.393,1.933,1.933,0,0,0-.514-1.424A2.137,2.137,0,0,0,8,30.339H5.881Zm13.061,7a4.668,4.668,0,0,1-3.406-1.283,4.561,4.561,0,0,1-1.314-3.419v-.246a5.745,5.745,0,0,1,.554-2.562,4.064,4.064,0,0,1,1.569-1.74,4.4,4.4,0,0,1,2.316-.611,3.947,3.947,0,0,1,3.072,1.23,5,5,0,0,1,1.121,3.489v1.037H16.8a2.36,2.36,0,0,0,.743,1.494,2.245,2.245,0,0,0,1.569.563A2.742,2.742,0,0,0,21.4,38.064l1.248,1.4A3.813,3.813,0,0,1,21.1,40.723,5.075,5.075,0,0,1,18.941,41.176Zm-.29-7.813a1.587,1.587,0,0,0-1.226.512,2.651,2.651,0,0,0-.6,1.466h3.533v-.2a1.891,1.891,0,0,0-.457-1.311A1.638,1.638,0,0,0,18.651,33.362Zm8.684-4.21V31.49h1.626v1.863H27.335V38.1a1.133,1.133,0,0,0,.2.756,1.015,1.015,0,0,0,.773.229,4.051,4.051,0,0,0,.747-.062v1.925a5.229,5.229,0,0,1-1.538.229,2.425,2.425,0,0,1-2.725-2.7V33.354H23.406V31.49h1.389V29.152Zm8.385,4.72a6.9,6.9,0,0,0-.914-.07,1.86,1.86,0,0,0-1.89.976V41h-2.54V31.49h2.4l.07,1.134a2.354,2.354,0,0,1,2.118-1.31,2.662,2.662,0,0,1,.791.114Zm.51,2.285a5.64,5.64,0,0,1,.545-2.522,3.989,3.989,0,0,1,1.569-1.714,4.577,4.577,0,0,1,2.377-.606,4.33,4.33,0,0,1,3.142,1.178,4.727,4.727,0,0,1,1.358,3.2l.018.65a4.97,4.97,0,0,1-1.222,3.511,4.735,4.735,0,0,1-6.561,0,5.058,5.058,0,0,1-1.226-3.586Zm2.54.18a3.555,3.555,0,0,0,.51,2.073,1.831,1.831,0,0,0,2.9.009,3.89,3.89,0,0,0,.519-2.267,3.519,3.519,0,0,0-.519-2.06,1.686,1.686,0,0,0-1.459-.731,1.658,1.658,0,0,0-1.441.726A3.955,3.955,0,0,0,38.77,36.338Zm13.184,2.035a.818.818,0,0,0-.461-.734,5.241,5.241,0,0,0-1.481-.479q-3.393-.712-3.393-2.883a2.613,2.613,0,0,1,1.05-2.114,4.237,4.237,0,0,1,2.747-.848,4.56,4.56,0,0,1,2.9.853A2.687,2.687,0,0,1,54.4,34.382h-2.54a1.229,1.229,0,0,0-.352-.9,1.488,1.488,0,0,0-1.1-.356,1.52,1.52,0,0,0-.993.29.916.916,0,0,0-.352.738.783.783,0,0,0,.4.681,4.114,4.114,0,0,0,1.349.448,11.019,11.019,0,0,1,1.6.426,2.628,2.628,0,0,1,2.013,2.558,2.481,2.481,0,0,1-1.116,2.1,4.815,4.815,0,0,1-2.883.8A5.029,5.029,0,0,1,48.3,40.75a3.561,3.561,0,0,1-1.455-1.169,2.716,2.716,0,0,1-.527-1.6h2.408a1.326,1.326,0,0,0,.5,1.037,1.987,1.987,0,0,0,1.248.36,1.839,1.839,0,0,0,1.1-.277A.861.861,0,0,0,51.953,38.372Zm12.665-2.039a5.7,5.7,0,0,1-1,3.52,3.2,3.2,0,0,1-2.694,1.323,2.963,2.963,0,0,1-2.329-1v4.482h-2.54V31.49h2.355l.088.932a2.985,2.985,0,0,1,2.408-1.107,3.22,3.22,0,0,1,2.733,1.3,5.858,5.858,0,0,1,.976,3.586Zm-2.54-.194a3.763,3.763,0,0,0-.47-2.054,1.53,1.53,0,0,0-1.367-.723,1.662,1.662,0,0,0-1.644.917v3.906a1.691,1.691,0,0,0,1.661.943Q62.078,39.128,62.078,36.139Zm8.49,5.036a4.668,4.668,0,0,1-3.406-1.283,4.561,4.561,0,0,1-1.314-3.419v-.246a5.745,5.745,0,0,1,.554-2.562,4.064,4.064,0,0,1,1.569-1.74,4.4,4.4,0,0,1,2.316-.611,3.947,3.947,0,0,1,3.072,1.23,5,5,0,0,1,1.121,3.489v1.037H68.424a2.36,2.36,0,0,0,.743,1.494,2.245,2.245,0,0,0,1.569.563,2.742,2.742,0,0,0,2.294-1.063l1.248,1.4a3.813,3.813,0,0,1-1.547,1.261A5.075,5.075,0,0,1,70.568,41.176Zm-.29-7.813a1.587,1.587,0,0,0-1.226.512,2.651,2.651,0,0,0-.6,1.466h3.533v-.2a1.891,1.891,0,0,0-.457-1.311A1.638,1.638,0,0,0,70.278,33.362Zm9.6,5.766a1.666,1.666,0,0,0,1.143-.387,1.355,1.355,0,0,0,.457-1.028h2.382a3.258,3.258,0,0,1-.527,1.771,3.48,3.48,0,0,1-1.419,1.248,4.442,4.442,0,0,1-1.991.444,4.129,4.129,0,0,1-3.217-1.3A5.13,5.13,0,0,1,75.525,36.3v-.167a5.071,5.071,0,0,1,1.169-3.507,4.08,4.08,0,0,1,3.208-1.31,4,4,0,0,1,2.861,1.015,3.594,3.594,0,0,1,1.094,2.7H81.476a1.745,1.745,0,0,0-.457-1.206,1.7,1.7,0,0,0-2.5.183,3.749,3.749,0,0,0-.453,2.1v.264a3.8,3.8,0,0,0,.448,2.113A1.549,1.549,0,0,0,79.876,39.128Zm8.473-9.976V31.49h1.626v1.863H88.349V38.1a1.133,1.133,0,0,0,.2.756,1.015,1.015,0,0,0,.773.229,4.051,4.051,0,0,0,.747-.062v1.925a5.229,5.229,0,0,1-1.538.229,2.425,2.425,0,0,1-2.725-2.7V33.354H84.42V31.49h1.389V29.152ZM94.07,41H91.521V31.49H94.07Zm-2.7-11.971a1.251,1.251,0,0,1,.382-.94,1.648,1.648,0,0,1,2.079,0,1.342,1.342,0,0,1,0,1.89,1.629,1.629,0,0,1-2.065,0A1.247,1.247,0,0,1,91.372,29.029Zm8.35,8.868,1.767-6.407h2.654L100.935,41H98.509L95.3,31.49h2.654Zm9.8,3.278a4.668,4.668,0,0,1-3.406-1.283,4.561,4.561,0,0,1-1.314-3.419v-.246a5.745,5.745,0,0,1,.554-2.562,4.064,4.064,0,0,1,1.569-1.74,4.4,4.4,0,0,1,2.316-.611,3.947,3.947,0,0,1,3.072,1.23,5,5,0,0,1,1.121,3.489v1.037h-6.056a2.36,2.36,0,0,0,.743,1.494,2.245,2.245,0,0,0,1.569.563,2.742,2.742,0,0,0,2.294-1.063l1.248,1.4a3.813,3.813,0,0,1-1.547,1.261A5.075,5.075,0,0,1,109.521,41.176Zm-.29-7.813a1.587,1.587,0,0,0-1.226.512,2.651,2.651,0,0,0-.6,1.466h3.533v-.2a1.891,1.891,0,0,0-.457-1.311A1.638,1.638,0,0,0,109.231,33.362Z" transform="translate(1152 3787.999)" fill="#12263f"/>
    <path id="Trazado_688660" data-name="Trazado 688660" d="M29.387,13.643A1.353,1.353,0,0,0,28.86,12.5a6.917,6.917,0,0,0-1.9-.844,13.458,13.458,0,0,1-2.171-.875A3.547,3.547,0,0,1,22.611,7.6a3.09,3.09,0,0,1,.584-1.85,3.812,3.812,0,0,1,1.679-1.27,6.318,6.318,0,0,1,2.457-.457,5.751,5.751,0,0,1,2.443.5,3.891,3.891,0,0,1,1.666,1.4,3.668,3.668,0,0,1,.593,2.057H29.4a1.726,1.726,0,0,0-.554-1.367,2.276,2.276,0,0,0-1.556-.488,2.432,2.432,0,0,0-1.5.409,1.289,1.289,0,0,0-.536,1.077,1.235,1.235,0,0,0,.628,1.046,7.1,7.1,0,0,0,1.85.791A7.994,7.994,0,0,1,31,11.129a3.343,3.343,0,0,1,1.028,2.5,3.08,3.08,0,0,1-1.257,2.606,5.5,5.5,0,0,1-3.384.945,6.534,6.534,0,0,1-2.689-.541,4.256,4.256,0,0,1-1.85-1.481,3.793,3.793,0,0,1-.637-2.18h2.646q0,2.118,2.531,2.118a2.462,2.462,0,0,0,1.468-.382A1.244,1.244,0,0,0,29.387,13.643Zm3.867-1.485A5.64,5.64,0,0,1,33.8,9.635a3.989,3.989,0,0,1,1.569-1.714,4.577,4.577,0,0,1,2.377-.606,4.33,4.33,0,0,1,3.142,1.178,4.727,4.727,0,0,1,1.358,3.2l.018.65a4.97,4.97,0,0,1-1.222,3.511,4.247,4.247,0,0,1-3.278,1.323,4.268,4.268,0,0,1-3.283-1.318,5.058,5.058,0,0,1-1.226-3.586Zm2.54.18a3.555,3.555,0,0,0,.51,2.073,1.831,1.831,0,0,0,2.9.009,3.89,3.89,0,0,0,.519-2.267,3.519,3.519,0,0,0-.519-2.06,1.686,1.686,0,0,0-1.459-.731,1.658,1.658,0,0,0-1.441.726A3.955,3.955,0,0,0,35.794,12.338ZM44.522,17V9.354H43.107V7.49h1.415V6.682A3.283,3.283,0,0,1,45.44,4.2a3.557,3.557,0,0,1,2.571-.883A5.987,5.987,0,0,1,49.3,3.49l-.026,1.953a3.238,3.238,0,0,0-.773-.079q-1.433,0-1.433,1.356V7.49h1.89V9.354h-1.89V17Zm8.8-11.848V7.49h1.626V9.354H53.32V14.1a1.133,1.133,0,0,0,.2.756,1.015,1.015,0,0,0,.773.229,4.051,4.051,0,0,0,.747-.062v1.925a5.229,5.229,0,0,1-1.538.229,2.425,2.425,0,0,1-2.725-2.7V9.354H49.391V7.49H50.78V5.152Zm11.312,8.394L65.879,7.49h2.452L65.906,17H63.779l-1.8-5.985L60.175,17H58.057L55.631,7.49h2.452l1.239,6.047,1.74-6.047H62.9ZM75.1,17a2.821,2.821,0,0,1-.255-.853,3.073,3.073,0,0,1-2.4,1.028,3.376,3.376,0,0,1-2.316-.809,2.6,2.6,0,0,1-.918-2.039,2.687,2.687,0,0,1,1.121-2.32,5.529,5.529,0,0,1,3.239-.817h1.169v-.545A1.567,1.567,0,0,0,74.4,9.591a1.331,1.331,0,0,0-1.068-.4,1.513,1.513,0,0,0-1.006.308,1.045,1.045,0,0,0-.365.844h-2.54a2.551,2.551,0,0,1,.51-1.529,3.37,3.37,0,0,1,1.441-1.1,5.253,5.253,0,0,1,2.092-.4,4.15,4.15,0,0,1,2.791.883,3.09,3.09,0,0,1,1.033,2.483V14.8a4.546,4.546,0,0,0,.378,2.048V17ZM73,15.233a2.188,2.188,0,0,0,1.037-.25,1.645,1.645,0,0,0,.7-.672V12.676H73.79q-1.907,0-2.03,1.318l-.009.149a1.017,1.017,0,0,0,.334.782A1.3,1.3,0,0,0,73,15.233ZM84.583,9.872a6.9,6.9,0,0,0-.914-.07,1.86,1.86,0,0,0-1.89.976V17h-2.54V7.49h2.4l.07,1.134a2.354,2.354,0,0,1,2.118-1.31,2.662,2.662,0,0,1,.791.114Zm5.432,7.3a4.668,4.668,0,0,1-3.406-1.283,4.561,4.561,0,0,1-1.314-3.419v-.246a5.745,5.745,0,0,1,.554-2.562,4.064,4.064,0,0,1,1.569-1.74,4.4,4.4,0,0,1,2.316-.611A3.947,3.947,0,0,1,92.8,8.545a5,5,0,0,1,1.121,3.489v1.037H87.87a2.36,2.36,0,0,0,.743,1.494,2.245,2.245,0,0,0,1.569.563,2.742,2.742,0,0,0,2.294-1.063l1.248,1.4a3.813,3.813,0,0,1-1.547,1.261A5.075,5.075,0,0,1,90.014,17.176Zm-.29-7.813a1.587,1.587,0,0,0-1.226.512,2.651,2.651,0,0,0-.6,1.466h3.533v-.2a1.891,1.891,0,0,0-.457-1.311A1.638,1.638,0,0,0,89.724,9.362ZM20.787,41H18.15V28.2h2.637ZM25.4,31.49l.079,1.1a3.32,3.32,0,0,1,2.733-1.274,2.759,2.759,0,0,1,2.25.888,4.142,4.142,0,0,1,.756,2.654V41H28.68V34.9a1.654,1.654,0,0,0-.352-1.176,1.572,1.572,0,0,0-1.169-.366,1.747,1.747,0,0,0-1.608.916V41h-2.54V31.49Zm11.7,7.638a1.666,1.666,0,0,0,1.143-.387,1.355,1.355,0,0,0,.457-1.028h2.382a3.258,3.258,0,0,1-.527,1.771,3.48,3.48,0,0,1-1.419,1.248,4.442,4.442,0,0,1-1.991.444,4.129,4.129,0,0,1-3.217-1.3A5.13,5.13,0,0,1,32.749,36.3v-.167a5.071,5.071,0,0,1,1.169-3.507,4.08,4.08,0,0,1,3.208-1.31,4,4,0,0,1,2.861,1.015,3.594,3.594,0,0,1,1.094,2.7H38.7a1.745,1.745,0,0,0-.457-1.206,1.7,1.7,0,0,0-2.5.183,3.749,3.749,0,0,0-.453,2.1v.264a3.8,3.8,0,0,0,.448,2.113A1.549,1.549,0,0,0,37.1,39.128Zm10.775-5.256a6.9,6.9,0,0,0-.914-.07,1.86,1.86,0,0,0-1.89.976V41h-2.54V31.49h2.4L45,32.624a2.354,2.354,0,0,1,2.118-1.31,2.662,2.662,0,0,1,.791.114Zm5.432,7.3A4.668,4.668,0,0,1,49.9,39.893a4.561,4.561,0,0,1-1.314-3.419v-.246a5.745,5.745,0,0,1,.554-2.562,4.064,4.064,0,0,1,1.569-1.74,4.4,4.4,0,0,1,2.316-.611,3.947,3.947,0,0,1,3.072,1.23,5,5,0,0,1,1.121,3.489v1.037H51.162a2.36,2.36,0,0,0,.743,1.494,2.245,2.245,0,0,0,1.569.563,2.742,2.742,0,0,0,2.294-1.063l1.248,1.4a3.813,3.813,0,0,1-1.547,1.261A5.075,5.075,0,0,1,53.307,41.176Zm-.29-7.813a1.587,1.587,0,0,0-1.226.512,2.651,2.651,0,0,0-.6,1.466h3.533v-.2a1.891,1.891,0,0,0-.457-1.311A1.638,1.638,0,0,0,53.017,33.362Zm8.024-1.872.079,1.063a3.342,3.342,0,0,1,2.733-1.239,2.536,2.536,0,0,1,2.522,1.45,3.265,3.265,0,0,1,2.856-1.45,2.836,2.836,0,0,1,2.3.9,4.141,4.141,0,0,1,.756,2.711V41H69.742V34.922a1.818,1.818,0,0,0-.316-1.185,1.4,1.4,0,0,0-1.116-.374,1.585,1.585,0,0,0-1.582,1.092L66.736,41H64.2V34.93a1.8,1.8,0,0,0-.325-1.2,1.414,1.414,0,0,0-1.107-.37,1.645,1.645,0,0,0-1.564.9V41h-2.54V31.49Zm17.578,9.686a4.668,4.668,0,0,1-3.406-1.283A4.561,4.561,0,0,1,73.9,36.474v-.246a5.745,5.745,0,0,1,.554-2.562,4.064,4.064,0,0,1,1.569-1.74,4.4,4.4,0,0,1,2.316-.611,3.947,3.947,0,0,1,3.072,1.23,5,5,0,0,1,1.121,3.489v1.037H76.475a2.36,2.36,0,0,0,.743,1.494,2.245,2.245,0,0,0,1.569.563,2.742,2.742,0,0,0,2.294-1.063l1.248,1.4a3.813,3.813,0,0,1-1.547,1.261A5.075,5.075,0,0,1,78.619,41.176Zm-.29-7.813a1.587,1.587,0,0,0-1.226.512,2.651,2.651,0,0,0-.6,1.466h3.533v-.2a1.891,1.891,0,0,0-.457-1.311A1.638,1.638,0,0,0,78.329,33.362Zm7.98-1.872.079,1.1a3.32,3.32,0,0,1,2.733-1.274,2.759,2.759,0,0,1,2.25.888,4.142,4.142,0,0,1,.756,2.654V41h-2.54V34.9a1.654,1.654,0,0,0-.352-1.176,1.572,1.572,0,0,0-1.169-.366,1.747,1.747,0,0,0-1.608.916V41h-2.54V31.49Zm10.784-2.338V31.49H98.72v1.863H97.094V38.1a1.133,1.133,0,0,0,.2.756,1.015,1.015,0,0,0,.773.229,4.051,4.051,0,0,0,.747-.062v1.925a5.229,5.229,0,0,1-1.538.229,2.425,2.425,0,0,1-2.725-2.7V33.354H93.165V31.49h1.389V29.152Z" transform="translate(1250 3892)" fill="#12263f"/>
    <path id="Trazado_688661" data-name="Trazado 688661" d="M4.992,17V4.2H9.475a5.886,5.886,0,0,1,3.533.892,3.05,3.05,0,0,1,1.2,2.615,2.891,2.891,0,0,1-.483,1.657,2.792,2.792,0,0,1-1.345,1.05,2.7,2.7,0,0,1,1.551.993,2.936,2.936,0,0,1,.567,1.828,3.377,3.377,0,0,1-1.178,2.795A5.3,5.3,0,0,1,9.967,17Zm2.637-5.572v3.454H9.888a2.18,2.18,0,0,0,1.455-.444,1.522,1.522,0,0,0,.523-1.226,1.607,1.607,0,0,0-1.819-1.784Zm0-1.863H9.58q2-.035,2-1.591a1.47,1.47,0,0,0-.505-1.252,2.658,2.658,0,0,0-1.6-.382H7.629ZM21.823,17a2.821,2.821,0,0,1-.255-.853,3.073,3.073,0,0,1-2.4,1.028,3.376,3.376,0,0,1-2.316-.809,2.6,2.6,0,0,1-.918-2.039,2.687,2.687,0,0,1,1.121-2.32,5.529,5.529,0,0,1,3.239-.817h1.169v-.545a1.567,1.567,0,0,0-.338-1.055,1.331,1.331,0,0,0-1.068-.4A1.513,1.513,0,0,0,19.05,9.5a1.045,1.045,0,0,0-.365.844h-2.54a2.551,2.551,0,0,1,.51-1.529,3.37,3.37,0,0,1,1.441-1.1,5.253,5.253,0,0,1,2.092-.4,4.15,4.15,0,0,1,2.791.883,3.09,3.09,0,0,1,1.033,2.483V14.8a4.546,4.546,0,0,0,.378,2.048V17Zm-2.1-1.767a2.188,2.188,0,0,0,1.037-.25,1.645,1.645,0,0,0,.7-.672V12.676h-.949q-1.907,0-2.03,1.318l-.009.149a1.017,1.017,0,0,0,.334.782A1.3,1.3,0,0,0,19.723,15.233Zm10.2-.105a1.666,1.666,0,0,0,1.143-.387,1.355,1.355,0,0,0,.457-1.028H33.9a3.258,3.258,0,0,1-.527,1.771,3.48,3.48,0,0,1-1.419,1.248,4.442,4.442,0,0,1-1.991.444,4.129,4.129,0,0,1-3.217-1.3A5.13,5.13,0,0,1,25.567,12.3v-.167a5.071,5.071,0,0,1,1.169-3.507,4.08,4.08,0,0,1,3.208-1.31A4,4,0,0,1,32.805,8.33a3.594,3.594,0,0,1,1.094,2.7H31.518a1.745,1.745,0,0,0-.457-1.206,1.7,1.7,0,0,0-2.5.183,3.749,3.749,0,0,0-.453,2.1v.264a3.8,3.8,0,0,0,.448,2.113A1.549,1.549,0,0,0,29.918,15.128ZM38.8,13.186l-.914.914V17H35.35V3.5h2.54v7.479l.492-.633L40.816,7.49h3.05L40.43,11.454,44.165,17H41.247ZM47.646,17H45.1V3.5h2.549Zm1.7-4.843a5.64,5.64,0,0,1,.545-2.522,3.989,3.989,0,0,1,1.569-1.714,4.577,4.577,0,0,1,2.377-.606,4.33,4.33,0,0,1,3.142,1.178,4.727,4.727,0,0,1,1.358,3.2l.018.65a4.97,4.97,0,0,1-1.222,3.511,4.735,4.735,0,0,1-6.561,0,5.058,5.058,0,0,1-1.226-3.586Zm2.54.18a3.555,3.555,0,0,0,.51,2.073,1.831,1.831,0,0,0,2.9.009,3.89,3.89,0,0,0,.519-2.267,3.519,3.519,0,0,0-.519-2.06,1.686,1.686,0,0,0-1.459-.731,1.658,1.658,0,0,0-1.441.726A3.955,3.955,0,0,0,51.882,12.338Zm7.664-.163A5.573,5.573,0,0,1,60.587,8.65,3.375,3.375,0,0,1,63.4,7.314,2.96,2.96,0,0,1,65.83,8.387l.105-.9h2.3v9.193a4.064,4.064,0,0,1-.567,2.171,3.641,3.641,0,0,1-1.6,1.406,5.608,5.608,0,0,1-2.408.483,5.215,5.215,0,0,1-2.039-.417,3.619,3.619,0,0,1-1.5-1.077L61.251,17.7a2.975,2.975,0,0,0,2.3,1.063,2.178,2.178,0,0,0,1.573-.541,2.027,2.027,0,0,0,.563-1.534v-.51a2.938,2.938,0,0,1-2.312.993,3.366,3.366,0,0,1-2.773-1.34,5.572,5.572,0,0,1-1.059-3.555Zm2.54.181a3.489,3.489,0,0,0,.519,2.035,1.648,1.648,0,0,0,1.424.737,1.762,1.762,0,0,0,1.661-.874V10.236a1.758,1.758,0,0,0-1.644-.874,1.659,1.659,0,0,0-1.437.751A3.933,3.933,0,0,0,62.086,12.356Zm17.49-.04h-2.1V17H74.839V4.2h4.755a5.375,5.375,0,0,1,3.5,1.011,3.488,3.488,0,0,1,1.23,2.856,3.937,3.937,0,0,1-.567,2.184,3.866,3.866,0,0,1-1.718,1.393l2.769,5.229V17h-2.83Zm-2.1-2.136H79.6a2.178,2.178,0,0,0,1.538-.505,1.806,1.806,0,0,0,.545-1.393,1.933,1.933,0,0,0-.514-1.424,2.137,2.137,0,0,0-1.578-.519H77.476Zm13.061,7a4.668,4.668,0,0,1-3.406-1.283,4.561,4.561,0,0,1-1.314-3.419v-.246a5.745,5.745,0,0,1,.554-2.562,4.064,4.064,0,0,1,1.569-1.74,4.4,4.4,0,0,1,2.316-.611,3.947,3.947,0,0,1,3.072,1.23,5,5,0,0,1,1.121,3.489v1.037H88.392a2.36,2.36,0,0,0,.743,1.494,2.245,2.245,0,0,0,1.569.563A2.742,2.742,0,0,0,93,14.064l1.248,1.4A3.813,3.813,0,0,1,92.7,16.723,5.075,5.075,0,0,1,90.536,17.176Zm-.29-7.813a1.587,1.587,0,0,0-1.226.512,2.651,2.651,0,0,0-.6,1.466h3.533v-.2a1.891,1.891,0,0,0-.457-1.311A1.638,1.638,0,0,0,90.246,9.362ZM96.5,17V9.354H95.089V7.49H96.5V7.051a3.566,3.566,0,0,1,1.1-2.764,4.438,4.438,0,0,1,3.063-.971,10.16,10.16,0,0,1,2.883.519l-.369,2.1a11.248,11.248,0,0,0-1.336-.33,6.564,6.564,0,0,0-1.02-.075q-1.775,0-1.775,1.573V7.49h1.872V9.354H99.053V17Zm8.235,0H102.19V7.49h2.549Zm4.438-9.51.079,1.1a3.32,3.32,0,0,1,2.733-1.274,2.759,2.759,0,0,1,2.25.888A4.142,4.142,0,0,1,115,10.856V17h-2.54V10.9a1.654,1.654,0,0,0-.352-1.176,1.572,1.572,0,0,0-1.169-.366,1.747,1.747,0,0,0-1.608.916V17h-2.54V7.49Zm12.12,9.686a4.668,4.668,0,0,1-3.406-1.283,4.561,4.561,0,0,1-1.314-3.419v-.246a5.745,5.745,0,0,1,.554-2.562,4.064,4.064,0,0,1,1.569-1.74,4.4,4.4,0,0,1,2.316-.611,3.947,3.947,0,0,1,3.072,1.23,5,5,0,0,1,1.121,3.489v1.037h-6.056a2.36,2.36,0,0,0,.743,1.494,2.245,2.245,0,0,0,1.569.563,2.742,2.742,0,0,0,2.294-1.063l1.248,1.4a3.813,3.813,0,0,1-1.547,1.261A5.075,5.075,0,0,1,121.3,17.176Zm-.29-7.813a1.587,1.587,0,0,0-1.226.512,2.651,2.651,0,0,0-.6,1.466h3.533v-.2a1.891,1.891,0,0,0-.457-1.311A1.638,1.638,0,0,0,121.008,9.362Zm8.024-1.872.079,1.063a3.342,3.342,0,0,1,2.733-1.239,2.536,2.536,0,0,1,2.522,1.45,3.265,3.265,0,0,1,2.856-1.45,2.836,2.836,0,0,1,2.3.9,4.141,4.141,0,0,1,.756,2.711V17h-2.549V10.922a1.818,1.818,0,0,0-.316-1.185,1.4,1.4,0,0,0-1.116-.374,1.585,1.585,0,0,0-1.582,1.092L134.728,17h-2.54V10.93a1.8,1.8,0,0,0-.325-1.2,1.414,1.414,0,0,0-1.107-.37,1.645,1.645,0,0,0-1.564.9V17h-2.54V7.49Zm17.578,9.686a4.668,4.668,0,0,1-3.406-1.283,4.561,4.561,0,0,1-1.314-3.419v-.246a5.745,5.745,0,0,1,.554-2.562,4.064,4.064,0,0,1,1.569-1.74,4.4,4.4,0,0,1,2.316-.611,3.947,3.947,0,0,1,3.072,1.23,5,5,0,0,1,1.121,3.489v1.037h-6.056a2.36,2.36,0,0,0,.743,1.494,2.245,2.245,0,0,0,1.569.563,2.742,2.742,0,0,0,2.294-1.063l1.248,1.4a3.813,3.813,0,0,1-1.547,1.261A5.075,5.075,0,0,1,146.61,17.176Zm-.29-7.813a1.587,1.587,0,0,0-1.226.512,2.651,2.651,0,0,0-.6,1.466h3.533v-.2a1.891,1.891,0,0,0-.457-1.311A1.638,1.638,0,0,0,146.32,9.362ZM154.3,7.49l.079,1.1a3.32,3.32,0,0,1,2.733-1.274,2.759,2.759,0,0,1,2.25.888,4.142,4.142,0,0,1,.756,2.654V17h-2.54V10.9a1.654,1.654,0,0,0-.352-1.176,1.572,1.572,0,0,0-1.169-.366,1.747,1.747,0,0,0-1.608.916V17h-2.54V7.49Zm10.784-2.338V7.49h1.626V9.354h-1.626V14.1a1.133,1.133,0,0,0,.2.756,1.015,1.015,0,0,0,.773.229,4.051,4.051,0,0,0,.747-.062v1.925a5.229,5.229,0,0,1-1.538.229,2.425,2.425,0,0,1-2.725-2.7V9.354h-1.389V7.49h1.389V5.152Z" transform="translate(909 3998)" fill="#12263f"/>
  </g>
</svg>
