<svg xmlns="http://www.w3.org/2000/svg" xmlns:xlink="http://www.w3.org/1999/xlink" width="767.954" height="603.473" viewBox="0 0 767.954 603.473">
  <defs>
    <clipPath id="clip-path">
      <path id="Trazado_100584" data-name="Trazado 100584" d="M473.312,109.683c0-3.712-17.123-6.719-38.244-6.719s-38.242,3.007-38.242,6.719a1.249,1.249,0,0,0,.053.354c.764,5.048,9.609,63.512,10.242,67.107.66,3.758,9,8.539,26.879,8.539.364,0,.713,0,1.068-.007s.7.007,1.068.007c17.875,0,26.216-4.781,26.878-8.539.635-3.594,9.479-62.058,10.242-67.107A1.225,1.225,0,0,0,473.312,109.683Z" transform="translate(-396.826 -102.964)" fill="none"/>
    </clipPath>
  </defs>
  <g id="Grupo_167913" data-name="Grupo 167913" transform="translate(-436.164 -850.537)">
    <g id="Grupo_167886" data-name="Grupo 167886" transform="translate(0 -39)">
      <path id="Trazado_100564" data-name="Trazado 100564" d="M-7491.655-10748.172l54.8-55.768-250.644-7.023-63.921,62.536Z" transform="translate(8376.382 12173.063)" fill="#a3b9e5" stroke="#6984b4" stroke-linejoin="round" stroke-width="1"/>
      <path id="Trazado_100565" data-name="Trazado 100565" d="M-7750.941-10748.3v49.252h259.768v-49.135Z" transform="translate(8376 12173.063)" fill="#8ba7de" stroke="#6984b4" stroke-width="1"/>
      <path id="Trazado_100566" data-name="Trazado 100566" d="M-7436.382-10833.963l-1,50.6-53.719,54.683-.037-49.464Z" transform="translate(8376 12203)" fill="#7186b3" stroke="#6984b4" stroke-linejoin="bevel" stroke-width="1"/>
    </g>
    <g id="Grupo_167887" data-name="Grupo 167887" transform="translate(-0.966 -95.111)">
      <path id="Trazado_100564-2" data-name="Trazado 100564" d="M-7491.655-10748.172l54.8-55.768-250.644-7.023-63.921,62.536Z" transform="translate(8376.382 12173.063)" fill="#a3b9e5" stroke="#6984b4" stroke-linejoin="round" stroke-width="1"/>
      <path id="Trazado_100565-2" data-name="Trazado 100565" d="M-7750.941-10748.3v49.252h259.768v-49.135Z" transform="translate(8376 12173.063)" fill="#8ba7de" stroke="#6984b4" stroke-width="1"/>
      <path id="Trazado_100566-2" data-name="Trazado 100566" d="M-7436.382-10833.963l-1,50.6-53.719,54.683-.037-49.464Z" transform="translate(8376 12203)" fill="#7186b3" stroke="#6984b4" stroke-linejoin="bevel" stroke-width="1"/>
    </g>
    <g id="Grupo_167888" data-name="Grupo 167888" transform="translate(0.383 -151.222)">
      <path id="Trazado_100564-3" data-name="Trazado 100564" d="M-7491.655-10748.172l54.8-55.768-250.644-7.023-63.921,62.536Z" transform="translate(8376.382 12173.063)" fill="#d3d3d3" stroke="#9d9d9d" stroke-linejoin="round" stroke-width="1"/>
      <path id="Trazado_100565-3" data-name="Trazado 100565" d="M-7750.941-10748.3v49.252h259.768v-49.135Z" transform="translate(8376 12173.063)" fill="#c2c2c2" stroke="#9d9d9d" stroke-width="1"/>
      <path id="Trazado_100566-3" data-name="Trazado 100566" d="M-7436.382-10833.963l-1,50.6-53.719,54.683-.037-49.464Z" transform="translate(8376 12203)" fill="#9e9e9e" stroke="#9d9d9d" stroke-linejoin="bevel" stroke-width="1"/>
    </g>
    <g id="Grupo_167889" data-name="Grupo 167889" transform="translate(-0.967 -209.333)">
      <path id="Trazado_100564-4" data-name="Trazado 100564" d="M-7491.655-10748.172l54.8-55.768-250.644-7.023-63.921,62.536Z" transform="translate(8376.382 12173.063)" fill="#a2b8e5" stroke="#6984b4" stroke-linejoin="round" stroke-width="1"/>
      <path id="Trazado_100565-4" data-name="Trazado 100565" d="M-7750.941-10748.3v49.252h259.768v-49.135Z" transform="translate(8376 12173.063)" fill="#8ca7de" stroke="#6984b4" stroke-width="1"/>
      <path id="Trazado_100566-4" data-name="Trazado 100566" d="M-7436.382-10833.963l-1,50.6-53.719,54.683-.037-49.464Z" transform="translate(8376 12203)" fill="#7186b3" stroke="#6984b4" stroke-linejoin="bevel" stroke-width="1"/>
    </g>
    <g id="Grupo_167890" data-name="Grupo 167890" transform="translate(-267.058 185.809)">
      <g id="Grupo_167884" data-name="Grupo 167884" transform="translate(266 52)">
        <path id="Trazado_100564-5" data-name="Trazado 100564" d="M-7494.04-10748.3l57.626-57.68-251.08-4.979-63.448,62.448Z" transform="translate(8376 11684)" fill="#c0d0ed" stroke="#6984b4" stroke-linejoin="round" stroke-width="1"/>
        <path id="Trazado_100565-5" data-name="Trazado 100565" d="M-7750.942-10748.306v35.314H-7494.2v-35.23Z" transform="translate(8376 11684)" fill="#b2c5e9" stroke="#6984b4" stroke-width="1"/>
        <path id="Trazado_100566-5" data-name="Trazado 100566" d="M-7436.382-10824.963v34.6l-57.889,58.533.073-35.723Z" transform="translate(8376 11703)" fill="#8f9fbb" stroke="#6984b4" stroke-linejoin="bevel" stroke-width="1"/>
      </g>
    </g>
    <path id="Trazado_688649" data-name="Trazado 688649" d="M7.859-4.945h-4.5v3.063H8.641V0H1.016V-11.375H8.625v1.9H3.359v2.711h4.5ZM12.25,0H9.984V-12H12.25Zm4.242,0H14.227V-8.453h2.266Zm-2.4-10.641a1.112,1.112,0,0,1,.34-.836,1.277,1.277,0,0,1,.926-.328,1.28,1.28,0,0,1,.922.328,1.105,1.105,0,0,1,.344.836,1.108,1.108,0,0,1-.348.844,1.283,1.283,0,0,1-.918.328,1.283,1.283,0,0,1-.918-.328A1.108,1.108,0,0,1,14.094-10.641Zm6.375,2.188.07.945a2.971,2.971,0,0,1,2.43-1.1A2.255,2.255,0,0,1,25.211-7.32,2.9,2.9,0,0,1,27.75-8.609a2.521,2.521,0,0,1,2.047.8,3.681,3.681,0,0,1,.672,2.41V0H28.2V-5.4a1.616,1.616,0,0,0-.281-1.053,1.245,1.245,0,0,0-.992-.333,1.409,1.409,0,0,0-1.406.971L25.531,0H23.273V-5.4a1.6,1.6,0,0,0-.289-1.065A1.257,1.257,0,0,0,22-6.789a1.463,1.463,0,0,0-1.391.8V0H18.352V-8.453ZM34.586,0H32.32V-8.453h2.266Zm-2.4-10.641a1.112,1.112,0,0,1,.34-.836,1.277,1.277,0,0,1,.926-.328,1.28,1.28,0,0,1,.922.328,1.105,1.105,0,0,1,.344.836,1.108,1.108,0,0,1-.348.844,1.283,1.283,0,0,1-.918.328,1.283,1.283,0,0,1-.918-.328A1.108,1.108,0,0,1,32.188-10.641Zm6.336,2.188.07.977a2.951,2.951,0,0,1,2.43-1.133,2.453,2.453,0,0,1,2,.789A3.682,3.682,0,0,1,43.7-5.461V0H41.438V-5.419a1.47,1.47,0,0,0-.312-1.045,1.4,1.4,0,0,0-1.039-.325,1.553,1.553,0,0,0-1.43.814V0H36.4V-8.453ZM50.3,0a2.507,2.507,0,0,1-.227-.758,2.732,2.732,0,0,1-2.133.914,3,3,0,0,1-2.059-.719,2.312,2.312,0,0,1-.816-1.812,2.389,2.389,0,0,1,1-2.062,4.915,4.915,0,0,1,2.879-.727h1.039v-.484a1.393,1.393,0,0,0-.3-.937,1.183,1.183,0,0,0-.949-.352,1.345,1.345,0,0,0-.895.273.929.929,0,0,0-.324.75H45.258a2.268,2.268,0,0,1,.453-1.359,3,3,0,0,1,1.281-.98,4.669,4.669,0,0,1,1.859-.355,3.689,3.689,0,0,1,2.48.785,2.747,2.747,0,0,1,.918,2.207v3.664a4.041,4.041,0,0,0,.336,1.82V0ZM48.438-1.57a1.945,1.945,0,0,0,.922-.223,1.462,1.462,0,0,0,.625-.6V-3.844h-.844q-1.7,0-1.8,1.172l-.008.133a.9.9,0,0,0,.3.7A1.153,1.153,0,0,0,48.438-1.57Zm10.3-4.766a6.134,6.134,0,0,0-.812-.062,1.654,1.654,0,0,0-1.68.867V0H53.984V-8.453h2.133l.063,1.008a2.092,2.092,0,0,1,1.883-1.164,2.366,2.366,0,0,1,.7.1ZM66.242,0H63.984V-8.453h2.258Zm-.664-11.883h2.461L65.875-9.461H64.039Zm5.313,1.352v2.078h1.445V-6.8H70.891v4.219a1.007,1.007,0,0,0,.18.672.9.9,0,0,0,.688.2,3.6,3.6,0,0,0,.664-.055V-.047a4.648,4.648,0,0,1-1.367.2,2.156,2.156,0,0,1-2.422-2.4V-6.8H67.4V-8.453h1.234v-2.078ZM77.484.156A4.15,4.15,0,0,1,74.457-.984a4.054,4.054,0,0,1-1.168-3.039v-.219a5.106,5.106,0,0,1,.492-2.277,3.612,3.612,0,0,1,1.395-1.547,3.914,3.914,0,0,1,2.059-.543,3.508,3.508,0,0,1,2.73,1.094,4.444,4.444,0,0,1,1,3.1v.922H75.578a2.1,2.1,0,0,0,.66,1.328,2,2,0,0,0,1.395.5,2.437,2.437,0,0,0,2.039-.945l1.109,1.242A3.389,3.389,0,0,1,79.406-.246,4.511,4.511,0,0,1,77.484.156Zm-.258-6.945a1.411,1.411,0,0,0-1.09.455,2.357,2.357,0,0,0-.535,1.3h3.141v-.181a1.681,1.681,0,0,0-.406-1.165A1.456,1.456,0,0,0,77.227-6.789Zm7.133-1.664.07.945a2.971,2.971,0,0,1,2.43-1.1A2.255,2.255,0,0,1,89.1-7.32a2.9,2.9,0,0,1,2.539-1.289,2.521,2.521,0,0,1,2.047.8,3.681,3.681,0,0,1,.672,2.41V0H92.094V-5.4a1.616,1.616,0,0,0-.281-1.053,1.245,1.245,0,0,0-.992-.333,1.409,1.409,0,0,0-1.406.971L89.422,0H87.164V-5.4a1.6,1.6,0,0,0-.289-1.065,1.257,1.257,0,0,0-.984-.329,1.463,1.463,0,0,0-1.391.8V0H82.242V-8.453Z" transform="translate(654 1360)" fill="#c11010"/>
    <path id="Trazado_688648" data-name="Trazado 688648" d="M3.508,0H1.164V-11.375H3.508ZM2.781-14.445H5.242L3.078-12.023H1.242Zm5.453,3.914v2.078H9.68V-6.8H8.234v4.219a1.007,1.007,0,0,0,.18.672.9.9,0,0,0,.688.2,3.6,3.6,0,0,0,.664-.055V-.047A4.648,4.648,0,0,1,8.4.156a2.156,2.156,0,0,1-2.422-2.4V-6.8H4.742V-8.453H5.977v-2.078ZM14.828.156A4.15,4.15,0,0,1,11.8-.984a4.054,4.054,0,0,1-1.168-3.039v-.219a5.106,5.106,0,0,1,.492-2.277A3.612,3.612,0,0,1,12.52-8.066a3.914,3.914,0,0,1,2.059-.543,3.508,3.508,0,0,1,2.73,1.094,4.444,4.444,0,0,1,1,3.1v.922H12.922a2.1,2.1,0,0,0,.66,1.328,2,2,0,0,0,1.395.5,2.437,2.437,0,0,0,2.039-.945l1.109,1.242A3.389,3.389,0,0,1,16.75-.246,4.511,4.511,0,0,1,14.828.156ZM14.57-6.789a1.411,1.411,0,0,0-1.09.455,2.357,2.357,0,0,0-.535,1.3h3.141v-.181a1.681,1.681,0,0,0-.406-1.165A1.456,1.456,0,0,0,14.57-6.789ZM21.7-8.453l.07.945a2.971,2.971,0,0,1,2.43-1.1A2.255,2.255,0,0,1,26.445-7.32a2.9,2.9,0,0,1,2.539-1.289,2.521,2.521,0,0,1,2.047.8A3.681,3.681,0,0,1,31.7-5.4V0H29.438V-5.4a1.616,1.616,0,0,0-.281-1.053,1.245,1.245,0,0,0-.992-.333,1.409,1.409,0,0,0-1.406.971L26.766,0H24.508V-5.4a1.6,1.6,0,0,0-.289-1.065,1.257,1.257,0,0,0-.984-.329,1.463,1.463,0,0,0-1.391.8V0H19.586V-8.453ZM37.07-4.3a5.013,5.013,0,0,1,.484-2.242A3.546,3.546,0,0,1,38.949-8.07a4.069,4.069,0,0,1,2.113-.539,3.849,3.849,0,0,1,2.793,1.047,4.2,4.2,0,0,1,1.207,2.844l.016.578A4.418,4.418,0,0,1,43.992-1.02,3.775,3.775,0,0,1,41.078.156,3.793,3.793,0,0,1,38.16-1.016,4.5,4.5,0,0,1,37.07-4.2Zm2.258.16A3.16,3.16,0,0,0,39.781-2.3a1.5,1.5,0,0,0,1.3.638,1.5,1.5,0,0,0,1.281-.63,3.457,3.457,0,0,0,.461-2.015,3.128,3.128,0,0,0-.461-1.831,1.5,1.5,0,0,0-1.3-.649,1.474,1.474,0,0,0-1.281.646A3.516,3.516,0,0,0,39.328-4.144ZM51.219-6.336a6.134,6.134,0,0,0-.812-.062,1.654,1.654,0,0,0-1.68.867V0H46.469V-8.453H48.6l.063,1.008a2.092,2.092,0,0,1,1.883-1.164,2.366,2.366,0,0,1,.7.1ZM54.688,0H52.422V-8.453h2.266Zm-2.4-10.641a1.112,1.112,0,0,1,.34-.836,1.277,1.277,0,0,1,.926-.328,1.28,1.28,0,0,1,.922.328,1.105,1.105,0,0,1,.344.836,1.108,1.108,0,0,1-.348.844,1.283,1.283,0,0,1-.918.328,1.283,1.283,0,0,1-.918-.328A1.108,1.108,0,0,1,52.289-10.641Zm3.93,6.352a4.954,4.954,0,0,1,.926-3.133,3,3,0,0,1,2.5-1.187,2.631,2.631,0,0,1,2.164.953l.094-.8h2.047V-.281a3.613,3.613,0,0,1-.5,1.93A3.236,3.236,0,0,1,62.023,2.9a4.985,4.985,0,0,1-2.141.43,4.635,4.635,0,0,1-1.812-.371A3.217,3.217,0,0,1,56.734,2l1-1.375a2.645,2.645,0,0,0,2.047.945,1.936,1.936,0,0,0,1.4-.48,1.8,1.8,0,0,0,.5-1.363V-.727a2.612,2.612,0,0,1-2.055.883A2.992,2.992,0,0,1,57.16-1.035a4.953,4.953,0,0,1-.941-3.16Zm2.258.161a3.1,3.1,0,0,0,.461,1.809,1.465,1.465,0,0,0,1.266.655,1.567,1.567,0,0,0,1.477-.777V-6.012a1.563,1.563,0,0,0-1.461-.777,1.474,1.474,0,0,0-1.277.667A3.5,3.5,0,0,0,58.477-4.128ZM68.063,0H65.8V-8.453h2.266Zm-2.4-10.641a1.112,1.112,0,0,1,.34-.836,1.277,1.277,0,0,1,.926-.328,1.28,1.28,0,0,1,.922.328,1.105,1.105,0,0,1,.344.836,1.108,1.108,0,0,1-.348.844,1.283,1.283,0,0,1-.918.328,1.283,1.283,0,0,1-.918-.328A1.108,1.108,0,0,1,65.664-10.641ZM72-8.453l.07.977A2.951,2.951,0,0,1,74.5-8.609a2.453,2.453,0,0,1,2,.789,3.682,3.682,0,0,1,.672,2.359V0H74.914V-5.419A1.47,1.47,0,0,0,74.6-6.464a1.4,1.4,0,0,0-1.039-.325,1.553,1.553,0,0,0-1.43.814V0H69.875V-8.453ZM83.781,0a2.507,2.507,0,0,1-.227-.758,2.732,2.732,0,0,1-2.133.914,3,3,0,0,1-2.059-.719,2.312,2.312,0,0,1-.816-1.812,2.389,2.389,0,0,1,1-2.062,4.915,4.915,0,0,1,2.879-.727h1.039v-.484a1.393,1.393,0,0,0-.3-.937,1.183,1.183,0,0,0-.949-.352,1.345,1.345,0,0,0-.895.273.929.929,0,0,0-.324.75H78.734a2.268,2.268,0,0,1,.453-1.359,3,3,0,0,1,1.281-.98,4.669,4.669,0,0,1,1.859-.355,3.689,3.689,0,0,1,2.48.785,2.747,2.747,0,0,1,.918,2.207v3.664a4.041,4.041,0,0,0,.336,1.82V0ZM81.914-1.57a1.945,1.945,0,0,0,.922-.223,1.462,1.462,0,0,0,.625-.6V-3.844h-.844q-1.7,0-1.8,1.172l-.008.133a.9.9,0,0,0,.3.7A1.153,1.153,0,0,0,81.914-1.57ZM89.844,0H87.578V-12h2.266Zm5.516-4.289a4.954,4.954,0,0,1,.926-3.133,3,3,0,0,1,2.5-1.187,2.631,2.631,0,0,1,2.164.953l.094-.8h2.047V-.281a3.613,3.613,0,0,1-.5,1.93,3.236,3.236,0,0,1-1.418,1.25,4.985,4.985,0,0,1-2.141.43,4.635,4.635,0,0,1-1.812-.371A3.217,3.217,0,0,1,95.875,2l1-1.375a2.645,2.645,0,0,0,2.047.945,1.936,1.936,0,0,0,1.4-.48,1.8,1.8,0,0,0,.5-1.363V-.727a2.612,2.612,0,0,1-2.055.883A2.992,2.992,0,0,1,96.3-1.035a4.953,4.953,0,0,1-.941-3.16Zm2.258.161a3.1,3.1,0,0,0,.461,1.809,1.465,1.465,0,0,0,1.266.655,1.567,1.567,0,0,0,1.477-.777V-6.012a1.563,1.563,0,0,0-1.461-.777,1.474,1.474,0,0,0-1.277.667A3.5,3.5,0,0,0,97.617-4.128ZM109.57-6.336a6.134,6.134,0,0,0-.812-.062,1.654,1.654,0,0,0-1.68.867V0H104.82V-8.453h2.133l.063,1.008A2.092,2.092,0,0,1,108.9-8.609a2.366,2.366,0,0,1,.7.1ZM115.32,0a2.507,2.507,0,0,1-.227-.758,2.732,2.732,0,0,1-2.133.914A3,3,0,0,1,110.9-.562a2.312,2.312,0,0,1-.816-1.812,2.389,2.389,0,0,1,1-2.062,4.915,4.915,0,0,1,2.879-.727H115v-.484a1.393,1.393,0,0,0-.3-.937,1.183,1.183,0,0,0-.949-.352,1.345,1.345,0,0,0-.895.273.929.929,0,0,0-.324.75h-2.258a2.268,2.268,0,0,1,.453-1.359,3,3,0,0,1,1.281-.98,4.669,4.669,0,0,1,1.859-.355,3.689,3.689,0,0,1,2.48.785,2.747,2.747,0,0,1,.918,2.207v3.664a4.041,4.041,0,0,0,.336,1.82V0Zm-1.867-1.57a1.945,1.945,0,0,0,.922-.223,1.462,1.462,0,0,0,.625-.6V-3.844h-.844q-1.7,0-1.8,1.172l-.008.133a.9.9,0,0,0,.3.7A1.153,1.153,0,0,0,113.453-1.57Zm7.625-6.883.07.977a2.951,2.951,0,0,1,2.43-1.133,2.453,2.453,0,0,1,2,.789,3.682,3.682,0,0,1,.672,2.359V0h-2.258V-5.419a1.47,1.47,0,0,0-.312-1.045,1.4,1.4,0,0,0-1.039-.325,1.553,1.553,0,0,0-1.43.814V0h-2.258V-8.453Zm6.531,4.164a5.094,5.094,0,0,1,.887-3.148,2.877,2.877,0,0,1,2.426-1.172,2.589,2.589,0,0,1,2.039.922V-12h2.266V0h-2.039l-.109-.9A2.657,2.657,0,0,1,130.906.156a2.869,2.869,0,0,1-2.395-1.176A5.258,5.258,0,0,1,127.609-4.289Zm2.258.161a3.355,3.355,0,0,0,.414,1.829,1.348,1.348,0,0,0,1.2.636,1.51,1.51,0,0,0,1.477-.887V-5.9a1.489,1.489,0,0,0-1.461-.887Q129.867-6.789,129.867-4.128Zm11,4.285A4.15,4.15,0,0,1,137.84-.984a4.054,4.054,0,0,1-1.168-3.039v-.219a5.106,5.106,0,0,1,.492-2.277,3.612,3.612,0,0,1,1.395-1.547,3.914,3.914,0,0,1,2.059-.543,3.508,3.508,0,0,1,2.73,1.094,4.444,4.444,0,0,1,1,3.1v.922h-5.383a2.1,2.1,0,0,0,.66,1.328,2,2,0,0,0,1.395.5,2.437,2.437,0,0,0,2.039-.945l1.109,1.242a3.389,3.389,0,0,1-1.375,1.121A4.511,4.511,0,0,1,140.867.156Zm-.258-6.945a1.411,1.411,0,0,0-1.09.455,2.357,2.357,0,0,0-.535,1.3h3.141v-.181a1.681,1.681,0,0,0-.406-1.165A1.456,1.456,0,0,0,140.609-6.789Z" transform="translate(435 1305)" fill="#12263f"/>
    <path id="Trazado_688651" data-name="Trazado 688651" d="M2.475-1.073H7.191V0H1.155V-9.953H2.475Z" transform="translate(822 1417)" fill="#12263f"/>
    <path id="Trazado_688650" data-name="Trazado 688650" d="M4.4-6.139,6.788-9.953H8.333L5.188-5.018,8.408,0H6.85L4.4-3.883,1.941,0H.39L3.616-5.018.465-9.953H2Zm6.85,5.065h4.717V0H9.933V-9.953h1.319Z" transform="translate(818 1359)" fill="#12263f"/>
    <path id="Trazado_688647" data-name="Trazado 688647" d="M2.475-1.073H7.191V0H1.155V-9.953H2.475Z" transform="translate(822 1305)" fill="#12263f"/>
    <path id="Trazado_688645" data-name="Trazado 688645" d="M2.851-9.953,6.1-1.832,9.358-9.953h1.7V0H9.748V-3.876L9.871-8.06,6.6,0h-1L2.338-8.039l.13,4.163V0H1.155V-9.953Z" transform="translate(820 1248)" fill="#12263f"/>
    <path id="Trazado_688644" data-name="Trazado 688644" d="M6.166-3.343H7.547v1.032H6.166V0H4.895V-2.311H.362v-.745l4.457-6.9H6.166Zm-4.368,0h3.1V-8.224l-.15.273Zm13.132-.9a5.784,5.784,0,0,1-.759,3.3A2.7,2.7,0,0,1,11.8.137,2.718,2.718,0,0,1,9.44-.919a5.49,5.49,0,0,1-.793-3.155V-5.763a5.655,5.655,0,0,1,.759-3.261,2.719,2.719,0,0,1,2.379-1.066A2.744,2.744,0,0,1,14.15-9.061a5.458,5.458,0,0,1,.779,3.175ZM13.665-5.975a4.634,4.634,0,0,0-.451-2.341,1.553,1.553,0,0,0-1.429-.735,1.532,1.532,0,0,0-1.415.731A4.525,4.525,0,0,0,9.912-6.07v2.023a4.708,4.708,0,0,0,.468,2.382A1.55,1.55,0,0,0,11.8-.9,1.529,1.529,0,0,0,13.19-1.62,4.538,4.538,0,0,0,13.665-3.9Z" transform="translate(820 1199)" fill="#12263f"/>
    <g id="Grupo_167891" data-name="Grupo 167891" transform="translate(-267.058 143.809)">
      <g id="Grupo_167884-2" data-name="Grupo 167884" transform="translate(266 52)">
        <path id="Trazado_100564-6" data-name="Trazado 100564" d="M-7494.04-10748.3l57.626-57.68-251.08-4.979-63.448,62.448Z" transform="translate(8376 11684)" fill="#76c46b" stroke="#6984b4" stroke-linejoin="round" stroke-width="1"/>
        <path id="Trazado_100565-6" data-name="Trazado 100565" d="M-7750.942-10748.306v35.314H-7494.2v-35.23Z" transform="translate(8376 11684)" fill="#50b547" stroke="#6984b4" stroke-width="1"/>
        <path id="Trazado_100566-6" data-name="Trazado 100566" d="M-7436.382-10824.963v34.6l-57.889,58.533.073-35.723Z" transform="translate(8376 11703)" fill="#3f9239" stroke="#6984b4" stroke-linejoin="bevel" stroke-width="1"/>
      </g>
    </g>
    <path id="Trazado_688642" data-name="Trazado 688642" d="M6.166-3.343H7.547v1.032H6.166V0H4.895V-2.311H.362v-.745l4.457-6.9H6.166Zm-4.368,0h3.1V-8.224l-.15.273Zm13.132-.9a5.784,5.784,0,0,1-.759,3.3A2.7,2.7,0,0,1,11.8.137,2.718,2.718,0,0,1,9.44-.919a5.49,5.49,0,0,1-.793-3.155V-5.763a5.655,5.655,0,0,1,.759-3.261,2.719,2.719,0,0,1,2.379-1.066A2.744,2.744,0,0,1,14.15-9.061a5.458,5.458,0,0,1,.779,3.175ZM13.665-5.975a4.634,4.634,0,0,0-.451-2.341,1.553,1.553,0,0,0-1.429-.735,1.532,1.532,0,0,0-1.415.731A4.525,4.525,0,0,0,9.912-6.07v2.023a4.708,4.708,0,0,0,.468,2.382A1.55,1.55,0,0,0,11.8-.9,1.529,1.529,0,0,0,13.19-1.62,4.538,4.538,0,0,0,13.665-3.9Z" transform="translate(820 1157)" fill="#12263f"/>
    <g id="Grupo_167892" data-name="Grupo 167892" transform="translate(-267.058 100.809)">
      <g id="Grupo_167884-3" data-name="Grupo 167884" transform="translate(266 52)">
        <path id="Trazado_100564-7" data-name="Trazado 100564" d="M-7494.04-10748.3l57.626-57.68-251.08-4.979-63.448,62.448Z" transform="translate(8376 11684)" fill="#c1d1ed" stroke="#6984b4" stroke-linejoin="round" stroke-width="1"/>
        <path id="Trazado_100565-7" data-name="Trazado 100565" d="M-7750.942-10748.306v35.314H-7494.2v-35.23Z" transform="translate(8376 11684)" fill="#b2c5e9" stroke="#6984b4" stroke-width="1"/>
        <path id="Trazado_100566-7" data-name="Trazado 100566" d="M-7436.382-10824.963v34.6l-57.889,58.533.073-35.723Z" transform="translate(8376 11703)" fill="#8f9fbb" stroke="#6984b4" stroke-linejoin="bevel" stroke-width="1"/>
      </g>
    </g>
    <text id="_13" data-name="13" transform="translate(820 1114)" fill="#12263f" font-size="14" font-family="Roboto-Regular, Roboto"><tspan x="0" y="0">13</tspan></text>
    <g id="Grupo_167894" data-name="Grupo 167894" transform="translate(-267.058 100.809)">
      <g id="Grupo_167884-4" data-name="Grupo 167884" transform="translate(266 52)">
        <path id="Trazado_100564-8" data-name="Trazado 100564" d="M-7494.04-10748.3l57.626-57.68-251.08-4.979-63.448,62.448Z" transform="translate(8376 11684)" fill="#c1d1ed" stroke="#6984b4" stroke-linejoin="round" stroke-width="1"/>
        <path id="Trazado_100565-8" data-name="Trazado 100565" d="M-7750.942-10748.306v35.314H-7494.2v-35.23Z" transform="translate(8376 11684)" fill="#b2c5e9" stroke="#6984b4" stroke-width="1"/>
        <path id="Trazado_100566-8" data-name="Trazado 100566" d="M-7436.382-10824.963v34.6l-57.889,58.533.073-35.723Z" transform="translate(8376 11703)" fill="#8f9fbb" stroke="#6984b4" stroke-linejoin="bevel" stroke-width="1"/>
      </g>
    </g>
    <path id="Trazado_688641" data-name="Trazado 688641" d="M4.983,0H3.712V-8.429l-2.55.937V-8.641L4.785-10h.2Zm5.544-5.592h.95a2.088,2.088,0,0,0,1.408-.472A1.576,1.576,0,0,0,13.4-7.3a1.544,1.544,0,0,0-1.743-1.75,1.813,1.813,0,0,0-1.309.468,1.639,1.639,0,0,0-.489,1.241H8.593a2.539,2.539,0,0,1,.865-1.965,3.15,3.15,0,0,1,2.2-.783,3.113,3.113,0,0,1,2.208.745,2.692,2.692,0,0,1,.8,2.071,2.185,2.185,0,0,1-.42,1.258,2.538,2.538,0,0,1-1.145.909,2.446,2.446,0,0,1,1.268.861,2.392,2.392,0,0,1,.448,1.47,2.715,2.715,0,0,1-.875,2.126,3.277,3.277,0,0,1-2.276.786,3.363,3.363,0,0,1-2.28-.759,2.517,2.517,0,0,1-.878-2H9.775a1.627,1.627,0,0,0,.513,1.258A1.95,1.95,0,0,0,11.662-.9a1.914,1.914,0,0,0,1.4-.479,1.844,1.844,0,0,0,.485-1.374,1.673,1.673,0,0,0-.533-1.333,2.323,2.323,0,0,0-1.538-.479h-.95Z" transform="translate(820 1114)" fill="#12263f"/>
    <g id="Grupo_167895" data-name="Grupo 167895" transform="translate(-267.058 58.809)">
      <g id="Grupo_167884-5" data-name="Grupo 167884" transform="translate(266 52)">
        <path id="Trazado_100564-9" data-name="Trazado 100564" d="M-7494.04-10748.3l57.626-57.68-251.08-4.979-63.448,62.448Z" transform="translate(8376 11684)" fill="#76c46b" stroke="#6984b4" stroke-linejoin="round" stroke-width="1"/>
        <path id="Trazado_100565-9" data-name="Trazado 100565" d="M-7750.942-10748.306v35.314H-7494.2v-35.23Z" transform="translate(8376 11684)" fill="#50b547" stroke="#6984b4" stroke-width="1"/>
        <path id="Trazado_100566-9" data-name="Trazado 100566" d="M-7436.382-10824.963v34.6l-57.889,58.533.073-35.723Z" transform="translate(8376 11703)" fill="#3f9239" stroke="#6984b4" stroke-linejoin="bevel" stroke-width="1"/>
      </g>
    </g>
    <path id="Trazado_688640" data-name="Trazado 688640" d="M7.349,0H.827V-.909L4.272-4.737A8.185,8.185,0,0,0,5.329-6.149a2.356,2.356,0,0,0,.291-1.125,1.786,1.786,0,0,0-.472-1.278,1.649,1.649,0,0,0-1.258-.5,1.953,1.953,0,0,0-1.466.537A2.05,2.05,0,0,0,1.9-7.021H.636a2.936,2.936,0,0,1,.885-2.222A3.282,3.282,0,0,1,3.89-10.09a3.153,3.153,0,0,1,2.194.728,2.483,2.483,0,0,1,.807,1.938q0,1.47-1.873,3.5L2.352-1.032h5ZM14.93-4.245a5.784,5.784,0,0,1-.759,3.3A2.7,2.7,0,0,1,11.8.137,2.718,2.718,0,0,1,9.44-.919a5.49,5.49,0,0,1-.793-3.155V-5.763a5.655,5.655,0,0,1,.759-3.261,2.719,2.719,0,0,1,2.379-1.066A2.744,2.744,0,0,1,14.15-9.061a5.458,5.458,0,0,1,.779,3.175ZM13.665-5.975a4.634,4.634,0,0,0-.451-2.341,1.553,1.553,0,0,0-1.429-.735,1.532,1.532,0,0,0-1.415.731A4.525,4.525,0,0,0,9.912-6.07v2.023a4.708,4.708,0,0,0,.468,2.382A1.55,1.55,0,0,0,11.8-.9,1.529,1.529,0,0,0,13.19-1.62,4.538,4.538,0,0,0,13.665-3.9Z" transform="translate(820 1072)" fill="#12263f"/>
    <g id="Grupo_167896" data-name="Grupo 167896" transform="translate(0 68)">
      <path id="Trazado_100564-10" data-name="Trazado 100564" d="M-7498.04-10748.3l61.658-62.658h-251.112l-63.448,62.448Z" transform="translate(8376 11700)" fill="#c6dff2" stroke="#6984b4" stroke-linejoin="round" stroke-width="1"/>
      <path id="Trazado_100565-10" data-name="Trazado 100565" d="M-7750.942-10748.3v19.313h252.6v-19.268Z" transform="translate(8376 11700)" fill="#b8d7f0" stroke="#6984b4" stroke-width="1"/>
      <path id="Trazado_100566-10" data-name="Trazado 100566" d="M-7436.382-10810.963v20.6l-61.792,61.431v-19.574Z" transform="translate(8376 11700)" fill="#94adc0" stroke="#6984b4" stroke-linejoin="bevel" stroke-width="1"/>
    </g>
    <path id="Trazado_688638" data-name="Trazado 688638" d="M2.563,0H1.251V-9.953H2.563ZM6.48-9.187V-7.4H7.861v.978H6.48v4.593a1.027,1.027,0,0,0,.185.667.777.777,0,0,0,.629.222,3.062,3.062,0,0,0,.6-.082V0a3.688,3.688,0,0,1-.971.136A1.575,1.575,0,0,1,5.646-.376a2.2,2.2,0,0,1-.431-1.456V-6.419H3.869V-7.4H5.216V-9.187ZM12.407.137A3.232,3.232,0,0,1,9.96-.851a3.666,3.666,0,0,1-.943-2.642v-.232a4.438,4.438,0,0,1,.42-1.965,3.28,3.28,0,0,1,1.176-1.354,2.956,2.956,0,0,1,1.637-.489,2.77,2.77,0,0,1,2.242.95,4.114,4.114,0,0,1,.8,2.721v.526H10.281a2.629,2.629,0,0,0,.639,1.767A2.009,2.009,0,0,0,12.476-.9a2.2,2.2,0,0,0,1.135-.273,2.851,2.851,0,0,0,.813-.725l.772.6A3.106,3.106,0,0,1,12.407.137ZM12.25-6.494a1.687,1.687,0,0,0-1.285.557,2.708,2.708,0,0,0-.643,1.562h3.705v-.1a2.409,2.409,0,0,0-.52-1.494A1.588,1.588,0,0,0,12.25-6.494Zm5.694-.9.034.82a2.732,2.732,0,0,1,2.194-.957,2.115,2.115,0,0,1,2.112,1.189,2.8,2.8,0,0,1,.96-.861,2.837,2.837,0,0,1,1.4-.328q2.434,0,2.475,2.577V0H25.854V-4.881a1.7,1.7,0,0,0-.362-1.186,1.6,1.6,0,0,0-1.217-.393,1.677,1.677,0,0,0-1.169.42,1.706,1.706,0,0,0-.54,1.131V0H21.294V-4.847A1.411,1.411,0,0,0,19.715-6.46a1.692,1.692,0,0,0-1.7,1.06V0H16.748V-7.4Zm15,2.406.506-4.963h5.1v1.169H34.521l-.3,2.714A3.212,3.212,0,0,1,35.882-6.5a2.746,2.746,0,0,1,2.16.9,3.523,3.523,0,0,1,.8,2.43,3.4,3.4,0,0,1-.831,2.423A3.027,3.027,0,0,1,35.69.137a3.146,3.146,0,0,1-2.153-.731,2.919,2.919,0,0,1-.95-2.023h1.2a2.008,2.008,0,0,0,.608,1.289,1.892,1.892,0,0,0,1.3.434,1.706,1.706,0,0,0,1.384-.6,2.515,2.515,0,0,0,.5-1.661,2.308,2.308,0,0,0-.543-1.6,1.849,1.849,0,0,0-1.446-.6,2.085,2.085,0,0,0-1.3.362l-.335.273Z" transform="translate(682 1035)" fill="#12263f"/>
    <path id="Trazado_688639" data-name="Trazado 688639" d="M6.863-7.355A2.311,2.311,0,0,1,6.47-6.029a2.674,2.674,0,0,1-1.063.909,2.853,2.853,0,0,1,1.234.978A2.46,2.46,0,0,1,7.1-2.687,2.6,2.6,0,0,1,6.224-.629,3.349,3.349,0,0,1,3.931.137a3.334,3.334,0,0,1-2.3-.769A2.613,2.613,0,0,1,.766-2.687a2.533,2.533,0,0,1,.441-1.456,2.744,2.744,0,0,1,1.22-.984,2.608,2.608,0,0,1-1.046-.909A2.344,2.344,0,0,1,1-7.355a2.573,2.573,0,0,1,.807-2,3.026,3.026,0,0,1,2.126-.738,3.029,3.029,0,0,1,2.123.738A2.567,2.567,0,0,1,6.863-7.355ZM5.831-2.714a1.834,1.834,0,0,0-.53-1.36A1.879,1.879,0,0,0,3.917-4.6a1.846,1.846,0,0,0-1.371.52A1.855,1.855,0,0,0,2.03-2.714a1.767,1.767,0,0,0,.5,1.333,1.929,1.929,0,0,0,1.4.485,1.923,1.923,0,0,0,1.395-.489A1.763,1.763,0,0,0,5.831-2.714Zm-1.9-6.337a1.632,1.632,0,0,0-1.207.461,1.7,1.7,0,0,0-.461,1.254,1.687,1.687,0,0,0,.455,1.227,1.613,1.613,0,0,0,1.213.468,1.613,1.613,0,0,0,1.213-.468A1.687,1.687,0,0,0,5.6-7.335a1.687,1.687,0,0,0-.472-1.237A1.609,1.609,0,0,0,3.931-9.051Z" transform="translate(821 1035)" fill="#12263f"/>
    <g id="Grupo_167897" data-name="Grupo 167897" transform="translate(0 42)">
      <path id="Trazado_100564-11" data-name="Trazado 100564" d="M-7498.04-10748.3l61.658-62.658h-251.112l-63.448,62.448Z" transform="translate(8376 11700)" fill="#c6dff2" stroke="#6984b4" stroke-linejoin="round" stroke-width="1"/>
      <path id="Trazado_100565-11" data-name="Trazado 100565" d="M-7750.942-10748.3v19.313h252.6v-19.268Z" transform="translate(8376 11700)" fill="#b8d7f0" stroke="#6984b4" stroke-width="1"/>
      <path id="Trazado_100566-11" data-name="Trazado 100566" d="M-7436.382-10810.963v20.6l-61.792,61.431v-19.574Z" transform="translate(8376 11700)" fill="#94adc0" stroke="#6984b4" stroke-linejoin="bevel" stroke-width="1"/>
    </g>
    <path id="Trazado_688636" data-name="Trazado 688636" d="M2.563,0H1.251V-9.953H2.563ZM6.48-9.187V-7.4H7.861v.978H6.48v4.593a1.027,1.027,0,0,0,.185.667.777.777,0,0,0,.629.222,3.062,3.062,0,0,0,.6-.082V0a3.688,3.688,0,0,1-.971.136A1.575,1.575,0,0,1,5.646-.376a2.2,2.2,0,0,1-.431-1.456V-6.419H3.869V-7.4H5.216V-9.187ZM12.407.137A3.232,3.232,0,0,1,9.96-.851a3.666,3.666,0,0,1-.943-2.642v-.232a4.438,4.438,0,0,1,.42-1.965,3.28,3.28,0,0,1,1.176-1.354,2.956,2.956,0,0,1,1.637-.489,2.77,2.77,0,0,1,2.242.95,4.114,4.114,0,0,1,.8,2.721v.526H10.281a2.629,2.629,0,0,0,.639,1.767A2.009,2.009,0,0,0,12.476-.9a2.2,2.2,0,0,0,1.135-.273,2.851,2.851,0,0,0,.813-.725l.772.6A3.106,3.106,0,0,1,12.407.137ZM12.25-6.494a1.687,1.687,0,0,0-1.285.557,2.708,2.708,0,0,0-.643,1.562h3.705v-.1a2.409,2.409,0,0,0-.52-1.494A1.588,1.588,0,0,0,12.25-6.494Zm5.694-.9.034.82a2.732,2.732,0,0,1,2.194-.957,2.115,2.115,0,0,1,2.112,1.189,2.8,2.8,0,0,1,.96-.861,2.837,2.837,0,0,1,1.4-.328q2.434,0,2.475,2.577V0H25.854V-4.881a1.7,1.7,0,0,0-.362-1.186,1.6,1.6,0,0,0-1.217-.393,1.677,1.677,0,0,0-1.169.42,1.706,1.706,0,0,0-.54,1.131V0H21.294V-4.847A1.411,1.411,0,0,0,19.715-6.46a1.692,1.692,0,0,0-1.7,1.06V0H16.748V-7.4ZM37.7-3.343h1.381v1.032H37.7V0H36.429V-2.311H31.9v-.745l4.457-6.9H37.7Zm-4.368,0h3.1V-8.224l-.15.273Z" transform="translate(682 1009)" fill="#12263f"/>
    <path id="Trazado_688637" data-name="Trazado 688637" d="M1.408-4.99l.506-4.963h5.1v1.169H2.987l-.3,2.714A3.212,3.212,0,0,1,4.348-6.5a2.746,2.746,0,0,1,2.16.9,3.523,3.523,0,0,1,.8,2.43A3.4,3.4,0,0,1,6.477-.749,3.027,3.027,0,0,1,4.156.137,3.146,3.146,0,0,1,2-.595a2.919,2.919,0,0,1-.95-2.023h1.2A2.009,2.009,0,0,0,2.857-1.33a1.892,1.892,0,0,0,1.3.434,1.706,1.706,0,0,0,1.384-.6,2.515,2.515,0,0,0,.5-1.661,2.308,2.308,0,0,0-.543-1.6,1.849,1.849,0,0,0-1.446-.6A2.085,2.085,0,0,0,2.755-5L2.42-4.73Z" transform="translate(821 1009)" fill="#12263f"/>
    <g id="Grupo_167898" data-name="Grupo 167898" transform="translate(0 15)">
      <path id="Trazado_100564-12" data-name="Trazado 100564" d="M-7498.04-10748.3l61.658-62.658h-251.112l-63.448,62.448Z" transform="translate(8376 11700)" fill="#d3d3d3" stroke="#9d9d9d" stroke-linejoin="round" stroke-width="1"/>
      <path id="Trazado_100565-12" data-name="Trazado 100565" d="M-7750.942-10748.3v19.313h252.6v-19.268Z" transform="translate(8376 11700)" fill="#c2c2c2" stroke="#9d9d9d" stroke-width="1"/>
      <path id="Trazado_100566-12" data-name="Trazado 100566" d="M-7436.382-10810.963v20.6l-61.792,61.431v-19.574Z" transform="translate(8376 11700)" fill="#9e9e9e" stroke="#9d9d9d" stroke-linejoin="bevel" stroke-width="1"/>
    </g>
    <g id="Grupo_167883" data-name="Grupo 167883" transform="translate(0 -12)">
      <path id="Trazado_100564-13" data-name="Trazado 100564" d="M-7498.04-10748.3l61.658-62.658h-251.112l-63.448,62.448Z" transform="translate(8376 11700)" fill="#c6dff2" stroke="#6984b4" stroke-linejoin="round" stroke-width="1"/>
      <path id="Trazado_100565-13" data-name="Trazado 100565" d="M-7750.942-10748.3v19.313h252.6v-19.268Z" transform="translate(8376 11700)" fill="#b8d7f0" stroke="#6984b4" stroke-width="1"/>
      <path id="Trazado_100566-13" data-name="Trazado 100566" d="M-7436.382-10810.963v20.6l-61.792,61.431v-19.574Z" transform="translate(8376 11700)" fill="#94adc0" stroke="#6984b4" stroke-linejoin="bevel" stroke-width="1"/>
    </g>
    <g id="Grupo_167882" data-name="Grupo 167882" transform="translate(0 -38)">
      <path id="Trazado_100564-14" data-name="Trazado 100564" d="M-7498.04-10748.3l61.658-62.658h-251.112l-63.448,62.448Z" transform="translate(8376 11700)" fill="#c6dff2" stroke="#6984b4" stroke-linejoin="round" stroke-width="1"/>
      <path id="Trazado_100565-14" data-name="Trazado 100565" d="M-7750.942-10748.3v19.313h252.6v-19.268Z" transform="translate(8376 11700)" fill="#b8d7f0" stroke="#6984b4" stroke-width="1"/>
      <path id="Trazado_100566-14" data-name="Trazado 100566" d="M-7436.382-10810.963v20.6l-61.792,61.431v-19.574Z" transform="translate(8376 11700)" fill="#94adc0" stroke="#6984b4" stroke-linejoin="bevel" stroke-width="1"/>
    </g>
    <path id="Trazado_688627" data-name="Trazado 688627" d="M3.508,0H1.164V-11.375H3.508ZM8.234-10.531v2.078H9.68V-6.8H8.234v4.219a1.007,1.007,0,0,0,.18.672.9.9,0,0,0,.688.2,3.6,3.6,0,0,0,.664-.055V-.047A4.648,4.648,0,0,1,8.4.156a2.156,2.156,0,0,1-2.422-2.4V-6.8H4.742V-8.453H5.977v-2.078ZM14.828.156A4.15,4.15,0,0,1,11.8-.984a4.054,4.054,0,0,1-1.168-3.039v-.219a5.106,5.106,0,0,1,.492-2.277A3.612,3.612,0,0,1,12.52-8.066a3.914,3.914,0,0,1,2.059-.543,3.508,3.508,0,0,1,2.73,1.094,4.444,4.444,0,0,1,1,3.1v.922H12.922a2.1,2.1,0,0,0,.66,1.328,2,2,0,0,0,1.395.5,2.437,2.437,0,0,0,2.039-.945l1.109,1.242A3.389,3.389,0,0,1,16.75-.246,4.511,4.511,0,0,1,14.828.156ZM14.57-6.789a1.411,1.411,0,0,0-1.09.455,2.357,2.357,0,0,0-.535,1.3h3.141v-.181a1.681,1.681,0,0,0-.406-1.165A1.456,1.456,0,0,0,14.57-6.789ZM21.7-8.453l.07.945a2.971,2.971,0,0,1,2.43-1.1A2.255,2.255,0,0,1,26.445-7.32a2.9,2.9,0,0,1,2.539-1.289,2.521,2.521,0,0,1,2.047.8A3.681,3.681,0,0,1,31.7-5.4V0H29.438V-5.4a1.616,1.616,0,0,0-.281-1.053,1.245,1.245,0,0,0-.992-.333,1.409,1.409,0,0,0-1.406.971L26.766,0H24.508V-5.4a1.6,1.6,0,0,0-.289-1.065,1.257,1.257,0,0,0-.984-.329,1.463,1.463,0,0,0-1.391.8V0H19.586V-8.453ZM38.016-2.336a.727.727,0,0,0-.41-.652,4.659,4.659,0,0,0-1.316-.426q-3.016-.633-3.016-2.562a2.323,2.323,0,0,1,.934-1.879,3.766,3.766,0,0,1,2.441-.754,4.053,4.053,0,0,1,2.574.758,2.388,2.388,0,0,1,.965,1.969H37.93a1.092,1.092,0,0,0-.312-.8A1.322,1.322,0,0,0,36.641-7a1.351,1.351,0,0,0-.883.258.814.814,0,0,0-.312.656.7.7,0,0,0,.355.605,3.657,3.657,0,0,0,1.2.4,9.8,9.8,0,0,1,1.422.379A2.336,2.336,0,0,1,40.211-2.43a2.2,2.2,0,0,1-.992,1.871,4.28,4.28,0,0,1-2.562.715A4.47,4.47,0,0,1,34.77-.223a3.166,3.166,0,0,1-1.293-1.039,2.414,2.414,0,0,1-.469-1.426h2.141a1.179,1.179,0,0,0,.445.922,1.766,1.766,0,0,0,1.109.32,1.635,1.635,0,0,0,.98-.246A.766.766,0,0,0,38.016-2.336Z" transform="translate(685 892)" fill="#12263f"/>
    <path id="Trazado_688628" data-name="Trazado 688628" d="M9.578-9.477H6.094V0H3.75V-9.477H.313v-1.9H9.578ZM14.352,0a2.507,2.507,0,0,1-.227-.758,2.732,2.732,0,0,1-2.133.914A3,3,0,0,1,9.934-.562a2.312,2.312,0,0,1-.816-1.812,2.389,2.389,0,0,1,1-2.062,4.915,4.915,0,0,1,2.879-.727h1.039v-.484a1.393,1.393,0,0,0-.3-.937,1.183,1.183,0,0,0-.949-.352,1.345,1.345,0,0,0-.895.273.929.929,0,0,0-.324.75H9.3a2.268,2.268,0,0,1,.453-1.359,3,3,0,0,1,1.281-.98A4.669,4.669,0,0,1,12.9-8.609a3.689,3.689,0,0,1,2.48.785A2.747,2.747,0,0,1,16.3-5.617v3.664a4.041,4.041,0,0,0,.336,1.82V0ZM12.484-1.57a1.945,1.945,0,0,0,.922-.223,1.462,1.462,0,0,0,.625-.6V-3.844h-.844q-1.7,0-1.8,1.172l-.008.133a.9.9,0,0,0,.3.7A1.153,1.153,0,0,0,12.484-1.57Zm7.664-6.883.07.945a2.971,2.971,0,0,1,2.43-1.1A2.255,2.255,0,0,1,24.891-7.32,2.9,2.9,0,0,1,27.43-8.609a2.521,2.521,0,0,1,2.047.8,3.681,3.681,0,0,1,.672,2.41V0H27.883V-5.4A1.616,1.616,0,0,0,27.6-6.456a1.245,1.245,0,0,0-.992-.333,1.409,1.409,0,0,0-1.406.971L25.211,0H22.953V-5.4a1.6,1.6,0,0,0-.289-1.065,1.257,1.257,0,0,0-.984-.329,1.463,1.463,0,0,0-1.391.8V0H18.031V-8.453ZM36.781,0a2.507,2.507,0,0,1-.227-.758,2.732,2.732,0,0,1-2.133.914,3,3,0,0,1-2.059-.719,2.312,2.312,0,0,1-.816-1.812,2.389,2.389,0,0,1,1-2.062,4.915,4.915,0,0,1,2.879-.727h1.039v-.484a1.393,1.393,0,0,0-.3-.937,1.183,1.183,0,0,0-.949-.352,1.345,1.345,0,0,0-.895.273.929.929,0,0,0-.324.75H31.734a2.268,2.268,0,0,1,.453-1.359,3,3,0,0,1,1.281-.98,4.669,4.669,0,0,1,1.859-.355,3.689,3.689,0,0,1,2.48.785,2.747,2.747,0,0,1,.918,2.207v3.664a4.041,4.041,0,0,0,.336,1.82V0ZM34.914-1.57a1.945,1.945,0,0,0,.922-.223,1.462,1.462,0,0,0,.625-.6V-3.844h-.844q-1.7,0-1.8,1.172l-.008.133a.9.9,0,0,0,.3.7A1.153,1.153,0,0,0,34.914-1.57Zm7.625-6.883.07.977a2.951,2.951,0,0,1,2.43-1.133,2.453,2.453,0,0,1,2,.789,3.682,3.682,0,0,1,.672,2.359V0H45.453V-5.419a1.47,1.47,0,0,0-.312-1.045A1.4,1.4,0,0,0,44.1-6.789a1.553,1.553,0,0,0-1.43.814V0H40.414V-8.453ZM47.023-11.9a2.187,2.187,0,0,1-.516,1.48,1.6,1.6,0,0,1-1.258.6,1.908,1.908,0,0,1-.527-.066,3.539,3.539,0,0,1-.637-.285,3.435,3.435,0,0,0-.586-.27,1.432,1.432,0,0,0-.391-.051.627.627,0,0,0-.465.2.759.759,0,0,0-.191.555L41.141-9.82a2.22,2.22,0,0,1,.512-1.477,1.578,1.578,0,0,1,1.254-.609,1.614,1.614,0,0,1,.441.059,4.861,4.861,0,0,1,.676.285,4.392,4.392,0,0,0,.648.273,1.48,1.48,0,0,0,.375.047.659.659,0,0,0,.473-.191.728.728,0,0,0,.2-.551ZM49.07-4.3a5.013,5.013,0,0,1,.484-2.242A3.546,3.546,0,0,1,50.949-8.07a4.069,4.069,0,0,1,2.113-.539,3.849,3.849,0,0,1,2.793,1.047,4.2,4.2,0,0,1,1.207,2.844l.016.578A4.418,4.418,0,0,1,55.992-1.02,3.775,3.775,0,0,1,53.078.156,3.793,3.793,0,0,1,50.16-1.016,4.5,4.5,0,0,1,49.07-4.2Zm2.258.16A3.16,3.16,0,0,0,51.781-2.3a1.5,1.5,0,0,0,1.3.638,1.5,1.5,0,0,0,1.281-.63,3.457,3.457,0,0,0,.461-2.015,3.128,3.128,0,0,0-.461-1.831,1.5,1.5,0,0,0-1.3-.649,1.474,1.474,0,0,0-1.281.646A3.516,3.516,0,0,0,51.328-4.144Z" transform="translate(801 892)" fill="#12263f"/>
    <path id="Trazado_688630" data-name="Trazado 688630" d="M2.563,0H1.251V-9.953H2.563ZM6.48-9.187V-7.4H7.861v.978H6.48v4.593a1.027,1.027,0,0,0,.185.667.777.777,0,0,0,.629.222,3.062,3.062,0,0,0,.6-.082V0a3.688,3.688,0,0,1-.971.136A1.575,1.575,0,0,1,5.646-.376a2.2,2.2,0,0,1-.431-1.456V-6.419H3.869V-7.4H5.216V-9.187ZM12.407.137A3.232,3.232,0,0,1,9.96-.851a3.666,3.666,0,0,1-.943-2.642v-.232a4.438,4.438,0,0,1,.42-1.965,3.28,3.28,0,0,1,1.176-1.354,2.956,2.956,0,0,1,1.637-.489,2.77,2.77,0,0,1,2.242.95,4.114,4.114,0,0,1,.8,2.721v.526H10.281a2.629,2.629,0,0,0,.639,1.767A2.009,2.009,0,0,0,12.476-.9a2.2,2.2,0,0,0,1.135-.273,2.851,2.851,0,0,0,.813-.725l.772.6A3.106,3.106,0,0,1,12.407.137ZM12.25-6.494a1.687,1.687,0,0,0-1.285.557,2.708,2.708,0,0,0-.643,1.562h3.705v-.1a2.409,2.409,0,0,0-.52-1.494A1.588,1.588,0,0,0,12.25-6.494Zm5.694-.9.034.82a2.732,2.732,0,0,1,2.194-.957,2.115,2.115,0,0,1,2.112,1.189,2.8,2.8,0,0,1,.96-.861,2.837,2.837,0,0,1,1.4-.328q2.434,0,2.475,2.577V0H25.854V-4.881a1.7,1.7,0,0,0-.362-1.186,1.6,1.6,0,0,0-1.217-.393,1.677,1.677,0,0,0-1.169.42,1.706,1.706,0,0,0-.54,1.131V0H21.294V-4.847A1.411,1.411,0,0,0,19.715-6.46a1.692,1.692,0,0,0-1.7,1.06V0H16.748V-7.4ZM36.518,0H35.246V-8.429l-2.55.937V-8.641L36.319-10h.2Z" transform="translate(682 929)" fill="#12263f"/>
    <path id="Trazado_688629" data-name="Trazado 688629" d="M2.666-5.592h.95a2.088,2.088,0,0,0,1.408-.472A1.576,1.576,0,0,0,5.537-7.3a1.544,1.544,0,0,0-1.743-1.75,1.813,1.813,0,0,0-1.309.468A1.639,1.639,0,0,0,2-7.342H.731A2.539,2.539,0,0,1,1.6-9.307a3.15,3.15,0,0,1,2.2-.783A3.113,3.113,0,0,1,6-9.345a2.692,2.692,0,0,1,.8,2.071,2.185,2.185,0,0,1-.42,1.258,2.538,2.538,0,0,1-1.145.909A2.446,2.446,0,0,1,6.5-4.245a2.392,2.392,0,0,1,.448,1.47A2.715,2.715,0,0,1,6.077-.649,3.277,3.277,0,0,1,3.8.137a3.363,3.363,0,0,1-2.28-.759,2.517,2.517,0,0,1-.878-2H1.914a1.627,1.627,0,0,0,.513,1.258A1.95,1.95,0,0,0,3.8-.9a1.914,1.914,0,0,0,1.4-.479,1.844,1.844,0,0,0,.485-1.374,1.673,1.673,0,0,0-.533-1.333A2.323,2.323,0,0,0,3.616-4.56h-.95Z" transform="translate(821 929)" fill="#12263f"/>
    <path id="Trazado_688631" data-name="Trazado 688631" d="M2.563,0H1.251V-9.953H2.563ZM6.48-9.187V-7.4H7.861v.978H6.48v4.593a1.027,1.027,0,0,0,.185.667.777.777,0,0,0,.629.222,3.062,3.062,0,0,0,.6-.082V0a3.688,3.688,0,0,1-.971.136A1.575,1.575,0,0,1,5.646-.376a2.2,2.2,0,0,1-.431-1.456V-6.419H3.869V-7.4H5.216V-9.187ZM12.407.137A3.232,3.232,0,0,1,9.96-.851a3.666,3.666,0,0,1-.943-2.642v-.232a4.438,4.438,0,0,1,.42-1.965,3.28,3.28,0,0,1,1.176-1.354,2.956,2.956,0,0,1,1.637-.489,2.77,2.77,0,0,1,2.242.95,4.114,4.114,0,0,1,.8,2.721v.526H10.281a2.629,2.629,0,0,0,.639,1.767A2.009,2.009,0,0,0,12.476-.9a2.2,2.2,0,0,0,1.135-.273,2.851,2.851,0,0,0,.813-.725l.772.6A3.106,3.106,0,0,1,12.407.137ZM12.25-6.494a1.687,1.687,0,0,0-1.285.557,2.708,2.708,0,0,0-.643,1.562h3.705v-.1a2.409,2.409,0,0,0-.52-1.494A1.588,1.588,0,0,0,12.25-6.494Zm5.694-.9.034.82a2.732,2.732,0,0,1,2.194-.957,2.115,2.115,0,0,1,2.112,1.189,2.8,2.8,0,0,1,.96-.861,2.837,2.837,0,0,1,1.4-.328q2.434,0,2.475,2.577V0H25.854V-4.881a1.7,1.7,0,0,0-.362-1.186,1.6,1.6,0,0,0-1.217-.393,1.677,1.677,0,0,0-1.169.42,1.706,1.706,0,0,0-.54,1.131V0H21.294V-4.847A1.411,1.411,0,0,0,19.715-6.46a1.692,1.692,0,0,0-1.7,1.06V0H16.748V-7.4ZM38.883,0H32.361V-.909l3.445-3.828a8.185,8.185,0,0,0,1.056-1.412,2.356,2.356,0,0,0,.291-1.125,1.786,1.786,0,0,0-.472-1.278,1.649,1.649,0,0,0-1.258-.5,1.953,1.953,0,0,0-1.466.537,2.05,2.05,0,0,0-.523,1.494H32.17a2.936,2.936,0,0,1,.885-2.222,3.282,3.282,0,0,1,2.369-.848,3.153,3.153,0,0,1,2.194.728,2.483,2.483,0,0,1,.807,1.938q0,1.47-1.873,3.5L33.886-1.032h5Z" transform="translate(682 955)" fill="#12263f"/>
    <path id="Trazado_688632" data-name="Trazado 688632" d="M4.983,0H3.712V-8.429l-2.55.937V-8.641L4.785-10h.2Z" transform="translate(821 955)" fill="#12263f"/>
    <g id="Grupo_167885" data-name="Grupo 167885" transform="translate(-2 -38)">
      <g id="Grupo_167884-6" data-name="Grupo 167884" transform="translate(266 52)">
        <path id="Trazado_100564-15" data-name="Trazado 100564" d="M-7498.04-10748.3l61.658-62.658h-251.112l-63.448,62.448Z" transform="translate(8376 11700)" fill="#c6dff2" stroke="#6984b4" stroke-linejoin="round" stroke-width="1"/>
        <path id="Trazado_100565-15" data-name="Trazado 100565" d="M-7750.942-10748.3v19.313h252.6v-19.268Z" transform="translate(8376 11700)" fill="#b8d7f0" stroke="#6984b4" stroke-width="1"/>
        <path id="Trazado_100566-15" data-name="Trazado 100566" d="M-7436.382-10810.963v20.6l-61.792,61.431v-19.574Z" transform="translate(8376 11700)" fill="#94adc0" stroke="#6984b4" stroke-linejoin="bevel" stroke-width="1"/>
      </g>
      <path id="Trazado_688633" data-name="Trazado 688633" d="M3.508,0H1.164V-11.375H3.508Zm4.1-8.453.07.977a2.951,2.951,0,0,1,2.43-1.133,2.453,2.453,0,0,1,2,.789,3.682,3.682,0,0,1,.672,2.359V0H10.523V-5.419a1.47,1.47,0,0,0-.312-1.045,1.4,1.4,0,0,0-1.039-.325,1.553,1.553,0,0,0-1.43.814V0H5.484V-8.453ZM19.07-2.336a.727.727,0,0,0-.41-.652,4.659,4.659,0,0,0-1.316-.426q-3.016-.633-3.016-2.562a2.323,2.323,0,0,1,.934-1.879A3.766,3.766,0,0,1,17.7-8.609a4.053,4.053,0,0,1,2.574.758,2.388,2.388,0,0,1,.965,1.969H18.984a1.092,1.092,0,0,0-.312-.8A1.322,1.322,0,0,0,17.7-7a1.351,1.351,0,0,0-.883.258.814.814,0,0,0-.312.656.7.7,0,0,0,.355.605,3.657,3.657,0,0,0,1.2.4,9.8,9.8,0,0,1,1.422.379A2.336,2.336,0,0,1,21.266-2.43a2.2,2.2,0,0,1-.992,1.871,4.28,4.28,0,0,1-2.562.715,4.47,4.47,0,0,1-1.887-.379,3.166,3.166,0,0,1-1.293-1.039,2.414,2.414,0,0,1-.469-1.426H16.2a1.179,1.179,0,0,0,.445.922,1.766,1.766,0,0,0,1.109.32,1.635,1.635,0,0,0,.98-.246A.766.766,0,0,0,19.07-2.336ZM26.609.156A4.15,4.15,0,0,1,23.582-.984a4.054,4.054,0,0,1-1.168-3.039v-.219a5.106,5.106,0,0,1,.492-2.277A3.612,3.612,0,0,1,24.3-8.066a3.914,3.914,0,0,1,2.059-.543,3.508,3.508,0,0,1,2.73,1.094,4.444,4.444,0,0,1,1,3.1v.922H24.7a2.1,2.1,0,0,0,.66,1.328,2,2,0,0,0,1.395.5A2.437,2.437,0,0,0,28.8-2.609l1.109,1.242A3.389,3.389,0,0,1,28.531-.246,4.511,4.511,0,0,1,26.609.156Zm-.258-6.945a1.411,1.411,0,0,0-1.09.455,2.357,2.357,0,0,0-.535,1.3h3.141v-.181a1.681,1.681,0,0,0-.406-1.165A1.456,1.456,0,0,0,26.352-6.789Zm9.766.453A6.134,6.134,0,0,0,35.3-6.4a1.654,1.654,0,0,0-1.68.867V0H31.367V-8.453H33.5l.063,1.008a2.092,2.092,0,0,1,1.883-1.164,2.366,2.366,0,0,1,.7.1Zm4.18-4.2v2.078h1.445V-6.8H40.3v4.219a1.007,1.007,0,0,0,.18.672.9.9,0,0,0,.688.2,3.6,3.6,0,0,0,.664-.055V-.047a4.648,4.648,0,0,1-1.367.2,2.156,2.156,0,0,1-2.422-2.4V-6.8H36.8V-8.453h1.234v-2.078ZM47.9,0a2.507,2.507,0,0,1-.227-.758,2.732,2.732,0,0,1-2.133.914A3,3,0,0,1,43.48-.562a2.312,2.312,0,0,1-.816-1.812,2.389,2.389,0,0,1,1-2.062,4.915,4.915,0,0,1,2.879-.727h1.039v-.484a1.393,1.393,0,0,0-.3-.937,1.183,1.183,0,0,0-.949-.352,1.345,1.345,0,0,0-.895.273.929.929,0,0,0-.324.75H42.852A2.268,2.268,0,0,1,43.3-7.273a3,3,0,0,1,1.281-.98,4.669,4.669,0,0,1,1.859-.355,3.689,3.689,0,0,1,2.48.785,2.747,2.747,0,0,1,.918,2.207v3.664a4.041,4.041,0,0,0,.336,1.82V0ZM46.031-1.57a1.945,1.945,0,0,0,.922-.223,1.462,1.462,0,0,0,.625-.6V-3.844h-.844q-1.7,0-1.8,1.172l-.008.133a.9.9,0,0,0,.3.7A1.153,1.153,0,0,0,46.031-1.57Zm10.3-4.766a6.134,6.134,0,0,0-.812-.062,1.654,1.654,0,0,0-1.68.867V0H51.578V-8.453h2.133l.063,1.008a2.092,2.092,0,0,1,1.883-1.164,2.366,2.366,0,0,1,.7.1Zm7.148-2.117.07.977a2.951,2.951,0,0,1,2.43-1.133,2.453,2.453,0,0,1,2,.789,3.682,3.682,0,0,1,.672,2.359V0H66.391V-5.419a1.47,1.47,0,0,0-.312-1.045,1.4,1.4,0,0,0-1.039-.325,1.553,1.553,0,0,0-1.43.814V0H61.352V-8.453ZM75.422-.859A2.831,2.831,0,0,1,73.109.156a2.67,2.67,0,0,1-2.074-.781,3.335,3.335,0,0,1-.73-2.289V-8.453h2.258v5.467q0,1.322,1.2,1.322a1.63,1.63,0,0,0,1.578-.8V-8.453h2.266V0H75.484ZM83.2.156A4.15,4.15,0,0,1,80.176-.984a4.054,4.054,0,0,1-1.168-3.039v-.219A5.106,5.106,0,0,1,79.5-6.52a3.612,3.612,0,0,1,1.395-1.547,3.914,3.914,0,0,1,2.059-.543,3.508,3.508,0,0,1,2.73,1.094,4.444,4.444,0,0,1,1,3.1v.922H81.3a2.1,2.1,0,0,0,.66,1.328,2,2,0,0,0,1.395.5,2.437,2.437,0,0,0,2.039-.945L86.5-1.367A3.389,3.389,0,0,1,85.125-.246,4.511,4.511,0,0,1,83.2.156Zm-.258-6.945a1.411,1.411,0,0,0-1.09.455,2.357,2.357,0,0,0-.535,1.3h3.141v-.181a1.681,1.681,0,0,0-.406-1.165A1.456,1.456,0,0,0,82.945-6.789Zm8.078,4.031,1.57-5.7h2.359L92.1,0H89.945L87.094-8.453h2.359ZM95.477-4.3a5.013,5.013,0,0,1,.484-2.242A3.546,3.546,0,0,1,97.355-8.07a4.069,4.069,0,0,1,2.113-.539,3.849,3.849,0,0,1,2.793,1.047,4.2,4.2,0,0,1,1.207,2.844l.016.578A4.418,4.418,0,0,1,102.4-1.02,3.775,3.775,0,0,1,99.484.156a3.793,3.793,0,0,1-2.918-1.172A4.5,4.5,0,0,1,95.477-4.2Zm2.258.16A3.16,3.16,0,0,0,98.188-2.3a1.5,1.5,0,0,0,1.3.638,1.5,1.5,0,0,0,1.281-.63,3.457,3.457,0,0,0,.461-2.015,3.128,3.128,0,0,0-.461-1.831,1.5,1.5,0,0,0-1.3-.649,1.474,1.474,0,0,0-1.281.646A3.516,3.516,0,0,0,97.734-4.144ZM111.3,0h-2.258V-8.453H111.3Zm-.664-11.883h2.461L110.93-9.461h-1.836Zm5.313,1.352v2.078h1.445V-6.8h-1.445v4.219a1.007,1.007,0,0,0,.18.672.9.9,0,0,0,.688.2,3.6,3.6,0,0,0,.664-.055V-.047a4.648,4.648,0,0,1-1.367.2,2.156,2.156,0,0,1-2.422-2.4V-6.8h-1.234V-8.453h1.234v-2.078ZM122.539.156a4.15,4.15,0,0,1-3.027-1.141,4.054,4.054,0,0,1-1.168-3.039v-.219a5.106,5.106,0,0,1,.492-2.277,3.612,3.612,0,0,1,1.395-1.547,3.914,3.914,0,0,1,2.059-.543,3.508,3.508,0,0,1,2.73,1.094,4.444,4.444,0,0,1,1,3.1v.922h-5.383a2.1,2.1,0,0,0,.66,1.328,2,2,0,0,0,1.395.5,2.437,2.437,0,0,0,2.039-.945l1.109,1.242a3.389,3.389,0,0,1-1.375,1.121A4.511,4.511,0,0,1,122.539.156Zm-.258-6.945a1.411,1.411,0,0,0-1.09.455,2.357,2.357,0,0,0-.535,1.3H123.8v-.181a1.681,1.681,0,0,0-.406-1.165A1.456,1.456,0,0,0,122.281-6.789Zm7.133-1.664.07.945a2.971,2.971,0,0,1,2.43-1.1,2.255,2.255,0,0,1,2.242,1.289A2.9,2.9,0,0,1,136.7-8.609a2.521,2.521,0,0,1,2.047.8,3.681,3.681,0,0,1,.672,2.41V0h-2.266V-5.4a1.616,1.616,0,0,0-.281-1.053,1.245,1.245,0,0,0-.992-.333,1.409,1.409,0,0,0-1.406.971L134.477,0h-2.258V-5.4a1.6,1.6,0,0,0-.289-1.065,1.257,1.257,0,0,0-.984-.329,1.463,1.463,0,0,0-1.391.8V0H127.3V-8.453Z" transform="translate(969 982)" fill="#12263f"/>
      <path id="Trazado_688634" data-name="Trazado 688634" d="M2.563,0H1.251V-9.953H2.563ZM6.48-9.187V-7.4H7.861v.978H6.48v4.593a1.027,1.027,0,0,0,.185.667.777.777,0,0,0,.629.222,3.062,3.062,0,0,0,.6-.082V0a3.688,3.688,0,0,1-.971.136A1.575,1.575,0,0,1,5.646-.376a2.2,2.2,0,0,1-.431-1.456V-6.419H3.869V-7.4H5.216V-9.187ZM12.407.137A3.232,3.232,0,0,1,9.96-.851a3.666,3.666,0,0,1-.943-2.642v-.232a4.438,4.438,0,0,1,.42-1.965,3.28,3.28,0,0,1,1.176-1.354,2.956,2.956,0,0,1,1.637-.489,2.77,2.77,0,0,1,2.242.95,4.114,4.114,0,0,1,.8,2.721v.526H10.281a2.629,2.629,0,0,0,.639,1.767A2.009,2.009,0,0,0,12.476-.9a2.2,2.2,0,0,0,1.135-.273,2.851,2.851,0,0,0,.813-.725l.772.6A3.106,3.106,0,0,1,12.407.137ZM12.25-6.494a1.687,1.687,0,0,0-1.285.557,2.708,2.708,0,0,0-.643,1.562h3.705v-.1a2.409,2.409,0,0,0-.52-1.494A1.588,1.588,0,0,0,12.25-6.494Zm5.694-.9.034.82a2.732,2.732,0,0,1,2.194-.957,2.115,2.115,0,0,1,2.112,1.189,2.8,2.8,0,0,1,.96-.861,2.837,2.837,0,0,1,1.4-.328q2.434,0,2.475,2.577V0H25.854V-4.881a1.7,1.7,0,0,0-.362-1.186,1.6,1.6,0,0,0-1.217-.393,1.677,1.677,0,0,0-1.169.42,1.706,1.706,0,0,0-.54,1.131V0H21.294V-4.847A1.411,1.411,0,0,0,19.715-6.46a1.692,1.692,0,0,0-1.7,1.06V0H16.748V-7.4Zm15.743,0,.041.93a2.7,2.7,0,0,1,2.215-1.066q2.345,0,2.365,2.646V0H37.044V-4.895a1.7,1.7,0,0,0-.366-1.183,1.466,1.466,0,0,0-1.118-.383,1.825,1.825,0,0,0-1.08.328,2.228,2.228,0,0,0-.725.861V0H32.491V-7.4Z" transform="translate(948 1019)" fill="#12263f"/>
      <path id="Trazado_688635" data-name="Trazado 688635" d="M7.349,0H.827V-.909L4.272-4.737A8.185,8.185,0,0,0,5.329-6.149a2.356,2.356,0,0,0,.291-1.125,1.786,1.786,0,0,0-.472-1.278,1.649,1.649,0,0,0-1.258-.5,1.953,1.953,0,0,0-1.466.537A2.05,2.05,0,0,0,1.9-7.021H.636a2.936,2.936,0,0,1,.885-2.222A3.282,3.282,0,0,1,3.89-10.09a3.153,3.153,0,0,1,2.194.728,2.483,2.483,0,0,1,.807,1.938q0,1.47-1.873,3.5L2.352-1.032h5Z" transform="translate(1087 1019)" fill="#12263f"/>
    </g>
    <path id="Trazado_100567" data-name="Trazado 100567" d="M-7603.626-10800.3v558.6" transform="translate(8377 11675.298)" fill="#fff" stroke="#2c2c2c" stroke-width="2" stroke-dasharray="5"/>
    <g id="Grupo_167900" data-name="Grupo 167900" transform="translate(-5 299.055)">
      <g id="Grupo_167884-7" data-name="Grupo 167884" transform="translate(266 52)">
        <path id="Trazado_100564-16" data-name="Trazado 100564" d="M-7501.245-10743.6l50.032-51.946-248.677-.509-51.052,52.314Z" transform="translate(8376 11700)" fill="#c6dff2" stroke="#6984b4" stroke-linejoin="round" stroke-width="1"/>
        <path id="Trazado_100565-16" data-name="Trazado 100565" d="M-7750.942-10748.3v14.522h250.364v-14.488Z" transform="translate(8376 11704.791)" fill="#b8d7f0" stroke="#6984b4" stroke-width="1"/>
        <path id="Trazado_100566-16" data-name="Trazado 100566" d="M-7451.292-10795.691v19.735l-49.285,47.141v-14.814Z" transform="translate(8376 11700)" fill="#94adc0" stroke="#6984b4" stroke-linejoin="bevel" stroke-width="1"/>
      </g>
    </g>
    <g id="Grupo_167901" data-name="Grupo 167901" transform="translate(-5 281.424)">
      <g id="Grupo_167884-8" data-name="Grupo 167884" transform="translate(266 52)">
        <path id="Trazado_100564-17" data-name="Trazado 100564" d="M-7501.245-10743.6l50.032-51.946-248.677-.509-51.052,52.314Z" transform="translate(8376 11700)" fill="#c6dff2" stroke="#6984b4" stroke-linejoin="round" stroke-width="1"/>
        <path id="Trazado_100565-17" data-name="Trazado 100565" d="M-7750.942-10748.3v14.522h250.364v-14.488Z" transform="translate(8376 11704.791)" fill="#b8d7f0" stroke="#6984b4" stroke-width="1"/>
        <path id="Trazado_100566-17" data-name="Trazado 100566" d="M-7451.292-10795.691v19.735l-49.285,47.141v-14.814Z" transform="translate(8376 11700)" fill="#94adc0" stroke="#6984b4" stroke-linejoin="bevel" stroke-width="1"/>
      </g>
    </g>
    <g id="Grupo_167899" data-name="Grupo 167899" transform="translate(-5 263.555)">
      <g id="Grupo_167884-9" data-name="Grupo 167884" transform="translate(266 52)">
        <path id="Trazado_100564-18" data-name="Trazado 100564" d="M-7501.245-10743.6l50.032-51.946-248.677-.509-51.052,52.314Z" transform="translate(8376 11700)" fill="#c6dff2" stroke="#6984b4" stroke-linejoin="round" stroke-width="1"/>
        <path id="Trazado_100565-18" data-name="Trazado 100565" d="M-7750.942-10748.3v14.522h250.364v-14.488Z" transform="translate(8376 11704.791)" fill="#b8d7f0" stroke="#6984b4" stroke-width="1"/>
        <path id="Trazado_100566-18" data-name="Trazado 100566" d="M-7451.292-10795.691v19.735l-49.285,47.141v-14.814Z" transform="translate(8376 11700)" fill="#94adc0" stroke="#6984b4" stroke-linejoin="bevel" stroke-width="1"/>
      </g>
      <path id="Trazado_688646" data-name="Trazado 688646" d="M3.508,0H1.164V-11.375H3.508ZM2.781-14.445H5.242L3.078-12.023H1.242Zm5.453,3.914v2.078H9.68V-6.8H8.234v4.219a1.007,1.007,0,0,0,.18.672.9.9,0,0,0,.688.2,3.6,3.6,0,0,0,.664-.055V-.047A4.648,4.648,0,0,1,8.4.156a2.156,2.156,0,0,1-2.422-2.4V-6.8H4.742V-8.453H5.977v-2.078ZM14.828.156A4.15,4.15,0,0,1,11.8-.984a4.054,4.054,0,0,1-1.168-3.039v-.219a5.106,5.106,0,0,1,.492-2.277A3.612,3.612,0,0,1,12.52-8.066a3.914,3.914,0,0,1,2.059-.543,3.508,3.508,0,0,1,2.73,1.094,4.444,4.444,0,0,1,1,3.1v.922H12.922a2.1,2.1,0,0,0,.66,1.328,2,2,0,0,0,1.395.5,2.437,2.437,0,0,0,2.039-.945l1.109,1.242A3.389,3.389,0,0,1,16.75-.246,4.511,4.511,0,0,1,14.828.156ZM14.57-6.789a1.411,1.411,0,0,0-1.09.455,2.357,2.357,0,0,0-.535,1.3h3.141v-.181a1.681,1.681,0,0,0-.406-1.165A1.456,1.456,0,0,0,14.57-6.789ZM21.7-8.453l.07.945a2.971,2.971,0,0,1,2.43-1.1A2.255,2.255,0,0,1,26.445-7.32a2.9,2.9,0,0,1,2.539-1.289,2.521,2.521,0,0,1,2.047.8A3.681,3.681,0,0,1,31.7-5.4V0H29.438V-5.4a1.616,1.616,0,0,0-.281-1.053,1.245,1.245,0,0,0-.992-.333,1.409,1.409,0,0,0-1.406.971L26.766,0H24.508V-5.4a1.6,1.6,0,0,0-.289-1.065,1.257,1.257,0,0,0-.984-.329,1.463,1.463,0,0,0-1.391.8V0H19.586V-8.453ZM38.016-2.336a.727.727,0,0,0-.41-.652,4.659,4.659,0,0,0-1.316-.426q-3.016-.633-3.016-2.562a2.323,2.323,0,0,1,.934-1.879,3.766,3.766,0,0,1,2.441-.754,4.053,4.053,0,0,1,2.574.758,2.388,2.388,0,0,1,.965,1.969H37.93a1.092,1.092,0,0,0-.312-.8A1.322,1.322,0,0,0,36.641-7a1.351,1.351,0,0,0-.883.258.814.814,0,0,0-.312.656.7.7,0,0,0,.355.605,3.657,3.657,0,0,0,1.2.4,9.8,9.8,0,0,1,1.422.379A2.336,2.336,0,0,1,40.211-2.43a2.2,2.2,0,0,1-.992,1.871,4.28,4.28,0,0,1-2.562.715A4.47,4.47,0,0,1,34.77-.223a3.166,3.166,0,0,1-1.293-1.039,2.414,2.414,0,0,1-.469-1.426h2.141a1.179,1.179,0,0,0,.445.922,1.766,1.766,0,0,0,1.109.32,1.635,1.635,0,0,0,.98-.246A.766.766,0,0,0,38.016-2.336Zm12.383-4a6.134,6.134,0,0,0-.812-.062,1.654,1.654,0,0,0-1.68.867V0H45.648V-8.453h2.133l.063,1.008a2.092,2.092,0,0,1,1.883-1.164,2.366,2.366,0,0,1,.7.1ZM55.227.156A4.15,4.15,0,0,1,52.2-.984a4.054,4.054,0,0,1-1.168-3.039v-.219a5.106,5.106,0,0,1,.492-2.277,3.612,3.612,0,0,1,1.395-1.547,3.914,3.914,0,0,1,2.059-.543,3.508,3.508,0,0,1,2.73,1.094,4.444,4.444,0,0,1,1,3.1v.922H53.32a2.1,2.1,0,0,0,.66,1.328,2,2,0,0,0,1.395.5,2.437,2.437,0,0,0,2.039-.945l1.109,1.242A3.389,3.389,0,0,1,57.148-.246,4.511,4.511,0,0,1,55.227.156Zm-.258-6.945a1.411,1.411,0,0,0-1.09.455,2.357,2.357,0,0,0-.535,1.3h3.141v-.181a1.681,1.681,0,0,0-.406-1.165A1.456,1.456,0,0,0,54.969-6.789ZM60.531,0V-6.8H59.273V-8.453h1.258v-.391a3.17,3.17,0,0,1,.98-2.457,3.945,3.945,0,0,1,2.723-.863A9.031,9.031,0,0,1,66.8-11.7l-.328,1.867a10,10,0,0,0-1.187-.293,5.835,5.835,0,0,0-.906-.066Q62.8-10.2,62.8-8.8v.344h1.664V-6.8H62.8V0Zm7.32,0H65.586V-8.453h2.266ZM71.8-8.453l.07.977A2.951,2.951,0,0,1,74.3-8.609a2.453,2.453,0,0,1,2,.789,3.682,3.682,0,0,1,.672,2.359V0H74.711V-5.419A1.47,1.47,0,0,0,74.4-6.464a1.4,1.4,0,0,0-1.039-.325,1.553,1.553,0,0,0-1.43.814V0H69.672V-8.453ZM83.578,0a2.507,2.507,0,0,1-.227-.758,2.732,2.732,0,0,1-2.133.914A3,3,0,0,1,79.16-.562a2.312,2.312,0,0,1-.816-1.812,2.389,2.389,0,0,1,1-2.062,4.915,4.915,0,0,1,2.879-.727h1.039v-.484a1.393,1.393,0,0,0-.3-.937,1.183,1.183,0,0,0-.949-.352,1.345,1.345,0,0,0-.895.273.929.929,0,0,0-.324.75H78.531a2.268,2.268,0,0,1,.453-1.359,3,3,0,0,1,1.281-.98,4.669,4.669,0,0,1,1.859-.355,3.689,3.689,0,0,1,2.48.785,2.747,2.747,0,0,1,.918,2.207v3.664a4.041,4.041,0,0,0,.336,1.82V0ZM81.711-1.57a1.945,1.945,0,0,0,.922-.223,1.462,1.462,0,0,0,.625-.6V-3.844h-.844q-1.7,0-1.8,1.172l-.008.133a.9.9,0,0,0,.3.7A1.153,1.153,0,0,0,81.711-1.57Zm5.2-2.719a5.094,5.094,0,0,1,.887-3.148,2.877,2.877,0,0,1,2.426-1.172,2.589,2.589,0,0,1,2.039.922V-12h2.266V0H92.484l-.109-.9A2.657,2.657,0,0,1,90.2.156,2.869,2.869,0,0,1,87.809-1.02,5.258,5.258,0,0,1,86.906-4.289Zm2.258.161A3.355,3.355,0,0,0,89.578-2.3a1.348,1.348,0,0,0,1.2.636,1.51,1.51,0,0,0,1.477-.887V-5.9A1.489,1.489,0,0,0,90.8-6.789Q89.164-6.789,89.164-4.128ZM95.922-4.3a5.013,5.013,0,0,1,.484-2.242A3.546,3.546,0,0,1,97.8-8.07a4.069,4.069,0,0,1,2.113-.539,3.849,3.849,0,0,1,2.793,1.047,4.2,4.2,0,0,1,1.207,2.844l.016.578a4.418,4.418,0,0,1-1.086,3.121A3.775,3.775,0,0,1,99.93.156a3.793,3.793,0,0,1-2.918-1.172A4.5,4.5,0,0,1,95.922-4.2Zm2.258.16A3.16,3.16,0,0,0,98.633-2.3a1.5,1.5,0,0,0,1.3.638,1.5,1.5,0,0,0,1.281-.63,3.457,3.457,0,0,0,.461-2.015,3.128,3.128,0,0,0-.461-1.831,1.5,1.5,0,0,0-1.3-.649,1.474,1.474,0,0,0-1.281.646A3.516,3.516,0,0,0,98.18-4.144ZM109.9-2.336a.727.727,0,0,0-.41-.652,4.659,4.659,0,0,0-1.316-.426q-3.016-.633-3.016-2.562a2.323,2.323,0,0,1,.934-1.879,3.766,3.766,0,0,1,2.441-.754,4.053,4.053,0,0,1,2.574.758,2.388,2.388,0,0,1,.965,1.969h-2.258a1.092,1.092,0,0,0-.312-.8A1.322,1.322,0,0,0,108.523-7a1.351,1.351,0,0,0-.883.258.814.814,0,0,0-.312.656.7.7,0,0,0,.355.605,3.657,3.657,0,0,0,1.2.4A9.8,9.8,0,0,1,110.3-4.7a2.336,2.336,0,0,1,1.789,2.273A2.2,2.2,0,0,1,111.1-.559a4.28,4.28,0,0,1-2.562.715,4.47,4.47,0,0,1-1.887-.379,3.166,3.166,0,0,1-1.293-1.039,2.414,2.414,0,0,1-.469-1.426h2.141a1.179,1.179,0,0,0,.445.922,1.766,1.766,0,0,0,1.109.32,1.635,1.635,0,0,0,.98-.246A.766.766,0,0,0,109.9-2.336Z" transform="translate(989 982)" fill="#12263f"/>
    </g>
    <path id="Trazado_100569" data-name="Trazado 100569" d="M-7725.649-10367.223v11.187h77.742v5.864l10.829-10.829-10.829-10.829v4.607Z" transform="translate(8376 11661)" fill="#a3a4a4" stroke="#fff" stroke-width="2"/>
    <path id="Trazado_688643" data-name="Trazado 688643" d="M5.227-4.164H3.359V0H1.016V-11.375H5.242a4.778,4.778,0,0,1,3.109.9A3.1,3.1,0,0,1,9.445-7.937,3.5,3.5,0,0,1,8.941-6,3.437,3.437,0,0,1,7.414-4.758L9.875-.109V0H7.359Zm-1.867-1.9H5.25a1.936,1.936,0,0,0,1.367-.449A1.606,1.606,0,0,0,7.1-7.75a1.719,1.719,0,0,0-.457-1.266,1.9,1.9,0,0,0-1.4-.461H3.359ZM14.969.156A4.15,4.15,0,0,1,11.941-.984a4.054,4.054,0,0,1-1.168-3.039v-.219a5.106,5.106,0,0,1,.492-2.277A3.612,3.612,0,0,1,12.66-8.066a3.914,3.914,0,0,1,2.059-.543,3.508,3.508,0,0,1,2.73,1.094,4.444,4.444,0,0,1,1,3.1v.922H13.063a2.1,2.1,0,0,0,.66,1.328,2,2,0,0,0,1.395.5,2.437,2.437,0,0,0,2.039-.945l1.109,1.242A3.389,3.389,0,0,1,16.891-.246,4.511,4.511,0,0,1,14.969.156Zm-.258-6.945a1.411,1.411,0,0,0-1.09.455,2.357,2.357,0,0,0-.535,1.3h3.141v-.181a1.681,1.681,0,0,0-.406-1.165A1.456,1.456,0,0,0,14.711-6.789ZM27.336-4.148a5.07,5.07,0,0,1-.887,3.129A2.843,2.843,0,0,1,24.055.156a2.633,2.633,0,0,1-2.07-.891V3.25H19.727v-11.7H21.82l.078.828a2.654,2.654,0,0,1,2.141-.984,2.862,2.862,0,0,1,2.43,1.156,5.207,5.207,0,0,1,.867,3.188Zm-2.258-.172a3.345,3.345,0,0,0-.418-1.826,1.36,1.36,0,0,0-1.215-.643,1.478,1.478,0,0,0-1.461.815V-2.5a1.5,1.5,0,0,0,1.477.839Q25.078-1.664,25.078-4.321Zm8.406-2.015a6.134,6.134,0,0,0-.812-.062,1.654,1.654,0,0,0-1.68.867V0H28.734V-8.453h2.133l.063,1.008a2.092,2.092,0,0,1,1.883-1.164,2.366,2.366,0,0,1,.7.1ZM36.953,0H34.688V-8.453h2.266Zm-2.4-10.641a1.112,1.112,0,0,1,.34-.836,1.277,1.277,0,0,1,.926-.328,1.28,1.28,0,0,1,.922.328,1.105,1.105,0,0,1,.344.836,1.108,1.108,0,0,1-.348.844,1.283,1.283,0,0,1-.918.328A1.283,1.283,0,0,1,34.9-9.8,1.108,1.108,0,0,1,34.555-10.641ZM38.461-4.3a5.013,5.013,0,0,1,.484-2.242A3.546,3.546,0,0,1,40.34-8.07a4.069,4.069,0,0,1,2.113-.539,3.849,3.849,0,0,1,2.793,1.047,4.2,4.2,0,0,1,1.207,2.844l.016.578A4.418,4.418,0,0,1,45.383-1.02,3.775,3.775,0,0,1,42.469.156a3.793,3.793,0,0,1-2.918-1.172A4.5,4.5,0,0,1,38.461-4.2Zm2.258.16A3.16,3.16,0,0,0,41.172-2.3a1.5,1.5,0,0,0,1.3.638,1.5,1.5,0,0,0,1.281-.63,3.457,3.457,0,0,0,.461-2.015A3.128,3.128,0,0,0,43.75-6.14a1.5,1.5,0,0,0-1.3-.649,1.474,1.474,0,0,0-1.281.646A3.516,3.516,0,0,0,40.719-4.144ZM52.609-6.336A6.134,6.134,0,0,0,51.8-6.4a1.654,1.654,0,0,0-1.68.867V0H47.859V-8.453h2.133l.063,1.008a2.092,2.092,0,0,1,1.883-1.164,2.366,2.366,0,0,1,.7.1ZM56.078,0H53.813V-8.453h2.266Zm-2.4-10.641a1.112,1.112,0,0,1,.34-.836,1.277,1.277,0,0,1,.926-.328,1.28,1.28,0,0,1,.922.328,1.105,1.105,0,0,1,.344.836,1.108,1.108,0,0,1-.348.844,1.283,1.283,0,0,1-.918.328,1.283,1.283,0,0,1-.918-.328A1.108,1.108,0,0,1,53.68-10.641Zm6.852,8.82h4.133V0H57.648V-1.375l3.977-5.258H57.766v-1.82h6.773v1.33ZM70.977,0a2.507,2.507,0,0,1-.227-.758,2.732,2.732,0,0,1-2.133.914,3,3,0,0,1-2.059-.719,2.312,2.312,0,0,1-.816-1.812,2.389,2.389,0,0,1,1-2.062,4.915,4.915,0,0,1,2.879-.727h1.039v-.484a1.393,1.393,0,0,0-.3-.937,1.183,1.183,0,0,0-.949-.352,1.345,1.345,0,0,0-.895.273.929.929,0,0,0-.324.75H65.93a2.268,2.268,0,0,1,.453-1.359,3,3,0,0,1,1.281-.98,4.669,4.669,0,0,1,1.859-.355A3.689,3.689,0,0,1,72-7.824a2.747,2.747,0,0,1,.918,2.207v3.664a4.041,4.041,0,0,0,.336,1.82V0ZM69.109-1.57a1.945,1.945,0,0,0,.922-.223,1.462,1.462,0,0,0,.625-.6V-3.844h-.844q-1.7,0-1.8,1.172L68-2.539a.9.9,0,0,0,.3.7A1.153,1.153,0,0,0,69.109-1.57Zm10.3-4.766a6.134,6.134,0,0,0-.812-.062,1.654,1.654,0,0,0-1.68.867V0H74.656V-8.453h2.133l.063,1.008a2.092,2.092,0,0,1,1.883-1.164,2.366,2.366,0,0,1,.7.1ZM86.914,0H84.656V-8.453h2.258ZM86.25-11.883h2.461L86.547-9.461H84.711Zm5.313,1.352v2.078h1.445V-6.8H91.563v4.219a1.007,1.007,0,0,0,.18.672.9.9,0,0,0,.688.2,3.6,3.6,0,0,0,.664-.055V-.047a4.648,4.648,0,0,1-1.367.2,2.156,2.156,0,0,1-2.422-2.4V-6.8H88.07V-8.453H89.3v-2.078ZM98.156.156A4.15,4.15,0,0,1,95.129-.984a4.054,4.054,0,0,1-1.168-3.039v-.219a5.106,5.106,0,0,1,.492-2.277,3.612,3.612,0,0,1,1.395-1.547,3.914,3.914,0,0,1,2.059-.543,3.508,3.508,0,0,1,2.73,1.094,4.444,4.444,0,0,1,1,3.1v.922H96.25a2.1,2.1,0,0,0,.66,1.328,2,2,0,0,0,1.395.5,2.437,2.437,0,0,0,2.039-.945l1.109,1.242a3.389,3.389,0,0,1-1.375,1.121A4.511,4.511,0,0,1,98.156.156ZM97.9-6.789a1.411,1.411,0,0,0-1.09.455,2.357,2.357,0,0,0-.535,1.3h3.141v-.181a1.681,1.681,0,0,0-.406-1.165A1.456,1.456,0,0,0,97.9-6.789Zm7.133-1.664.07.945a2.971,2.971,0,0,1,2.43-1.1,2.255,2.255,0,0,1,2.242,1.289,2.9,2.9,0,0,1,2.539-1.289,2.521,2.521,0,0,1,2.047.8,3.681,3.681,0,0,1,.672,2.41V0h-2.266V-5.4a1.616,1.616,0,0,0-.281-1.053,1.245,1.245,0,0,0-.992-.333,1.409,1.409,0,0,0-1.406.971L110.094,0h-2.258V-5.4a1.6,1.6,0,0,0-.289-1.065,1.257,1.257,0,0,0-.984-.329,1.463,1.463,0,0,0-1.391.8V0h-2.258V-8.453Zm16.313,6.117a.727.727,0,0,0-.41-.652,4.659,4.659,0,0,0-1.316-.426Q116.6-4.047,116.6-5.977a2.323,2.323,0,0,1,.934-1.879,3.766,3.766,0,0,1,2.441-.754,4.053,4.053,0,0,1,2.574.758,2.388,2.388,0,0,1,.965,1.969h-2.258a1.092,1.092,0,0,0-.312-.8A1.322,1.322,0,0,0,119.969-7a1.351,1.351,0,0,0-.883.258.814.814,0,0,0-.312.656.7.7,0,0,0,.355.605,3.657,3.657,0,0,0,1.2.4,9.8,9.8,0,0,1,1.422.379,2.336,2.336,0,0,1,1.789,2.273,2.2,2.2,0,0,1-.992,1.871,4.28,4.28,0,0,1-2.562.715A4.47,4.47,0,0,1,118.1-.223,3.166,3.166,0,0,1,116.8-1.262a2.414,2.414,0,0,1-.469-1.426h2.141a1.179,1.179,0,0,0,.445.922,1.766,1.766,0,0,0,1.109.32,1.635,1.635,0,0,0,.98-.246A.766.766,0,0,0,121.344-2.336Z" transform="translate(980 1099)" fill="#12263f"/>
    <path id="Trazado_100568" data-name="Trazado 100568" d="M-7750.651-10387.38v49.114h510.9v-47.1Z" transform="translate(8376 11661)" fill="none" stroke="#2c2c2c" stroke-width="2" stroke-dasharray="5"/>
    <path id="Trazado_100570" data-name="Trazado 100570" d="M-7471.562-9555.725l-5.028,18.764,54.414,14.58-3.211,11.984,25.363-15.815-13.96-26.741-3.164,11.809Z" transform="translate(8537.221 10762.701) rotate(-1)" fill="#426ac7" stroke="#bf0004" stroke-linejoin="round" stroke-width="1"/>
    <path id="Trazado_100571" data-name="Trazado 100571" d="M1.016,1.022l10.3.093L10.9,20.636.66,20.488Z" transform="translate(899.271 1337.58) rotate(13)" fill="#bf0004"/>
    <path id="Trazado_100572" data-name="Trazado 100572" d="M-7776-9836.069v-6.924l15.433,12.929L-7776-9814.411v-7.239s-35.678,10.932-35.5,38.964,50.935,36.738,50.935,36.738v14.563s-54.069-4.22-53.959-51.3S-7776-9836.069-7776-9836.069Z" transform="translate(8376 10891)" fill="#426ac7"/>
    <path id="Trazado_100573" data-name="Trazado 100573" d="M-7799.093-9740.31v8.924l-15.433-14.929,15.433-17.653v8.239s45.678-7.932,45.5-35.964-60.935-32.738-60.935-32.738v-15.562s65.069,1.22,64.959,48.3S-7799.093-9740.31-7799.093-9740.31Z" transform="translate(8713 10879)" fill="#4472c4"/>
    <g id="Grupo_167912" data-name="Grupo 167912" transform="translate(572.102 1266.961)">
      <path id="Trazado_100574" data-name="Trazado 100574" d="M467.618,204.585c0,4.3-13.01,7.785-29.058,7.785s-29.056-3.485-29.056-7.785,13.009-7.785,29.056-7.785S467.618,200.284,467.618,204.585Z" transform="translate(-3.635 -25.32)" fill="#c4c6c8" opacity="0.6" style="mix-blend-mode: multiply;isolation: isolate"/>
      <g id="Grupo_167911" data-name="Grupo 167911" transform="translate(395.898 102.036)">
        <g id="Grupo_167907" data-name="Grupo 167907" transform="translate(0.284 0.68)">
          <path id="Trazado_100575" data-name="Trazado 100575" d="M396.826,112.133s9.633,63.7,10.3,67.461,9,8.539,26.879,8.539c.364,0,.713,0,1.068-.007s.7.007,1.068.007c17.875,0,26.216-4.781,26.878-8.539s10.3-67.461,10.3-67.461Z" transform="translate(-396.43 -105.414)" fill="#fff"/>
          <g id="Grupo_167903" data-name="Grupo 167903" transform="translate(12.719 74.333)">
            <path id="Trazado_100576" data-name="Trazado 100576" d="M439.941,204.745c-12.05,0-22.277,1.152-25.957,2.754,2.673,2.234,6.345,3.2,9.647,4.04,1.392.352,2.8.66,4.209.916,3.65.266,7.756.416,12.1.416q2.417,0,4.723-.062c1.632-.144,3.271-.189,4.9-.341a39.526,39.526,0,0,0,6.553-1.222c3.238-.869,6.747-1.76,9.409-3.9C461.572,205.825,451.611,204.745,439.941,204.745Z" transform="translate(-413.733 -204.492)" fill="#cfd1d2"/>
            <path id="Trazado_100577" data-name="Trazado 100577" d="M439.849,213.03c-4.254,0-8.332-.14-12.119-.417-1.4-.251-2.822-.56-4.252-.923-3.1-.785-6.96-1.761-9.746-4.091a.252.252,0,0,1-.088-.229.247.247,0,0,1,.149-.195c3.811-1.661,14.282-2.776,26.056-2.776,11.463,0,21.543,1.03,25.68,2.621a.251.251,0,0,1,.067.431c-2.614,2.1-5.949,2.993-9.173,3.857l-.328.087a39.52,39.52,0,0,1-6.6,1.23c-.856.079-1.724.131-2.566.18-.768.045-1.562.093-2.34.161C443,213.01,441.406,213.03,439.849,213.03Zm-25.465-5.551c2.672,2.066,6.287,2.982,9.217,3.723,1.419.359,2.83.665,4.192.912,3.748.273,7.813.412,12.056.412,1.553,0,3.139-.02,4.716-.06.77-.069,1.567-.116,2.339-.162.837-.049,1.7-.1,2.548-.18a38.842,38.842,0,0,0,6.512-1.214l.328-.087c3.026-.811,6.15-1.649,8.628-3.487-4.284-1.461-14.218-2.431-25.071-2.431C428.522,204.906,418.431,205.932,414.384,207.479Z" transform="translate(-413.641 -204.4)" fill="#95979a"/>
          </g>
          <g id="Grupo_167906" data-name="Grupo 167906">
            <g id="Grupo_167904" data-name="Grupo 167904" transform="translate(0 6.378)">
              <path id="Trazado_100578" data-name="Trazado 100578" d="M435.993,188.349c-.361,0-.709,0-1.06-.007-.369,0-.717.007-1.076.007-8.108,0-15.029-1-20.016-2.881-4.189-1.586-6.814-3.75-7.2-5.939-.656-3.717-10.2-66.831-10.3-67.469l-.059-.391h77.276l-.059.391c-.1.638-9.641,63.752-10.3,67.469-.387,2.19-3.011,4.354-7.2,5.939C451.022,187.351,444.1,188.349,435.993,188.349Zm-1.085-.687c.382,0,.726.007,1.085.007,18.408,0,25.959-4.938,26.543-8.259.628-3.556,9.423-61.694,10.235-67.06H397.077c.812,5.366,9.608,63.5,10.234,67.06.586,3.321,8.136,8.259,26.545,8.259C434.214,187.669,434.559,187.665,434.908,187.661Z" transform="translate(-396.285 -111.668)" fill="#a3a5a8"/>
            </g>
            <g id="Grupo_167905" data-name="Grupo 167905" transform="translate(0.396)">
              <path id="Trazado_100579" data-name="Trazado 100579" d="M473.312,109.683c0,3.709-17.123,6.719-38.244,6.719s-38.242-3.01-38.242-6.719,17.122-6.719,38.242-6.719S473.312,105.971,473.312,109.683Z" transform="translate(-396.826 -102.964)" fill="#fff"/>
            </g>
          </g>
        </g>
        <g id="Grupo_167910" data-name="Grupo 167910" transform="translate(0.68 0.68)">
          <g id="Grupo_167909" data-name="Grupo 167909" clip-path="url(#clip-path)">
            <g id="Grupo_167908" data-name="Grupo 167908" transform="translate(-1.637 -2.877)">
              <path id="Trazado_100580" data-name="Trazado 100580" d="M473.953,116.183c-1.061,2.522-2.227,5.215-3.5,8.052-.967-2.155-1.875-4.23-2.719-6.208,2.53-5.929,4.5-10.987,5.923-14.794l-.048-.011c-.15-.034-.3-.066-.449-.1-1.378,3.7-3.279,8.566-5.7,14.262-1-2.341-1.9-4.545-2.722-6.583,1.376-3.427,2.5-6.385,3.372-8.758-.166-.034-.332-.07-.5-.1-.825,2.242-1.873,5-3.144,8.182-1.064-2.664-1.973-5.032-2.724-7.049.276-.74.527-1.426.759-2.068-.169-.028-.338-.052-.508-.078q-.244.674-.521,1.422-.312-.844-.584-1.595c-.189-.029-.378-.062-.568-.089q.4,1.1.883,2.408c-.751,2.017-1.66,4.384-2.724,7.049-1.064-2.665-1.973-5.032-2.724-7.049q.591-1.591,1.049-2.869c-.171-.021-.343-.034-.516-.053q-.362,1-.8,2.2-.479-1.295-.863-2.367c-.185-.019-.37-.04-.555-.057.329.92.712,1.973,1.15,3.149-.752,2.017-1.66,4.385-2.724,7.049-1.094-2.736-2.024-5.166-2.788-7.216q.68-1.833,1.181-3.242l-.524-.033c-.271.759-.579,1.606-.925,2.548q-.547-1.482-.967-2.662c-.182-.01-.365-.023-.547-.033q.522,1.466,1.244,3.422c-.749,2.011-1.658,4.387-2.724,7.059-1.066-2.673-1.976-5.048-2.725-7.059.5-1.359.934-2.546,1.292-3.551l-.529-.021c-.3.83-.639,1.781-1.031,2.845-.4-1.09-.754-2.061-1.055-2.906l-.541-.017c.363,1.024.805,2.247,1.326,3.65-.749,2.012-1.658,4.387-2.724,7.059-1.066-2.673-1.976-5.048-2.725-7.059.531-1.427.978-2.668,1.345-3.7l-.533-.01q-.461,1.295-1.081,2.987-.631-1.706-1.092-3.011l-.537-.006c.37,1.044.822,2.3,1.359,3.744-.749,2.011-1.658,4.387-2.724,7.059-1.065-2.673-1.976-5.048-2.725-7.059.542-1.46,1-2.723,1.37-3.773l-.533-.006q-.467,1.317-1.105,3.052-.647-1.753-1.116-3.083l-.537-.007c.374,1.06.835,2.338,1.384,3.817-.749,2.012-1.658,4.387-2.724,7.059-1.066-2.673-1.976-5.048-2.725-7.059.555-1.5,1.02-2.785,1.4-3.85l-.533,0c-.319.895-.693,1.939-1.133,3.127-.441-1.2-.818-2.244-1.137-3.143-.177,0-.355,0-.534,0,.378,1.068.844,2.363,1.4,3.868-.75,2.011-1.658,4.387-2.725,7.059-1.065-2.673-1.975-5.048-2.724-7.059.557-1.5,1.022-2.79,1.4-3.856l-.538.008q-.475,1.341-1.129,3.121-.645-1.751-1.115-3.077c-.176.006-.352.013-.528.018.373,1.053.83,2.321,1.374,3.786-.763,2.05-1.694,4.48-2.787,7.216-1.064-2.664-1.973-5.032-2.725-7.049.552-1.483,1.016-2.769,1.4-3.84l-.547.032c-.317.89-.687,1.92-1.118,3.084-.409-1.1-.765-2.087-1.071-2.944-.174.013-.347.025-.52.039.365,1.028.805,2.242,1.321,3.63-.752,2.017-1.66,4.384-2.724,7.049-1.063-2.665-1.973-5.032-2.725-7.049q.706-1.9,1.221-3.35c-.186.021-.372.045-.558.067q-.411,1.146-.931,2.557-.469-1.268-.847-2.323c-.171.024-.34.047-.509.072q.472,1.319,1.087,2.976c-.751,2.017-1.66,4.385-2.725,7.049-1.436-3.6-2.589-6.658-3.457-9.04-.165.04-.329.078-.493.119.911,2.5,2.138,5.755,3.68,9.6-.819,2.038-1.727,4.241-2.722,6.583-2.514-5.917-4.465-10.939-5.855-14.683-.158.058-.316.115-.473.175,1.428,3.844,3.446,9.033,6.054,15.15-.844,1.977-1.751,4.052-2.719,6.208-1.436-3.2-2.733-6.213-3.9-9,.031.5.06,1.011.089,1.516,1.072,2.54,2.249,5.251,3.534,8.1-.722,1.6-1.487,3.258-2.276,4.944.04.311.079.621.121.931.846-1.8,1.661-3.556,2.431-5.26q1.288,2.845,2.714,5.863c-.865,1.825-1.772,3.695-2.714,5.6q-1.142-2.306-2.206-4.538.115.825.234,1.649c.552,1.14,1.112,2.291,1.691,3.457-.067.136-.133.27-.2.408-.228.457-.468.928-.7,1.395.045.286.088.571.132.856.347-.684.694-1.367,1.027-2.034l.028-.056c.01.018.019.037.029.056.848,1.7,1.745,3.457,2.681,5.256q-1.22,2.342-2.541,4.783c.04.278.081.557.122.835q1.408-2.588,2.7-5.072,1.3,2.489,2.706,5.078-1.3,2.4-2.706,4.865-1.4-2.463-2.7-4.856c.068.474.139.949.208,1.422.716,1.3,1.446,2.612,2.2,3.943q-.633,1.114-1.288,2.239.06.4.121.794.74-1.27,1.457-2.525,1.31,2.3,2.7,4.645-1.315,2.214-2.7,4.462c-.185-.3-.366-.6-.549-.9.076.448.153.9.231,1.342l.022.036a.226.226,0,0,1-.012.02c.044.248.084.5.128.745.059-.094.121-.191.18-.287q1.315,2.121,2.694,4.263-.8,1.239-1.622,2.483c.049.232.1.465.146.7q.9-1.36,1.776-2.715,1.318,2.038,2.69,4.086-1.5,2.236-3.075,4.472c.055.213.111.425.167.638q1.641-2.33,3.212-4.661,1.318,1.961,2.684,3.922-1.485,2.117-3.032,4.234c.155.073.308.147.462.218q1.464-2,2.878-4.017,1.348,1.919,2.744,3.838-.673.922-1.359,1.84c.169.056.341.1.512.155.388-.522.775-1.044,1.158-1.567.582.794,1.18,1.586,1.776,2.377.25.06.5.113.753.168-.747-.989-1.491-1.98-2.217-2.973q1.364-1.872,2.681-3.749,1.318,1.874,2.681,3.749-1.153,1.576-2.346,3.147c.181.037.361.08.542.117.712-.944,1.423-1.888,2.116-2.835q1.309,1.791,2.664,3.568c.232.028.463.057.7.082-.017-.022-.034-.043-.051-.065q1.358-1.787,2.677-3.585,1.314,1.8,2.675,3.585c-.115.151-.234.3-.349.451l.615.03.051-.065c.018.024.037.047.054.071l.662.029c-.132-.172-.269-.344-.4-.516q1.359-1.788,2.677-3.585,1.315,1.8,2.676,3.585c-.158.207-.322.413-.48.62l.634.005c.053-.07.11-.14.163-.21l.165.213.214,0c.142,0,.284,0,.426,0-.161-.21-.328-.419-.489-.629q1.359-1.787,2.678-3.585,1.314,1.8,2.675,3.585c-.144.188-.292.374-.437.564l.657-.023.1-.125.092.119.621-.023c-.131-.171-.267-.34-.4-.511q1.36-1.788,2.677-3.585,1.315,1.8,2.676,3.585c-.048.063-.1.125-.146.188.287-.026.576-.051.864-.08-.028-.037-.057-.072-.084-.108q1.358-1.787,2.677-3.585c.753,1.03,1.523,2.053,2.3,3.078.186-.029.372-.062.558-.092q-1.292-1.7-2.546-3.413,1.365-1.872,2.683-3.749,1.317,1.874,2.682,3.749c-.821,1.123-1.661,2.244-2.507,3.362.239-.04.477-.077.715-.119.707-.936,1.414-1.873,2.1-2.815q.762,1.042,1.537,2.079c.18-.042.361-.08.542-.121q-.893-1.19-1.768-2.386,1.4-1.917,2.745-3.838c1.164,1.659,2.366,3.317,3.586,4.97.169-.054.336-.11.5-.163-1.288-1.744-2.555-3.492-3.781-5.242q1.37-1.962,2.684-3.922,1.688,2.507,3.46,5.017c.045-.229.088-.459.133-.69q-1.68-2.387-3.287-4.777,1.373-2.047,2.689-4.086.831,1.287,1.687,2.577c.038-.248.078-.5.115-.742-.5-.767-1.009-1.535-1.5-2.3q1.2-1.861,2.344-3.7.112-.863.222-1.726-1.319-2.141-2.574-4.252,1.392-2.348,2.7-4.645c.256.448.519.9.78,1.355q.051-.421.1-.841c-.2-.34-.4-.683-.59-1.024.306-.537.6-1.066.9-1.6l.158-1.31q-.663,1.19-1.346,2.4-1.4-2.468-2.706-4.865,1.409-2.592,2.706-5.078c.6,1.145,1.219,2.31,1.85,3.488.037-.284.078-.569.115-.853-.573-1.072-1.137-2.135-1.681-3.18.936-1.8,1.833-3.557,2.681-5.256.01-.019.02-.038.029-.056.01.018.02.037.029.056.052.1.108.214.16.32.046-.284.091-.569.137-.853-.015-.031-.029-.06-.045-.091l.089-.182c.092-.569.185-1.137.278-1.707-.217.441-.428.876-.648,1.321-.942-1.9-1.849-3.772-2.714-5.6q1.425-3.013,2.714-5.863c.536,1.183,1.1,2.4,1.667,3.626.045-.3.092-.6.135-.908-.522-1.128-1.035-2.243-1.526-3.333q1.559-3.463,2.906-6.628C473.736,117.542,473.843,116.862,473.953,116.183Zm-6.768,1.844c-.844,1.977-1.751,4.052-2.719,6.208-.967-2.155-1.874-4.23-2.719-6.208q1.488-3.49,2.719-6.551Q465.7,114.531,467.184,118.028Zm-5.989,13.3c-.867,1.825-1.773,3.695-2.716,5.6-.942-1.9-1.849-3.772-2.715-5.6q1.427-3.013,2.715-5.863Q459.767,128.311,461.2,131.329Zm-2.44-6.478q1.45-3.218,2.718-6.183,1.268,2.96,2.717,6.183-1.286,2.854-2.717,5.887Q460.044,127.712,458.755,124.851ZM452.977,137.9c-.068-.136-.134-.272-.2-.408q1.412-2.843,2.713-5.579,1.3,2.733,2.712,5.579c-.068.136-.134.27-.2.408-.8,1.6-1.636,3.243-2.51,4.927C454.612,141.145,453.773,139.5,452.977,137.9Zm5.216,11.1q-1.307,2.4-2.706,4.865-1.4-2.468-2.706-4.865,1.408-2.592,2.706-5.078Q456.786,146.408,458.193,149Zm-2.991-5.624q-1.3,2.5-2.708,5.094-1.412-2.6-2.71-5.094c.937-1.8,1.833-3.557,2.681-5.256l.029-.056c.009.018.018.037.028.056C453.37,139.817,454.266,141.575,455.2,143.374Zm-32.766,6.148q1.3,2.389,2.7,4.85-1.311,2.3-2.7,4.659-1.393-2.353-2.7-4.659Q421.131,151.912,422.436,149.522Zm-2.993,4.341q-1.4-2.468-2.706-4.865,1.409-2.592,2.706-5.078,1.3,2.489,2.706,5.078Q420.843,151.393,419.444,153.863Zm3.28-4.865q1.41-2.592,2.706-5.078,1.3,2.489,2.706,5.078-1.306,2.4-2.706,4.865Q424.031,151.4,422.724,149Zm5.7.524q1.334,2.44,2.766,4.96-1.31,2.3-2.7,4.655-1.426-2.408-2.767-4.765Q427.117,151.912,428.423,149.522Zm.287-.524q1.41-2.592,2.706-5.078,1.329,2.542,2.769,5.193-1.3,2.392-2.706,4.862Q430.046,151.449,428.71,149Zm5.762.638q1.3,2.387,2.7,4.847-1.311,2.3-2.7,4.655-1.393-2.351-2.7-4.655Q433.166,152.024,434.472,149.635Zm.287-.523q1.444-2.65,2.768-5.193,1.3,2.489,2.706,5.078-1.333,2.448-2.767,4.976Q436.065,151.508,434.759,149.112Zm5.761.41q1.3,2.389,2.7,4.85-1.341,2.356-2.766,4.765-1.393-2.351-2.7-4.655Q439.185,151.965,440.521,149.522Zm.287-.524q1.409-2.592,2.706-5.078,1.3,2.489,2.706,5.078-1.3,2.4-2.706,4.865Q442.114,151.4,440.808,149Zm5.7.524q1.3,2.389,2.7,4.85-1.311,2.3-2.7,4.659-1.393-2.353-2.7-4.659Q445.2,151.912,446.508,149.522Zm.286-.524q1.409-2.592,2.706-5.078,1.3,2.489,2.706,5.078-1.3,2.4-2.706,4.865Q448.1,151.4,446.794,149Zm5.216-11.1c-.8,1.6-1.636,3.243-2.51,4.927-.874-1.684-1.713-3.331-2.51-4.927l-.2-.408q1.412-2.843,2.713-5.579,1.3,2.733,2.711,5.579Zm-2.794,5.472q-1.3,2.5-2.708,5.1-1.414-2.6-2.71-5.1c.937-1.8,1.833-3.557,2.682-5.256.009-.019.018-.038.028-.056.009.018.018.037.028.056C447.383,139.817,448.28,141.575,449.216,143.374Zm-3.193-5.472c-.8,1.6-1.635,3.243-2.51,4.927-.874-1.684-1.713-3.331-2.509-4.927-.069-.136-.134-.272-.2-.408q1.414-2.843,2.713-5.579,1.3,2.733,2.712,5.579Zm-2.793,5.472q-1.3,2.5-2.71,5.094-1.413-2.6-2.709-5.094c.936-1.8,1.833-3.557,2.682-5.256.009-.019.018-.038.027-.056.01.018.018.037.029.056C441.4,139.817,442.294,141.575,443.23,143.374Zm-3.193-5.472c-.8,1.6-1.636,3.243-2.511,4.927-.874-1.684-1.713-3.331-2.509-4.927-.09-.18-.176-.356-.265-.536q1.411-2.845,2.713-5.582,1.327,2.794,2.774,5.709Zm-2.793,5.472q-1.33,2.551-2.772,5.212-1.447-2.663-2.772-5.212c.937-1.8,1.833-3.557,2.681-5.256.031-.062.06-.122.092-.183.031.062.059.122.091.183C435.411,139.817,436.308,141.575,437.244,143.374Zm-3.318-5.472c-.8,1.6-1.636,3.243-2.511,4.927-.874-1.684-1.713-3.331-2.51-4.927-.068-.136-.135-.272-.2-.408q1.445-2.912,2.775-5.709,1.3,2.732,2.712,5.582C434.1,137.546,434.015,137.722,433.926,137.9Zm-2.795,5.472q-1.3,2.5-2.708,5.094-1.411-2.6-2.709-5.094c.936-1.8,1.833-3.557,2.681-5.256.01-.019.019-.038.029-.056.01.018.018.037.028.056C429.3,139.817,430.2,141.575,431.131,143.374ZM427.94,137.9c-.8,1.6-1.636,3.243-2.51,4.927-.874-1.684-1.714-3.331-2.511-4.927-.069-.138-.134-.272-.2-.408q1.413-2.843,2.712-5.579,1.3,2.733,2.712,5.579C428.073,137.63,428.008,137.766,427.94,137.9Zm-2.795,5.472q-1.3,2.5-2.708,5.1-1.411-2.6-2.709-5.1c.936-1.8,1.833-3.557,2.681-5.256.01-.019.018-.038.028-.056l.028.056C423.311,139.817,424.21,141.575,425.145,143.374Zm-3.191-5.472c-.8,1.6-1.637,3.243-2.51,4.927-.874-1.684-1.714-3.331-2.511-4.927l-.2-.408q1.411-2.843,2.712-5.579,1.3,2.733,2.711,5.579C422.087,137.63,422.022,137.764,421.953,137.9Zm-2.795,5.472q-1.3,2.5-2.708,5.094-1.411-2.6-2.709-5.094c.936-1.8,1.833-3.557,2.681-5.256.01-.019.018-.038.028-.056.01.018.018.037.028.056C417.326,139.817,418.223,141.575,419.159,143.374Zm-3,5.624q-1.3,2.4-2.7,4.865-1.4-2.468-2.706-4.865,1.41-2.592,2.706-5.078Q414.757,146.408,416.162,149Zm-.195-11.1c-.8,1.6-1.637,3.243-2.51,4.927-.874-1.684-1.714-3.331-2.511-4.927-.069-.138-.134-.272-.2-.408q1.412-2.843,2.713-5.579,1.3,2.733,2.711,5.579C416.1,137.63,416.035,137.766,415.967,137.9Zm-2.795,5.472q-1.3,2.5-2.708,5.1-1.412-2.6-2.709-5.1c.935-1.8,1.833-3.557,2.681-5.256l.028-.056c.01.018.018.037.028.056C411.339,139.817,412.237,141.575,413.172,143.374Zm-.005,11q-1.312,2.3-2.7,4.659-1.393-2.353-2.7-4.659,1.4-2.46,2.7-4.85Q411.769,151.91,413.167,154.372Zm.29.509q1.309,2.3,2.7,4.645-1.315,2.214-2.7,4.462-1.386-2.247-2.7-4.462Q412.147,157.178,413.457,154.881Zm.289-.509q1.4-2.46,2.7-4.85,1.3,2.389,2.7,4.85-1.311,2.3-2.7,4.659Q415.057,156.678,413.747,154.372Zm5.7.509q1.309,2.3,2.7,4.645-1.315,2.214-2.7,4.462-1.387-2.247-2.7-4.462Q418.133,157.178,419.444,154.881Zm2.993,5.137q1.343,2.259,2.76,4.551-1.318,2.125-2.7,4.272-1.411-2.2-2.76-4.374Q421.123,162.227,422.436,160.018Zm.292-.492q1.389-2.348,2.7-4.645,1.341,2.349,2.763,4.75-1.314,2.212-2.7,4.459Q424.074,161.791,422.729,159.526Zm5.757.6q1.312,2.206,2.7,4.445-1.317,2.125-2.7,4.272-1.381-2.145-2.7-4.272Q427.171,162.332,428.486,160.125Zm.292-.493q1.39-2.345,2.7-4.641,1.31,2.3,2.7,4.641-1.314,2.212-2.7,4.459Q430.093,161.844,428.778,159.631Zm5.694.493q1.314,2.206,2.7,4.445-1.317,2.125-2.7,4.272-1.381-2.145-2.7-4.272Q433.157,162.332,434.472,160.125Zm.292-.493q1.391-2.345,2.7-4.641,1.309,2.3,2.7,4.641-1.314,2.212-2.7,4.459Q436.079,161.844,434.764,159.631Zm5.694.493q1.314,2.206,2.7,4.445-1.316,2.125-2.7,4.272-1.38-2.145-2.7-4.272Q439.145,162.332,440.458,160.125Zm.292-.493q1.423-2.4,2.763-4.75,1.31,2.3,2.7,4.645-1.344,2.263-2.763,4.565Q442.066,161.844,440.751,159.631Zm5.757.387q1.312,2.209,2.7,4.449-1.347,2.178-2.76,4.374-1.38-2.145-2.7-4.272Q445.163,162.277,446.508,160.018Zm.292-.492q1.391-2.348,2.7-4.645,1.31,2.3,2.7,4.645-1.314,2.214-2.7,4.462Q448.114,161.741,446.8,159.526Zm2.991-5.154q1.4-2.46,2.7-4.85,1.3,2.389,2.7,4.85-1.31,2.3-2.7,4.659Q451.1,156.678,449.791,154.372Zm5.7.509q1.31,2.3,2.7,4.645-1.314,2.214-2.7,4.462-1.386-2.247-2.7-4.462Q454.177,157.178,455.487,154.881Zm.29-.509q1.4-2.46,2.7-4.85,1.3,2.389,2.7,4.85-1.311,2.3-2.7,4.659Q457.088,156.678,455.777,154.372Zm-.007-11c.936-1.8,1.833-3.557,2.681-5.256.01-.019.02-.038.029-.056l.029.056c.848,1.7,1.745,3.457,2.681,5.256q-1.3,2.5-2.709,5.1Q457.067,145.868,455.77,143.374Zm-.284-12.636q-1.428-3.026-2.716-5.887,1.448-3.218,2.716-6.183,1.27,2.96,2.717,6.183Q456.917,127.7,455.487,130.738Zm-.278.591c-.866,1.825-1.773,3.695-2.714,5.6-.943-1.9-1.85-3.772-2.716-5.6q1.427-3.013,2.716-5.863Q453.779,128.311,455.208,131.329Zm-5.708-.591q-1.429-3.026-2.717-5.887,1.448-3.218,2.717-6.183,1.268,2.96,2.717,6.183Q450.929,127.7,449.5,130.738Zm-.279.591c-.865,1.825-1.772,3.695-2.714,5.6-.942-1.9-1.85-3.772-2.715-5.6q1.426-3.013,2.715-5.863Q447.795,128.311,449.221,131.329Zm-5.707-.591q-1.463-3.1-2.78-6.027,1.449-3.222,2.717-6.191,1.3,3.029,2.78,6.331Q444.943,127.7,443.514,130.738Zm-.278.591c-.866,1.825-1.773,3.695-2.715,5.6q-1.448-2.922-2.777-5.73c.95-2.009,1.856-3.971,2.715-5.87Q441.773,128.238,443.236,131.329Zm-5.77-.725q-1.43-3.028-2.718-5.892,1.449-3.221,2.718-6.191,1.266,2.963,2.717,6.191Q438.895,127.569,437.465,130.6Zm-.279.592c-.866,1.827-1.773,3.7-2.714,5.6-.942-1.9-1.85-3.776-2.715-5.6q1.427-3.014,2.715-5.868Q435.758,128.175,437.186,131.2Zm-5.708-.592q-1.429-3.028-2.717-5.892,1.449-3.222,2.717-6.191,1.268,2.963,2.717,6.191Q432.909,127.569,431.478,130.6Zm-.278.592q-1.328,2.8-2.777,5.73c-.942-1.9-1.85-3.772-2.715-5.6q1.461-3.084,2.778-6C429.344,127.225,430.249,129.186,431.2,131.2Zm-5.771-.458q-1.428-3.026-2.716-5.887,1.484-3.3,2.78-6.331,1.267,2.963,2.717,6.191Q426.894,127.632,425.429,130.738Zm-.278.591c-.866,1.825-1.774,3.695-2.715,5.6-.942-1.9-1.849-3.772-2.714-5.6q1.426-3.013,2.714-5.863Q423.724,128.311,425.151,131.329Zm-5.708-.591q-1.43-3.026-2.718-5.887,1.449-3.218,2.718-6.183,1.268,2.96,2.716,6.183Q420.873,127.7,419.444,130.738Zm-.278.591c-.866,1.825-1.773,3.695-2.715,5.6-.942-1.9-1.849-3.772-2.715-5.6q1.427-3.013,2.715-5.863Q417.737,128.311,419.165,131.329Zm-5.708-.591q-1.43-3.026-2.717-5.887,1.449-3.218,2.717-6.183,1.268,2.96,2.717,6.183Q414.886,127.7,413.457,130.738Zm-.279.591c-.865,1.825-1.773,3.695-2.714,5.6-.942-1.9-1.849-3.772-2.715-5.6q1.427-3.013,2.715-5.863Q411.751,128.311,413.178,131.329Zm-5.707-.591q-1.43-3.026-2.718-5.887,1.449-3.218,2.717-6.183,1.269,2.96,2.717,6.183Q408.9,127.7,407.471,130.738Zm-.279.591c-.865,1.825-1.773,3.695-2.715,5.6-.941-1.9-1.848-3.772-2.714-5.6q1.426-3.013,2.714-5.863Q405.765,128.311,407.192,131.329Zm.279.586q1.3,2.733,2.711,5.579c-.068.136-.133.27-.2.408-.8,1.6-1.636,3.243-2.51,4.927-.874-1.684-1.714-3.331-2.51-4.927-.068-.136-.134-.272-.2-.408Q406.17,134.652,407.471,131.915Zm2.7,17.082q-1.3,2.4-2.7,4.865-1.4-2.468-2.706-4.865,1.41-2.592,2.706-5.078Q408.771,146.408,410.176,149Zm-.005,10.528q-1.315,2.214-2.7,4.462-1.386-2.247-2.7-4.462,1.389-2.348,2.7-4.645Q408.78,157.178,410.171,159.526Zm.293.492q1.312,2.209,2.7,4.449-1.318,2.128-2.7,4.277-1.38-2.147-2.7-4.277Q409.149,162.227,410.464,160.018Zm2.993,4.927q1.314,2.121,2.693,4.263-1.319,2.045-2.693,4.1-1.376-2.056-2.695-4.1Q412.141,167.069,413.457,164.946Zm.3-.479q1.384-2.24,2.7-4.447,1.314,2.207,2.7,4.447-1.317,2.128-2.7,4.277Q415.07,166.6,413.753,164.467Zm5.691.479q1.344,2.171,2.755,4.361-1.318,2.042-2.693,4.1-1.407-2.1-2.756-4.194Q418.126,167.069,419.444,164.946Zm3.055,4.825q1.317,2.037,2.69,4.083c-.882,1.309-1.774,2.62-2.69,3.93q-1.372-1.965-2.689-3.93Q421.182,171.807,422.5,169.77Zm.3-.464q1.377-2.139,2.695-4.258,1.314,2.119,2.693,4.258-1.32,2.042-2.695,4.1Q424.117,171.349,422.8,169.307Zm5.687.464q1.317,2.037,2.689,4.083c-.882,1.309-1.774,2.62-2.689,3.93q-1.373-1.965-2.689-3.93Q427.168,171.807,428.486,169.77Zm.3-.464q1.376-2.139,2.694-4.258,1.315,2.119,2.693,4.258-1.319,2.042-2.693,4.1Q430.1,171.349,428.785,169.307Zm5.687.464q1.316,2.037,2.689,4.083c-.882,1.309-1.774,2.62-2.689,3.93q-1.373-1.965-2.689-3.93Q433.156,171.807,434.472,169.77Zm.3-.464q1.377-2.139,2.695-4.258,1.314,2.119,2.693,4.258-1.32,2.042-2.693,4.1Q436.089,171.349,434.771,169.307Zm5.687.464q1.317,2.037,2.689,4.083c-.882,1.309-1.774,2.62-2.689,3.93q-1.373-1.965-2.689-3.93Q439.142,171.807,440.458,169.77Zm.3-.464q1.378-2.139,2.694-4.258,1.315,2.119,2.694,4.258-1.32,2.042-2.693,4.1Q442.074,171.349,440.757,169.307Zm5.687.464q1.317,2.037,2.689,4.083c-.882,1.309-1.774,2.62-2.689,3.93q-1.373-1.965-2.689-3.93Q445.128,171.807,446.445,169.77Zm.3-.464q1.411-2.19,2.757-4.361,1.315,2.121,2.692,4.263-1.348,2.09-2.755,4.194Q448.061,171.349,446.744,169.307Zm3.053-4.839q1.384-2.24,2.7-4.447,1.314,2.207,2.7,4.447-1.317,2.128-2.7,4.277Q451.113,166.6,449.8,164.467Zm5.69.479q1.315,2.121,2.693,4.263-1.319,2.045-2.693,4.1-1.375-2.057-2.694-4.1Q454.17,167.069,455.487,164.946Zm.3-.479q1.385-2.24,2.7-4.449,1.315,2.209,2.7,4.449-1.318,2.128-2.7,4.277Q457.1,166.6,455.782,164.467Zm2.991-4.941q1.39-2.348,2.7-4.645,1.311,2.3,2.7,4.645-1.314,2.214-2.7,4.462Q460.088,161.741,458.773,159.526ZM458.767,149q1.408-2.592,2.706-5.078,1.3,2.489,2.706,5.078-1.306,2.4-2.707,4.865Q460.074,151.4,458.767,149Zm.2-11.1-.2-.408q1.411-2.843,2.712-5.579,1.3,2.733,2.712,5.579c-.067.136-.133.272-.2.408-.8,1.6-1.636,3.243-2.51,4.927C460.6,141.145,459.759,139.5,458.963,137.9Zm2.788-6.573q1.426-3.013,2.715-5.863,1.287,2.845,2.715,5.863c-.865,1.825-1.773,3.695-2.715,5.6C463.523,135.024,462.617,133.154,461.751,131.329Zm-.278-27.534c.76,2.025,1.667,4.378,2.722,7.009-.819,2.038-1.726,4.241-2.721,6.583-1-2.341-1.9-4.545-2.722-6.583C459.807,108.172,460.713,105.82,461.472,103.795Zm-.275,14.233c-.843,1.977-1.751,4.052-2.718,6.208-.967-2.155-1.875-4.23-2.719-6.208q1.488-3.49,2.719-6.551Q459.713,114.531,461.2,118.028Zm-5.711-14.233c.76,2.025,1.666,4.378,2.722,7.009-.819,2.038-1.727,4.241-2.722,6.583-1-2.341-1.9-4.545-2.722-6.583C453.82,108.172,454.727,105.82,455.487,103.795Zm-.274,14.233c-.846,1.977-1.751,4.052-2.719,6.208-.968-2.155-1.875-4.23-2.719-6.208q1.488-3.49,2.719-6.551Q453.726,114.531,455.213,118.028Zm-5.775-14.4c.771,2.064,1.7,4.471,2.783,7.176-.819,2.038-1.727,4.241-2.721,6.583-1.021-2.4-1.95-4.657-2.785-6.74C447.773,108.005,448.68,105.649,449.438,103.628Zm-.212,14.4c-.846,1.977-1.752,4.052-2.719,6.208-.991-2.207-1.92-4.332-2.782-6.353.993-2.332,1.9-4.524,2.719-6.56C447.282,113.4,448.209,115.643,449.226,118.028Zm-5.775-14.4c.757,2.022,1.663,4.378,2.721,7.019-.818,2.039-1.726,4.244-2.722,6.591-1-2.346-1.9-4.552-2.722-6.591C441.787,108.005,442.694,105.649,443.452,103.628Zm-.275,14.255q-1.266,2.968-2.719,6.213-1.452-3.238-2.719-6.213,1.489-3.5,2.719-6.56Q441.689,114.378,443.177,117.882Zm-5.711-14.255c.756,2.022,1.663,4.378,2.722,7.019-.819,2.039-1.727,4.244-2.722,6.591-1-2.346-1.9-4.552-2.722-6.591C435.8,108.005,436.708,105.649,437.465,103.628Zm-.275,14.255c-.844,1.979-1.751,4.056-2.719,6.213-.968-2.157-1.875-4.235-2.719-6.213.992-2.332,1.9-4.524,2.719-6.56C435.292,113.358,436.2,115.55,437.191,117.882Zm-5.712-14.255c.757,2.022,1.664,4.378,2.722,7.019-.819,2.039-1.727,4.244-2.722,6.591-1-2.346-1.9-4.552-2.722-6.591C429.814,108.005,430.721,105.649,431.478,103.628Zm-.274,14.255q-1.266,2.968-2.719,6.213-1.451-3.238-2.719-6.213,1.488-3.5,2.719-6.56Q429.717,114.378,431.2,117.882Zm-5.713-14.255c.757,2.022,1.665,4.378,2.723,7.019-.819,2.039-1.726,4.244-2.722,6.591-1-2.346-1.9-4.552-2.722-6.591C423.827,108.005,424.735,105.649,425.491,103.628Zm-.273,14.255c-.863,2.022-1.791,4.146-2.782,6.353-.967-2.155-1.875-4.23-2.719-6.208,1.018-2.385,1.944-4.627,2.782-6.706C423.319,113.358,424.224,115.55,425.218,117.882Zm-5.712-14.255c.756,2.022,1.664,4.378,2.722,7.019-.837,2.083-1.765,4.337-2.785,6.74-1-2.341-1.9-4.545-2.722-6.583C417.807,108.1,418.734,105.691,419.506,103.628Zm-.337,14.4c-.845,1.977-1.751,4.052-2.719,6.208-.967-2.155-1.875-4.23-2.719-6.208q1.489-3.49,2.719-6.551Q417.682,114.531,419.169,118.028Zm-5.711-14.233c.759,2.025,1.666,4.378,2.722,7.009-.819,2.038-1.727,4.241-2.722,6.583-1-2.341-1.9-4.545-2.722-6.583C411.791,108.172,412.7,105.82,413.457,103.795Zm-.275,14.233c-.844,1.977-1.751,4.052-2.719,6.208-.967-2.155-1.875-4.23-2.719-6.208q1.488-3.49,2.719-6.551Q411.7,114.531,413.183,118.028Zm-5.711-14.233c.759,2.025,1.666,4.378,2.722,7.009-.819,2.038-1.727,4.241-2.722,6.583-.994-2.341-1.9-4.545-2.722-6.583C405.8,108.172,406.711,105.82,407.471,103.795Zm-2.994,7.682q1.233,3.055,2.719,6.551c-.845,1.977-1.752,4.052-2.719,6.208-.967-2.155-1.874-4.23-2.719-6.208Q403.246,114.538,404.477,111.477Zm-5.709,13.374q1.449-3.218,2.716-6.183,1.268,2.96,2.717,6.183-1.288,2.854-2.717,5.887Q400.055,127.712,398.768,124.851Zm.207,13.051c-.068-.138-.134-.272-.2-.408q1.411-2.843,2.712-5.579,1.3,2.733,2.712,5.579c-.067.136-.133.272-.2.408-.8,1.6-1.636,3.243-2.51,4.927C400.61,141.145,399.77,139.5,398.974,137.9Zm2.794,5.472c.936-1.8,1.833-3.557,2.681-5.256.01-.019.018-.038.027-.056.01.018.019.037.029.056.848,1.7,1.745,3.457,2.681,5.256q-1.3,2.5-2.709,5.094Q403.065,145.868,401.768,143.374Zm.006,11q1.4-2.46,2.7-4.85,1.306,2.389,2.7,4.85-1.311,2.3-2.7,4.659Q403.086,156.678,401.774,154.372Zm.006,10.1q1.383-2.24,2.7-4.447,1.314,2.207,2.7,4.447-1.317,2.128-2.7,4.277Q403.1,166.6,401.78,164.467Zm3,4.742q1.377-2.14,2.694-4.263,1.316,2.121,2.694,4.263-1.318,2.045-2.693,4.1Q406.095,171.253,404.777,169.209Zm3,4.551q1.373-2.047,2.689-4.085,1.317,2.038,2.689,4.085c-.882,1.31-1.774,2.622-2.689,3.933Q409.091,175.726,407.774,173.76Zm5.744,8.217q-1.4-1.919-2.747-3.845,1.37-1.962,2.685-3.922,1.349,2,2.747,4.011Q414.886,180.1,413.519,181.977Zm.242-8.217q1.373-2.047,2.689-4.086,1.348,2.084,2.752,4.18c-.882,1.309-1.774,2.62-2.69,3.93Q415.108,175.772,413.761,173.76Zm3.06,4.461q1.371-1.959,2.685-3.917,1.318,1.957,2.684,3.916-1.318,1.881-2.684,3.757Q418.142,180.1,416.821,178.22ZM422.5,186q-1.361-1.794-2.682-3.6,1.364-1.872,2.682-3.749,1.318,1.874,2.682,3.749Q423.863,184.209,422.5,186Zm.309-7.784q1.371-1.958,2.684-3.916,1.319,1.957,2.686,3.917-1.319,1.88-2.684,3.756Q424.128,180.1,422.807,178.22ZM428.486,186q-1.361-1.794-2.682-3.6,1.364-1.872,2.682-3.749,1.317,1.874,2.682,3.749Q429.849,184.209,428.486,186Zm.309-7.783q1.37-1.959,2.684-3.917,1.319,1.957,2.684,3.916-1.318,1.881-2.684,3.757Q430.113,180.1,428.794,178.22ZM434.472,186q-1.362-1.794-2.683-3.6,1.364-1.872,2.683-3.749,1.317,1.874,2.682,3.749Q435.835,184.209,434.472,186Zm.309-7.784q1.37-1.958,2.685-3.916,1.318,1.957,2.684,3.917-1.318,1.88-2.684,3.756Q436.1,180.1,434.78,178.22ZM440.458,186q-1.363-1.794-2.682-3.6,1.364-1.872,2.682-3.749,1.317,1.874,2.682,3.749Q441.821,184.209,440.458,186Zm.309-7.783q1.37-1.959,2.685-3.917,1.319,1.957,2.684,3.916-1.318,1.881-2.685,3.757Q442.086,180.1,440.767,178.22ZM446.445,186q-1.362-1.794-2.682-3.6,1.363-1.872,2.682-3.749,1.317,1.874,2.682,3.749Q447.808,184.209,446.445,186Zm2.993-4.027q-1.366-1.876-2.685-3.757,1.37-1.958,2.685-3.916,1.318,1.957,2.684,3.917Q450.8,180.1,449.438,181.977Zm.3-8.123q1.4-2.1,2.752-4.18,1.316,2.038,2.689,4.086-1.351,2.01-2.752,4.024Q451.058,175.818,449.741,173.854Zm5.682,8.123q-1.366-1.875-2.684-3.756,1.4-2,2.747-4.011,1.319,1.961,2.685,3.922Q456.823,180.055,455.424,181.977Zm3.056-4.284q-1.373-1.966-2.689-3.933,1.373-2.047,2.689-4.085,1.318,2.038,2.689,4.085C460.288,175.07,459.4,176.382,458.479,177.693Zm2.993-4.383q-1.374-2.056-2.693-4.1,1.377-2.14,2.694-4.263,1.315,2.121,2.693,4.263Q462.847,171.254,461.472,173.31Zm5.69-8.843q-1.316,2.128-2.7,4.277-1.378-2.147-2.7-4.277,1.383-2.24,2.7-4.447Q465.78,162.227,467.162,164.467Zm.007-10.1q-1.312,2.3-2.7,4.659-1.392-2.353-2.7-4.659,1.4-2.46,2.7-4.85Q465.77,151.91,467.17,154.372Zm-2.7-5.9q-1.411-2.6-2.709-5.094c.936-1.8,1.833-3.557,2.681-5.256l.028-.056c.01.018.019.037.029.056.848,1.7,1.745,3.457,2.681,5.256Q465.876,145.869,464.466,148.469Zm5.706-10.974c-.068.136-.134.27-.2.408-.8,1.6-1.636,3.243-2.51,4.927-.874-1.684-1.714-3.331-2.51-4.927-.069-.136-.135-.272-.2-.408q1.411-2.843,2.713-5.579Q468.758,134.648,470.171,137.494Zm-2.712-6.756q-1.428-3.026-2.718-5.887,1.45-3.218,2.718-6.183,1.27,2.96,2.716,6.183Q468.89,127.7,467.459,130.738Z" transform="translate(-394.592 -99.038)" fill="#a3a5a8"/>
              <path id="Trazado_100581" data-name="Trazado 100581" d="M488.248,216.426q.078-.317.154-.633c-.272-.363-.535-.729-.806-1.093l-.5.164C487.477,215.385,487.856,215.908,488.248,216.426Z" transform="translate(-419.307 -129.942)" fill="#a3a5a8"/>
              <path id="Trazado_100582" data-name="Trazado 100582" d="M410.076,215.282q.652-.875,1.3-1.75c-.155-.07-.309-.146-.462-.219-.338.461-.681.92-1.022,1.379C409.95,214.889,410.012,215.086,410.076,215.282Z" transform="translate(-398.679 -129.572)" fill="#a3a5a8"/>
              <path id="Trazado_100583" data-name="Trazado 100583" d="M493.068,210.83q-.915-1.264-1.812-2.527c-.045.225-.089.451-.135.677.483.682.974,1.364,1.466,2.045C492.748,210.959,492.91,210.9,493.068,210.83Z" transform="translate(-420.384 -128.233)" fill="#a3a5a8"/>
            </g>
          </g>
        </g>
        <path id="Trazado_100585" data-name="Trazado 100585" d="M434.82,116.834a165.22,165.22,0,0,1-27.159-1.978c-7.806-1.372-11.764-3.194-11.764-5.421s3.958-4.05,11.764-5.421a187.456,187.456,0,0,1,54.318,0c7.806,1.371,11.764,3.2,11.764,5.421s-3.958,4.049-11.764,5.421A165.216,165.216,0,0,1,434.82,116.834Zm0-13.437c-23.272,0-37.561,3.517-37.561,6.038s14.289,6.038,37.561,6.038,37.563-3.517,37.563-6.038S458.093,103.4,434.82,103.4Z" transform="translate(-395.898 -102.036)" fill="#707376"/>
      </g>
    </g>
  </g>
</svg>
